<ttFont>
    <TTGlyph name="A" xMin="-9" yMin="-117" xMax="672" yMax="710">
      <contour>
        <pt x="672" y="-55" on="1"/>
        <pt x="637" y="-78" on="0"/>
        <pt x="540" y="-109" on="0"/>
        <pt x="473" y="-117" on="1"/>
        <pt x="467" y="-57" on="0"/>
        <pt x="446" y="74" on="0"/>
        <pt x="430" y="142" on="1"/>
        <pt x="366" y="141" on="0"/>
        <pt x="264" y="135" on="0"/>
        <pt x="219" y="129" on="1"/>
        <pt x="203" y="84" on="0"/>
        <pt x="169" y="2" on="0"/>
        <pt x="152" y="-32" on="1"/>
        <pt x="103" y="-24" on="0"/>
        <pt x="16" y="23" on="0"/>
        <pt x="-9" y="55" on="1"/>
        <pt x="68" y="198" on="0"/>
        <pt x="182" y="489" on="0"/>
        <pt x="244" y="710" on="1"/>
        <pt x="293" y="710" on="0"/>
        <pt x="372" y="701" on="0"/>
        <pt x="420" y="689" on="1"/>
        <pt x="507" y="551" on="0"/>
        <pt x="635" y="171" on="0"/>
      </contour>
      <contour>
        <pt x="327" y="481" on="1"/>
        <pt x="314" y="432" on="0"/>
        <pt x="282" y="322" on="0"/>
        <pt x="264" y="265" on="1"/>
        <pt x="298" y="270" on="0"/>
        <pt x="363" y="276" on="0"/>
        <pt x="396" y="277" on="1"/>
        <pt x="379" y="333" on="0"/>
        <pt x="345" y="435" on="0"/>
      </contour>
    </TTGlyph>
    <TTGlyph name="AE" xMin="-9" yMin="-43" xMax="882" yMax="735">
      <contour>
        <pt x="882" y="-10" on="1"/>
        <pt x="853" y="-19" on="0"/>
        <pt x="540" y="-43" on="0"/>
        <pt x="435" y="-43" on="1"/>
        <pt x="431" y="-10" on="0"/>
        <pt x="422" y="73" on="0"/>
        <pt x="416" y="141" on="1"/>
        <pt x="362" y="140" on="0"/>
        <pt x="270" y="135" on="0"/>
        <pt x="228" y="130" on="1"/>
        <pt x="212" y="93" on="0"/>
        <pt x="175" y="16" on="0"/>
        <pt x="152" y="-32" on="1"/>
        <pt x="103" y="-24" on="0"/>
        <pt x="16" y="23" on="0"/>
        <pt x="-9" y="55" on="1"/>
        <pt x="68" y="198" on="0"/>
        <pt x="182" y="489" on="0"/>
        <pt x="244" y="710" on="1"/>
        <pt x="278" y="710" on="0"/>
        <pt x="359" y="699" on="0"/>
        <pt x="413" y="687" on="1"/>
        <pt x="557" y="714" on="0"/>
        <pt x="757" y="735" on="0"/>
        <pt x="857" y="735" on="1"/>
        <pt x="857" y="698" on="0"/>
        <pt x="848" y="615" on="0"/>
        <pt x="838" y="570" on="1"/>
        <pt x="771" y="570" on="0"/>
        <pt x="651" y="566" on="0"/>
        <pt x="597" y="562" on="1"/>
        <pt x="595" y="540" on="0"/>
        <pt x="593" y="483" on="0"/>
        <pt x="592" y="426" on="1"/>
        <pt x="643" y="441" on="0"/>
        <pt x="745" y="455" on="0"/>
        <pt x="798" y="455" on="1"/>
        <pt x="806" y="420" on="0"/>
        <pt x="814" y="346" on="0"/>
        <pt x="814" y="296" on="1"/>
        <pt x="757" y="296" on="0"/>
        <pt x="644" y="289" on="0"/>
        <pt x="592" y="283" on="1"/>
        <pt x="593" y="238" on="0"/>
        <pt x="597" y="152" on="0"/>
        <pt x="601" y="113" on="1"/>
        <pt x="630" y="113" on="0"/>
        <pt x="816" y="136" on="0"/>
        <pt x="863" y="145" on="1"/>
        <pt x="871" y="124" on="0"/>
        <pt x="882" y="29" on="0"/>
      </contour>
      <contour>
        <pt x="386" y="540" on="1"/>
        <pt x="366" y="477" on="0"/>
        <pt x="316" y="339" on="0"/>
        <pt x="287" y="268" on="1"/>
        <pt x="313" y="271" on="0"/>
        <pt x="370" y="276" on="0"/>
        <pt x="404" y="278" on="1"/>
        <pt x="398" y="341" on="0"/>
        <pt x="389" y="474" on="0"/>
      </contour>
    </TTGlyph>
    <TTGlyph name="Aacute" xMin="-9" yMin="-117" xMax="672" yMax="933">
      <component glyphName="A" x="0" y="0" flags="0x204"/>
      <component glyphName="acute" x="241" y="180" flags="0x4"/>
    </TTGlyph>
    <TTGlyph name="Abreve" xMin="-9" yMin="-117" xMax="672" yMax="922">
      <component glyphName="A" x="0" y="0" flags="0x204"/>
      <component glyphName="breve" x="206" y="180" flags="0x4"/>
    </TTGlyph>
    <TTGlyph name="Acircumflex" xMin="-9" yMin="-117" xMax="672" yMax="921">
      <component glyphName="A" x="0" y="0" flags="0x204"/>
      <component glyphName="circumflex" x="213" y="172" flags="0x4"/>
    </TTGlyph>
    <TTGlyph name="Adieresis" xMin="-9" yMin="-117" xMax="672" yMax="916">
      <component glyphName="A" x="0" y="0" flags="0x204"/>
      <component glyphName="dieresis" x="215" y="160" flags="0x4"/>
    </TTGlyph>
    <TTGlyph name="Agrave" xMin="-9" yMin="-117" xMax="672" yMax="934">
      <component glyphName="A" x="0" y="0" flags="0x204"/>
      <component glyphName="grave" x="172" y="180" flags="0x4"/>
    </TTGlyph>
    <TTGlyph name="Amacron" xMin="-9" yMin="-117" xMax="672" yMax="900">
      <component glyphName="A" x="0" y="0" flags="0x204"/>
      <component glyphName="macron" x="206" y="180" flags="0x4"/>
    </TTGlyph>
    <TTGlyph name="Aogonek" xMin="-9" yMin="-298" xMax="672" yMax="710">
      <contour>
        <pt x="650" y="-237" on="1"/>
        <pt x="627" y="-267" on="0"/>
        <pt x="564" y="-298" on="0"/>
        <pt x="526" y="-298" on="1"/>
        <pt x="478" y="-298" on="0"/>
        <pt x="420" y="-255" on="0"/>
        <pt x="420" y="-219" on="1"/>
        <pt x="420" y="-189" on="0"/>
        <pt x="446" y="-140" on="0"/>
        <pt x="473" y="-117" on="1"/>
        <pt x="466" y="-51" on="0"/>
        <pt x="444" y="80" on="0"/>
        <pt x="430" y="142" on="1"/>
        <pt x="366" y="141" on="0"/>
        <pt x="264" y="135" on="0"/>
        <pt x="219" y="129" on="1"/>
        <pt x="203" y="84" on="0"/>
        <pt x="169" y="2" on="0"/>
        <pt x="152" y="-32" on="1"/>
        <pt x="103" y="-24" on="0"/>
        <pt x="16" y="23" on="0"/>
        <pt x="-9" y="55" on="1"/>
        <pt x="68" y="198" on="0"/>
        <pt x="182" y="489" on="0"/>
        <pt x="244" y="710" on="1"/>
        <pt x="293" y="710" on="0"/>
        <pt x="372" y="701" on="0"/>
        <pt x="420" y="689" on="1"/>
        <pt x="507" y="551" on="0"/>
        <pt x="635" y="171" on="0"/>
        <pt x="672" y="-55" on="1"/>
        <pt x="652" y="-68" on="0"/>
        <pt x="604" y="-89" on="0"/>
        <pt x="577" y="-97" on="1"/>
        <pt x="555" y="-115" on="0"/>
        <pt x="529" y="-164" on="0"/>
        <pt x="529" y="-186" on="1"/>
        <pt x="529" y="-201" on="0"/>
        <pt x="543" y="-219" on="0"/>
        <pt x="556" y="-219" on="1"/>
        <pt x="571" y="-219" on="0"/>
        <pt x="599" y="-200" on="0"/>
        <pt x="612" y="-180" on="1"/>
        <pt x="622" y="-188" on="0"/>
        <pt x="641" y="-216" on="0"/>
      </contour>
      <contour>
        <pt x="327" y="481" on="1"/>
        <pt x="314" y="432" on="0"/>
        <pt x="282" y="322" on="0"/>
        <pt x="264" y="265" on="1"/>
        <pt x="298" y="270" on="0"/>
        <pt x="363" y="276" on="0"/>
        <pt x="396" y="277" on="1"/>
        <pt x="379" y="333" on="0"/>
        <pt x="345" y="435" on="0"/>
      </contour>
    </TTGlyph>
    <TTGlyph name="Aring" xMin="-9" yMin="-117" xMax="672" yMax="942">
      <component glyphName="A" x="0" y="0" flags="0x204"/>
      <component glyphName="ring" x="213" y="172" flags="0x4"/>
    </TTGlyph>
    <TTGlyph name="Atilde" xMin="-9" yMin="-117" xMax="672" yMax="883">
      <component glyphName="A" x="0" y="0" flags="0x204"/>
      <component glyphName="tilde" x="204" y="138" flags="0x4"/>
    </TTGlyph>
    <TTGlyph name="B" xMin="79" yMin="-20" xMax="623" yMax="742">
      <contour>
        <pt x="623" y="267" on="1"/>
        <pt x="623" y="146" on="0"/>
        <pt x="438" y="-20" on="0"/>
        <pt x="304" y="-20" on="1"/>
        <pt x="255" y="-20" on="0"/>
        <pt x="154" y="10" on="0"/>
        <pt x="105" y="40" on="1"/>
        <pt x="92" y="155" on="0"/>
        <pt x="79" y="401" on="0"/>
        <pt x="79" y="538" on="1"/>
        <pt x="79" y="598" on="0"/>
        <pt x="80" y="658" on="0"/>
        <pt x="81" y="684" on="1"/>
        <pt x="138" y="712" on="0"/>
        <pt x="262" y="742" on="0"/>
        <pt x="323" y="742" on="1"/>
        <pt x="445" y="742" on="0"/>
        <pt x="573" y="657" on="0"/>
        <pt x="573" y="577" on="1"/>
        <pt x="573" y="528" on="0"/>
        <pt x="530" y="449" on="0"/>
        <pt x="488" y="420" on="1"/>
        <pt x="552" y="401" on="0"/>
        <pt x="623" y="320" on="0"/>
      </contour>
      <contour>
        <pt x="378" y="549" on="1"/>
        <pt x="378" y="589" on="0"/>
        <pt x="334" y="629" on="0"/>
        <pt x="291" y="629" on="1"/>
        <pt x="288" y="629" on="1"/>
        <pt x="283" y="573" on="0"/>
        <pt x="276" y="472" on="0"/>
        <pt x="274" y="426" on="1"/>
        <pt x="325" y="437" on="0"/>
        <pt x="378" y="501" on="0"/>
      </contour>
      <contour>
        <pt x="271" y="114" on="1"/>
        <pt x="285" y="107" on="0"/>
        <pt x="309" y="100" on="0"/>
        <pt x="321" y="100" on="1"/>
        <pt x="361" y="100" on="0"/>
        <pt x="421" y="178" on="0"/>
        <pt x="421" y="227" on="1"/>
        <pt x="421" y="268" on="0"/>
        <pt x="374" y="311" on="0"/>
        <pt x="329" y="311" on="1"/>
        <pt x="316" y="311" on="0"/>
        <pt x="288" y="305" on="0"/>
        <pt x="271" y="298" on="1"/>
        <pt x="270" y="284" on="0"/>
        <pt x="270" y="253" on="0"/>
        <pt x="270" y="221" on="1"/>
        <pt x="270" y="176" on="0"/>
        <pt x="270" y="132" on="0"/>
      </contour>
    </TTGlyph>
    <TTGlyph name="C" xMin="35" yMin="-35" xMax="603" yMax="693">
      <contour>
        <pt x="437" y="235" on="1"/>
        <pt x="478" y="239" on="0"/>
        <pt x="569" y="222" on="0"/>
        <pt x="589" y="207" on="1"/>
        <pt x="581" y="92" on="0"/>
        <pt x="430" y="-35" on="0"/>
        <pt x="299" y="-35" on="1"/>
        <pt x="175" y="-35" on="0"/>
        <pt x="35" y="119" on="0"/>
        <pt x="35" y="261" on="1"/>
        <pt x="35" y="443" on="0"/>
        <pt x="235" y="693" on="0"/>
        <pt x="387" y="693" on="1"/>
        <pt x="480" y="693" on="0"/>
        <pt x="594" y="578" on="0"/>
        <pt x="603" y="475" on="1"/>
        <pt x="550" y="452" on="0"/>
        <pt x="474" y="438" on="0"/>
        <pt x="416" y="438" on="1"/>
        <pt x="416" y="503" on="0"/>
        <pt x="383" y="573" on="0"/>
        <pt x="353" y="573" on="1"/>
        <pt x="311" y="573" on="0"/>
        <pt x="255" y="419" on="0"/>
        <pt x="255" y="310" on="1"/>
        <pt x="255" y="204" on="0"/>
        <pt x="306" y="91" on="0"/>
        <pt x="353" y="91" on="1"/>
        <pt x="401" y="91" on="0"/>
        <pt x="445" y="167" on="0"/>
      </contour>
    </TTGlyph>
    <TTGlyph name="Cacute" xMin="35" yMin="-35" xMax="603" yMax="933">
      <component glyphName="C" x="0" y="0" flags="0x204"/>
      <component glyphName="acute" x="279" y="180" flags="0x4"/>
    </TTGlyph>
    <TTGlyph name="Ccaron" xMin="35" yMin="-35" xMax="603" yMax="930">
      <component glyphName="C" x="0" y="0" flags="0x204"/>
      <component glyphName="caron" x="259" y="180" flags="0x4"/>
    </TTGlyph>
    <TTGlyph name="Ccedilla" xMin="35" yMin="-252" xMax="603" yMax="693">
      <component glyphName="C" x="0" y="0" flags="0x204"/>
      <component glyphName="cedilla" x="202" y="-22" flags="0x4"/>
    </TTGlyph>
    <TTGlyph name="D" xMin="45" yMin="-9" xMax="613" yMax="717">
      <contour>
        <pt x="613" y="441" on="1"/>
        <pt x="613" y="302" on="0"/>
        <pt x="399" y="36" on="0"/>
        <pt x="247" y="-9" on="1"/>
        <pt x="203" y="-9" on="0"/>
        <pt x="111" y="-2" on="0"/>
        <pt x="77" y="4" on="1"/>
        <pt x="61" y="145" on="0"/>
        <pt x="45" y="398" on="0"/>
        <pt x="45" y="508" on="1"/>
        <pt x="45" y="545" on="0"/>
        <pt x="46" y="621" on="0"/>
        <pt x="48" y="659" on="1"/>
        <pt x="115" y="690" on="0"/>
        <pt x="229" y="717" on="0"/>
        <pt x="291" y="717" on="1"/>
        <pt x="448" y="717" on="0"/>
        <pt x="613" y="575" on="0"/>
      </contour>
      <contour>
        <pt x="258" y="598" on="1"/>
        <pt x="250" y="503" on="0"/>
        <pt x="241" y="300" on="0"/>
        <pt x="241" y="191" on="1"/>
        <pt x="241" y="169" on="0"/>
        <pt x="241" y="146" on="0"/>
        <pt x="242" y="137" on="1"/>
        <pt x="322" y="179" on="0"/>
        <pt x="408" y="336" on="0"/>
        <pt x="408" y="439" on="1"/>
        <pt x="408" y="512" on="0"/>
        <pt x="335" y="599" on="0"/>
        <pt x="274" y="599" on="1"/>
        <pt x="267" y="599" on="0"/>
        <pt x="261" y="599" on="0"/>
      </contour>
    </TTGlyph>
    <TTGlyph name="Dcaron" xMin="45" yMin="-9" xMax="613" yMax="930">
      <component glyphName="D" x="0" y="0" flags="0x204"/>
      <component glyphName="caron" x="157" y="180" flags="0x4"/>
    </TTGlyph>
    <TTGlyph name="Dcroat" xMin="-22" yMin="-9" xMax="613" yMax="717">
      <component glyphName="Eth" x="0" y="0" flags="0x204"/>
    </TTGlyph>
    <TTGlyph name="E" xMin="64" yMin="-43" xMax="579" yMax="735">
      <contour>
        <pt x="579" y="-10" on="1"/>
        <pt x="550" y="-19" on="0"/>
        <pt x="237" y="-43" on="0"/>
        <pt x="132" y="-43" on="1"/>
        <pt x="107" y="116" on="0"/>
        <pt x="66" y="540" on="0"/>
        <pt x="64" y="681" on="1"/>
        <pt x="218" y="710" on="0"/>
        <pt x="445" y="735" on="0"/>
        <pt x="554" y="735" on="1"/>
        <pt x="554" y="698" on="0"/>
        <pt x="545" y="615" on="0"/>
        <pt x="535" y="570" on="1"/>
        <pt x="479" y="570" on="0"/>
        <pt x="359" y="566" on="0"/>
        <pt x="294" y="562" on="1"/>
        <pt x="292" y="540" on="0"/>
        <pt x="290" y="483" on="0"/>
        <pt x="289" y="426" on="1"/>
        <pt x="340" y="441" on="0"/>
        <pt x="442" y="455" on="0"/>
        <pt x="495" y="455" on="1"/>
        <pt x="503" y="420" on="0"/>
        <pt x="511" y="346" on="0"/>
        <pt x="511" y="296" on="1"/>
        <pt x="454" y="296" on="0"/>
        <pt x="342" y="289" on="0"/>
        <pt x="289" y="283" on="1"/>
        <pt x="290" y="238" on="0"/>
        <pt x="294" y="152" on="0"/>
        <pt x="298" y="113" on="1"/>
        <pt x="327" y="113" on="0"/>
        <pt x="513" y="136" on="0"/>
        <pt x="560" y="145" on="1"/>
        <pt x="568" y="124" on="0"/>
        <pt x="579" y="29" on="0"/>
      </contour>
    </TTGlyph>
    <TTGlyph name="Eacute" xMin="64" yMin="-43" xMax="579" yMax="933">
      <component glyphName="E" x="0" y="0" flags="0x204"/>
      <component glyphName="acute" x="174" y="180" flags="0x4"/>
    </TTGlyph>
    <TTGlyph name="Ecaron" xMin="64" yMin="-43" xMax="579" yMax="930">
      <component glyphName="E" x="0" y="0" flags="0x204"/>
      <component glyphName="caron" x="174" y="180" flags="0x4"/>
    </TTGlyph>
    <TTGlyph name="Ecircumflex" xMin="64" yMin="-43" xMax="579" yMax="929">
      <component glyphName="E" x="0" y="0" flags="0x204"/>
      <component glyphName="circumflex" x="174" y="180" flags="0x4"/>
    </TTGlyph>
    <TTGlyph name="Edieresis" xMin="64" yMin="-43" xMax="579" yMax="936">
      <component glyphName="E" x="0" y="0" flags="0x204"/>
      <component glyphName="dieresis" x="185" y="180" flags="0x4"/>
    </TTGlyph>
    <TTGlyph name="Edotaccent" xMin="64" yMin="-43" xMax="579" yMax="936">
      <component glyphName="E" x="0" y="0" flags="0x204"/>
      <component glyphName="dotaccent" x="179" y="180" flags="0x4"/>
    </TTGlyph>
    <TTGlyph name="Egrave" xMin="64" yMin="-43" xMax="579" yMax="933">
      <component glyphName="E" x="0" y="0" flags="0x204"/>
      <component glyphName="grave" x="145" y="179" flags="0x4"/>
    </TTGlyph>
    <TTGlyph name="Emacron" xMin="64" yMin="-43" xMax="579" yMax="900">
      <component glyphName="E" x="0" y="0" flags="0x204"/>
      <component glyphName="macron" x="174" y="180" flags="0x4"/>
    </TTGlyph>
    <TTGlyph name="Eogonek" xMin="64" yMin="-222" xMax="637" yMax="735">
      <contour>
        <pt x="637" y="-161" on="1"/>
        <pt x="615" y="-190" on="0"/>
        <pt x="548" y="-222" on="0"/>
        <pt x="509" y="-222" on="1"/>
        <pt x="461" y="-222" on="0"/>
        <pt x="407" y="-178" on="0"/>
        <pt x="407" y="-138" on="1"/>
        <pt x="407" y="-106" on="0"/>
        <pt x="444" y="-50" on="0"/>
        <pt x="483" y="-23" on="1"/>
        <pt x="398" y="-32" on="0"/>
        <pt x="200" y="-43" on="0"/>
        <pt x="132" y="-43" on="1"/>
        <pt x="107" y="116" on="0"/>
        <pt x="66" y="540" on="0"/>
        <pt x="64" y="681" on="1"/>
        <pt x="218" y="710" on="0"/>
        <pt x="445" y="735" on="0"/>
        <pt x="554" y="735" on="1"/>
        <pt x="554" y="698" on="0"/>
        <pt x="545" y="615" on="0"/>
        <pt x="535" y="570" on="1"/>
        <pt x="468" y="570" on="0"/>
        <pt x="348" y="566" on="0"/>
        <pt x="294" y="562" on="1"/>
        <pt x="292" y="540" on="0"/>
        <pt x="290" y="483" on="0"/>
        <pt x="289" y="426" on="1"/>
        <pt x="340" y="441" on="0"/>
        <pt x="442" y="455" on="0"/>
        <pt x="495" y="455" on="1"/>
        <pt x="503" y="420" on="0"/>
        <pt x="511" y="346" on="0"/>
        <pt x="511" y="296" on="1"/>
        <pt x="454" y="296" on="0"/>
        <pt x="341" y="289" on="0"/>
        <pt x="289" y="283" on="1"/>
        <pt x="290" y="238" on="0"/>
        <pt x="294" y="152" on="0"/>
        <pt x="298" y="113" on="1"/>
        <pt x="327" y="113" on="0"/>
        <pt x="513" y="136" on="0"/>
        <pt x="560" y="145" on="1"/>
        <pt x="568" y="124" on="0"/>
        <pt x="579" y="29" on="0"/>
        <pt x="579" y="-10" on="1"/>
        <pt x="551" y="-28" on="0"/>
        <pt x="516" y="-84" on="0"/>
        <pt x="516" y="-110" on="1"/>
        <pt x="516" y="-125" on="0"/>
        <pt x="530" y="-143" on="0"/>
        <pt x="543" y="-143" on="1"/>
        <pt x="558" y="-143" on="0"/>
        <pt x="586" y="-124" on="0"/>
        <pt x="599" y="-104" on="1"/>
        <pt x="609" y="-112" on="0"/>
        <pt x="628" y="-140" on="0"/>
      </contour>
    </TTGlyph>
    <TTGlyph name="Eth" xMin="-22" yMin="-9" xMax="613" yMax="717">
      <contour>
        <pt x="243" y="324" on="1"/>
        <pt x="242" y="271" on="0"/>
        <pt x="241" y="215" on="0"/>
        <pt x="241" y="191" on="1"/>
        <pt x="241" y="169" on="0"/>
        <pt x="241" y="146" on="0"/>
        <pt x="242" y="137" on="1"/>
        <pt x="322" y="179" on="0"/>
        <pt x="408" y="336" on="0"/>
        <pt x="408" y="439" on="1"/>
        <pt x="408" y="512" on="0"/>
        <pt x="335" y="599" on="0"/>
        <pt x="274" y="599" on="1"/>
        <pt x="267" y="599" on="0"/>
        <pt x="261" y="599" on="0"/>
        <pt x="258" y="598" on="1"/>
        <pt x="254" y="554" on="0"/>
        <pt x="248" y="467" on="0"/>
        <pt x="246" y="423" on="1"/>
        <pt x="262" y="424" on="0"/>
        <pt x="297" y="426" on="0"/>
        <pt x="321" y="428" on="1"/>
        <pt x="323" y="402" on="0"/>
        <pt x="323" y="354" on="0"/>
        <pt x="321" y="334" on="1"/>
        <pt x="295" y="330" on="0"/>
        <pt x="258" y="325" on="0"/>
      </contour>
      <contour>
        <pt x="613" y="441" on="1"/>
        <pt x="613" y="302" on="0"/>
        <pt x="399" y="36" on="0"/>
        <pt x="247" y="-9" on="1"/>
        <pt x="203" y="-9" on="0"/>
        <pt x="111" y="-2" on="0"/>
        <pt x="77" y="4" on="1"/>
        <pt x="68" y="78" on="0"/>
        <pt x="55" y="238" on="0"/>
        <pt x="50" y="320" on="1"/>
        <pt x="23" y="321" on="0"/>
        <pt x="-7" y="323" on="0"/>
        <pt x="-20" y="324" on="1"/>
        <pt x="-22" y="345" on="0"/>
        <pt x="-21" y="406" on="0"/>
        <pt x="-18" y="421" on="1"/>
        <pt x="-7" y="420" on="0"/>
        <pt x="20" y="420" on="0"/>
        <pt x="46" y="420" on="1"/>
        <pt x="45" y="436" on="0"/>
        <pt x="45" y="473" on="0"/>
        <pt x="45" y="508" on="1"/>
        <pt x="45" y="545" on="0"/>
        <pt x="46" y="621" on="0"/>
        <pt x="48" y="659" on="1"/>
        <pt x="115" y="690" on="0"/>
        <pt x="229" y="717" on="0"/>
        <pt x="291" y="717" on="1"/>
        <pt x="448" y="717" on="0"/>
        <pt x="613" y="575" on="0"/>
      </contour>
    </TTGlyph>
    <TTGlyph name="Euro" xMin="3" yMin="-40" xMax="608" yMax="668">
      <contour>
        <pt x="601" y="119" on="1"/>
        <pt x="547" y="35" on="0"/>
        <pt x="425" y="-40" on="0"/>
        <pt x="344" y="-40" on="1"/>
        <pt x="252" y="-40" on="0"/>
        <pt x="131" y="51" on="0"/>
        <pt x="108" y="138" on="1"/>
        <pt x="86" y="139" on="0"/>
        <pt x="43" y="143" on="0"/>
        <pt x="23" y="147" on="1"/>
        <pt x="18" y="172" on="0"/>
        <pt x="13" y="249" on="0"/>
        <pt x="17" y="270" on="1"/>
        <pt x="30" y="269" on="0"/>
        <pt x="59" y="266" on="0"/>
        <pt x="95" y="263" on="1"/>
        <pt x="95" y="269" on="0"/>
        <pt x="96" y="282" on="0"/>
        <pt x="97" y="294" on="1"/>
        <pt x="75" y="296" on="0"/>
        <pt x="33" y="300" on="0"/>
        <pt x="13" y="303" on="1"/>
        <pt x="8" y="328" on="0"/>
        <pt x="3" y="405" on="0"/>
        <pt x="7" y="426" on="1"/>
        <pt x="36" y="423" on="0"/>
        <pt x="93" y="419" on="0"/>
        <pt x="120" y="417" on="1"/>
        <pt x="158" y="534" on="0"/>
        <pt x="315" y="668" on="0"/>
        <pt x="417" y="668" on="1"/>
        <pt x="499" y="668" on="0"/>
        <pt x="599" y="557" on="0"/>
        <pt x="608" y="455" on="1"/>
        <pt x="555" y="432" on="0"/>
        <pt x="479" y="418" on="0"/>
        <pt x="421" y="418" on="1"/>
        <pt x="421" y="482" on="0"/>
        <pt x="400" y="548" on="0"/>
        <pt x="380" y="548" on="1"/>
        <pt x="363" y="548" on="0"/>
        <pt x="334" y="480" on="0"/>
        <pt x="325" y="420" on="1"/>
        <pt x="334" y="421" on="0"/>
        <pt x="373" y="425" on="0"/>
        <pt x="404" y="428" on="1"/>
        <pt x="409" y="405" on="0"/>
        <pt x="407" y="336" on="0"/>
        <pt x="400" y="319" on="1"/>
        <pt x="377" y="315" on="0"/>
        <pt x="335" y="309" on="0"/>
        <pt x="315" y="307" on="1"/>
        <pt x="315" y="265" on="1"/>
        <pt x="337" y="267" on="0"/>
        <pt x="384" y="273" on="0"/>
        <pt x="409" y="277" on="1"/>
        <pt x="414" y="254" on="0"/>
        <pt x="412" y="185" on="0"/>
        <pt x="405" y="168" on="1"/>
        <pt x="359" y="159" on="0"/>
        <pt x="338" y="156" on="0"/>
        <pt x="329" y="155" on="1"/>
        <pt x="338" y="121" on="0"/>
        <pt x="369" y="86" on="0"/>
        <pt x="388" y="86" on="1"/>
        <pt x="417" y="86" on="0"/>
        <pt x="461" y="149" on="0"/>
        <pt x="478" y="214" on="1"/>
        <pt x="515" y="207" on="0"/>
        <pt x="583" y="154" on="0"/>
      </contour>
    </TTGlyph>
    <TTGlyph name="F" xMin="55" yMin="-86" xMax="547" yMax="774">
      <contour>
        <pt x="298" y="-65" on="1"/>
        <pt x="253" y="-76" on="0"/>
        <pt x="167" y="-86" on="0"/>
        <pt x="113" y="-86" on="1"/>
        <pt x="113" y="97" on="0"/>
        <pt x="80" y="572" on="0"/>
        <pt x="55" y="715" on="1"/>
        <pt x="113" y="718" on="0"/>
        <pt x="229" y="730" on="0"/>
        <pt x="296" y="739" on="1"/>
        <pt x="342" y="745" on="0"/>
        <pt x="506" y="769" on="0"/>
        <pt x="537" y="774" on="1"/>
        <pt x="542" y="757" on="0"/>
        <pt x="547" y="714" on="0"/>
        <pt x="547" y="688" on="1"/>
        <pt x="547" y="670" on="0"/>
        <pt x="542" y="628" on="0"/>
        <pt x="536" y="603" on="1"/>
        <pt x="448" y="594" on="0"/>
        <pt x="332" y="582" on="0"/>
        <pt x="305" y="580" on="1"/>
        <pt x="307" y="538" on="0"/>
        <pt x="310" y="453" on="0"/>
        <pt x="310" y="411" on="1"/>
        <pt x="353" y="421" on="0"/>
        <pt x="436" y="430" on="0"/>
        <pt x="478" y="430" on="1"/>
        <pt x="487" y="397" on="0"/>
        <pt x="494" y="324" on="0"/>
        <pt x="494" y="269" on="1"/>
        <pt x="440" y="269" on="0"/>
        <pt x="351" y="265" on="0"/>
        <pt x="311" y="260" on="1"/>
        <pt x="309" y="167" on="0"/>
        <pt x="303" y="4" on="0"/>
      </contour>
    </TTGlyph>
    <TTGlyph name="G" xMin="35" yMin="-34" xMax="642" yMax="724">
      <contour>
        <pt x="600" y="352" on="1"/>
        <pt x="599" y="257" on="0"/>
        <pt x="620" y="74" on="0"/>
        <pt x="642" y="-14" on="1"/>
        <pt x="612" y="-22" on="0"/>
        <pt x="539" y="-32" on="0"/>
        <pt x="494" y="-34" on="1"/>
        <pt x="482" y="-9" on="0"/>
        <pt x="461" y="44" on="0"/>
        <pt x="452" y="71" on="1"/>
        <pt x="414" y="25" on="0"/>
        <pt x="318" y="-21" on="0"/>
        <pt x="259" y="-21" on="1"/>
        <pt x="156" y="-21" on="0"/>
        <pt x="35" y="131" on="0"/>
        <pt x="35" y="261" on="1"/>
        <pt x="35" y="456" on="0"/>
        <pt x="223" y="724" on="0"/>
        <pt x="366" y="724" on="1"/>
        <pt x="465" y="724" on="0"/>
        <pt x="584" y="609" on="0"/>
        <pt x="593" y="506" on="1"/>
        <pt x="549" y="492" on="0"/>
        <pt x="450" y="478" on="0"/>
        <pt x="391" y="478" on="1"/>
        <pt x="379" y="548" on="0"/>
        <pt x="351" y="604" on="0"/>
        <pt x="329" y="604" on="1"/>
        <pt x="291" y="604" on="0"/>
        <pt x="245" y="450" on="0"/>
        <pt x="245" y="323" on="1"/>
        <pt x="245" y="225" on="0"/>
        <pt x="285" y="135" on="0"/>
        <pt x="329" y="135" on="1"/>
        <pt x="357" y="135" on="0"/>
        <pt x="403" y="172" on="0"/>
        <pt x="417" y="206" on="1"/>
        <pt x="412" y="237" on="0"/>
        <pt x="404" y="299" on="0"/>
        <pt x="402" y="330" on="1"/>
        <pt x="442" y="341" on="0"/>
        <pt x="537" y="352" on="0"/>
      </contour>
    </TTGlyph>
    <TTGlyph name="Gbreve" xMin="35" yMin="-34" xMax="642" yMax="922">
      <component glyphName="G" x="0" y="0" flags="0x204"/>
      <component glyphName="breve" x="221" y="180" flags="0x4"/>
    </TTGlyph>
    <TTGlyph name="H" xMin="48" yMin="-60" xMax="639" yMax="742">
      <contour>
        <pt x="620" y="710" on="1"/>
        <pt x="628" y="546" on="0"/>
        <pt x="639" y="106" on="0"/>
        <pt x="639" y="-60" on="1"/>
        <pt x="584" y="-60" on="0"/>
        <pt x="466" y="-50" on="0"/>
        <pt x="440" y="-42" on="1"/>
        <pt x="440" y="23" on="0"/>
        <pt x="438" y="197" on="0"/>
        <pt x="437" y="286" on="1"/>
        <pt x="388" y="285" on="0"/>
        <pt x="302" y="280" on="0"/>
        <pt x="264" y="275" on="1"/>
        <pt x="263" y="225" on="0"/>
        <pt x="262" y="114" on="0"/>
        <pt x="262" y="24" on="1"/>
        <pt x="236" y="16" on="0"/>
        <pt x="129" y="4" on="0"/>
        <pt x="86" y="4" on="1"/>
        <pt x="65" y="259" on="0"/>
        <pt x="48" y="571" on="0"/>
        <pt x="48" y="680" on="1"/>
        <pt x="72" y="696" on="0"/>
        <pt x="144" y="714" on="0"/>
        <pt x="182" y="714" on="1"/>
        <pt x="210" y="714" on="0"/>
        <pt x="256" y="708" on="0"/>
        <pt x="279" y="702" on="1"/>
        <pt x="275" y="657" on="0"/>
        <pt x="269" y="515" on="0"/>
        <pt x="267" y="427" on="1"/>
        <pt x="311" y="434" on="0"/>
        <pt x="393" y="443" on="0"/>
        <pt x="434" y="444" on="1"/>
        <pt x="432" y="531" on="0"/>
        <pt x="424" y="680" on="0"/>
        <pt x="420" y="730" on="1"/>
        <pt x="444" y="736" on="0"/>
        <pt x="485" y="742" on="0"/>
        <pt x="507" y="742" on="1"/>
        <pt x="539" y="742" on="0"/>
        <pt x="599" y="725" on="0"/>
      </contour>
    </TTGlyph>
    <TTGlyph name="I" xMin="49" yMin="-32" xMax="273" yMax="689">
      <contour>
        <pt x="273" y="526" on="1"/>
        <pt x="273" y="390" on="0"/>
        <pt x="261" y="93" on="0"/>
        <pt x="251" y="-12" on="1"/>
        <pt x="223" y="-20" on="0"/>
        <pt x="126" y="-32" on="0"/>
        <pt x="85" y="-32" on="1"/>
        <pt x="85" y="177" on="0"/>
        <pt x="67" y="519" on="0"/>
        <pt x="49" y="655" on="1"/>
        <pt x="73" y="671" on="0"/>
        <pt x="138" y="689" on="0"/>
        <pt x="174" y="689" on="1"/>
        <pt x="201" y="689" on="0"/>
        <pt x="244" y="684" on="0"/>
        <pt x="270" y="677" on="1"/>
        <pt x="271" y="646" on="0"/>
        <pt x="273" y="569" on="0"/>
      </contour>
    </TTGlyph>
    <TTGlyph name="Iacute" xMin="49" yMin="-32" xMax="279" yMax="933">
      <component glyphName="I" x="0" y="0" flags="0x204"/>
      <component glyphName="acute" x="56" y="180" flags="0x4"/>
    </TTGlyph>
    <TTGlyph name="Icircumflex" xMin="8" yMin="-32" xMax="307" yMax="929">
      <component glyphName="I" x="0" y="0" flags="0x204"/>
      <component glyphName="circumflex" x="36" y="180" flags="0x4"/>
    </TTGlyph>
    <TTGlyph name="Idieresis" xMin="-74" yMin="-32" xMax="406" yMax="936">
      <component glyphName="I" x="0" y="0" flags="0x204"/>
      <component glyphName="dieresis" x="36" y="180" flags="0x4"/>
    </TTGlyph>
    <TTGlyph name="Idotaccent" xMin="49" yMin="-32" xMax="276" yMax="936">
      <component glyphName="I" x="0" y="0" flags="0x204"/>
      <component glyphName="dotaccent" x="35" y="180" flags="0x4"/>
    </TTGlyph>
    <TTGlyph name="Igrave" xMin="42" yMin="-32" xMax="273" yMax="927">
      <component glyphName="I" x="0" y="0" flags="0x204"/>
      <component glyphName="grave" x="4" y="173" flags="0x4"/>
    </TTGlyph>
    <TTGlyph name="Imacron" xMin="41" yMin="-32" xMax="291" yMax="900">
      <component glyphName="I" x="0" y="0" flags="0x204"/>
      <component glyphName="macron" x="36" y="180" flags="0x4"/>
    </TTGlyph>
    <TTGlyph name="Iogonek" xMin="49" yMin="-230" xMax="280" yMax="689">
      <contour>
        <pt x="280" y="-169" on="1"/>
        <pt x="257" y="-199" on="0"/>
        <pt x="194" y="-230" on="0"/>
        <pt x="156" y="-230" on="1"/>
        <pt x="108" y="-230" on="0"/>
        <pt x="50" y="-187" on="0"/>
        <pt x="50" y="-151" on="1"/>
        <pt x="50" y="-116" on="0"/>
        <pt x="87" y="-58" on="0"/>
        <pt x="127" y="-31" on="1"/>
        <pt x="123" y="-31" on="0"/>
        <pt x="114" y="-31" on="0"/>
        <pt x="105" y="-32" on="1"/>
        <pt x="97" y="-32" on="0"/>
        <pt x="88" y="-32" on="0"/>
        <pt x="85" y="-32" on="1"/>
        <pt x="85" y="177" on="0"/>
        <pt x="67" y="519" on="0"/>
        <pt x="49" y="655" on="1"/>
        <pt x="73" y="671" on="0"/>
        <pt x="138" y="689" on="0"/>
        <pt x="174" y="689" on="1"/>
        <pt x="201" y="689" on="0"/>
        <pt x="244" y="684" on="0"/>
        <pt x="270" y="677" on="1"/>
        <pt x="271" y="646" on="0"/>
        <pt x="273" y="569" on="0"/>
        <pt x="273" y="526" on="1"/>
        <pt x="273" y="390" on="0"/>
        <pt x="261" y="93" on="0"/>
        <pt x="251" y="-12" on="1"/>
        <pt x="234" y="-16" on="0"/>
        <pt x="224" y="-18" on="0"/>
        <pt x="220" y="-19" on="1"/>
        <pt x="192" y="-37" on="0"/>
        <pt x="159" y="-92" on="0"/>
        <pt x="159" y="-118" on="1"/>
        <pt x="159" y="-133" on="0"/>
        <pt x="173" y="-151" on="0"/>
        <pt x="186" y="-151" on="1"/>
        <pt x="201" y="-151" on="0"/>
        <pt x="229" y="-132" on="0"/>
        <pt x="242" y="-112" on="1"/>
        <pt x="252" y="-120" on="0"/>
        <pt x="271" y="-148" on="0"/>
      </contour>
    </TTGlyph>
    <TTGlyph name="J" xMin="10" yMin="-88" xMax="485" yMax="726">
      <contour>
        <pt x="453" y="152" on="1"/>
        <pt x="431" y="36" on="0"/>
        <pt x="315" y="-88" on="0"/>
        <pt x="229" y="-88" on="1"/>
        <pt x="148" y="-88" on="0"/>
        <pt x="20" y="39" on="0"/>
        <pt x="10" y="127" on="1"/>
        <pt x="40" y="153" on="0"/>
        <pt x="114" y="184" on="0"/>
        <pt x="159" y="190" on="1"/>
        <pt x="173" y="99" on="0"/>
        <pt x="200" y="41" on="0"/>
        <pt x="222" y="41" on="1"/>
        <pt x="252" y="41" on="0"/>
        <pt x="278" y="126" on="0"/>
        <pt x="278" y="218" on="1"/>
        <pt x="278" y="322" on="0"/>
        <pt x="262" y="584" on="0"/>
        <pt x="248" y="692" on="1"/>
        <pt x="271" y="708" on="0"/>
        <pt x="345" y="726" on="0"/>
        <pt x="385" y="726" on="1"/>
        <pt x="413" y="726" on="0"/>
        <pt x="459" y="720" on="0"/>
        <pt x="482" y="714" on="1"/>
        <pt x="483" y="683" on="0"/>
        <pt x="485" y="606" on="0"/>
        <pt x="485" y="563" on="1"/>
        <pt x="485" y="429" on="0"/>
        <pt x="471" y="248" on="0"/>
      </contour>
    </TTGlyph>
    <TTGlyph name="K" xMin="55" yMin="-122" xMax="671" yMax="710">
      <contour>
        <pt x="671" y="14" on="1"/>
        <pt x="639" y="-33" on="0"/>
        <pt x="555" y="-98" on="0"/>
        <pt x="497" y="-122" on="1"/>
        <pt x="447" y="-21" on="0"/>
        <pt x="341" y="132" on="0"/>
        <pt x="268" y="208" on="1"/>
        <pt x="266" y="207" on="0"/>
        <pt x="259" y="202" on="0"/>
        <pt x="257" y="201" on="1"/>
        <pt x="258" y="139" on="0"/>
        <pt x="268" y="10" on="0"/>
        <pt x="277" y="-56" on="1"/>
        <pt x="251" y="-64" on="0"/>
        <pt x="144" y="-76" on="0"/>
        <pt x="101" y="-76" on="1"/>
        <pt x="78" y="41" on="0"/>
        <pt x="55" y="304" on="0"/>
        <pt x="55" y="442" on="1"/>
        <pt x="55" y="496" on="0"/>
        <pt x="59" y="610" on="0"/>
        <pt x="63" y="670" on="1"/>
        <pt x="87" y="686" on="0"/>
        <pt x="159" y="704" on="0"/>
        <pt x="197" y="704" on="1"/>
        <pt x="225" y="704" on="0"/>
        <pt x="271" y="698" on="0"/>
        <pt x="294" y="692" on="1"/>
        <pt x="280" y="617" on="0"/>
        <pt x="262" y="458" on="0"/>
        <pt x="258" y="376" on="1"/>
        <pt x="312" y="436" on="0"/>
        <pt x="403" y="589" on="0"/>
        <pt x="456" y="710" on="1"/>
        <pt x="500" y="696" on="0"/>
        <pt x="579" y="641" on="0"/>
        <pt x="617" y="596" on="1"/>
        <pt x="569" y="510" on="0"/>
        <pt x="469" y="376" on="0"/>
        <pt x="411" y="322" on="1"/>
        <pt x="486" y="258" on="0"/>
        <pt x="607" y="114" on="0"/>
      </contour>
    </TTGlyph>
    <TTGlyph name="L" xMin="62" yMin="-106" xMax="538" yMax="676">
      <contour>
        <pt x="515" y="81" on="1"/>
        <pt x="523" y="55" on="0"/>
        <pt x="538" y="-40" on="0"/>
        <pt x="538" y="-73" on="1"/>
        <pt x="439" y="-73" on="0"/>
        <pt x="258" y="-87" on="0"/>
        <pt x="123" y="-106" on="1"/>
        <pt x="99" y="43" on="0"/>
        <pt x="62" y="500" on="0"/>
        <pt x="62" y="652" on="1"/>
        <pt x="108" y="664" on="0"/>
        <pt x="197" y="676" on="0"/>
        <pt x="241" y="676" on="1"/>
        <pt x="254" y="676" on="0"/>
        <pt x="279" y="675" on="0"/>
        <pt x="293" y="673" on="1"/>
        <pt x="285" y="623" on="0"/>
        <pt x="275" y="456" on="0"/>
        <pt x="275" y="362" on="1"/>
        <pt x="275" y="226" on="0"/>
        <pt x="282" y="94" on="0"/>
        <pt x="290" y="47" on="1"/>
        <pt x="346" y="63" on="0"/>
        <pt x="465" y="81" on="0"/>
      </contour>
    </TTGlyph>
    <TTGlyph name="Lacute" xMin="62" yMin="-106" xMax="538" yMax="933">
      <component glyphName="L" x="0" y="0" flags="0x204"/>
      <component glyphName="acute" x="77" y="180" flags="0x4"/>
    </TTGlyph>
    <TTGlyph name="Lcaron" xMin="62" yMin="-106" xMax="538" yMax="683">
      <component glyphName="L" x="0" y="0" flags="0x204"/>
      <component glyphName="caron.alt" x="314" y="0" flags="0x4"/>
    </TTGlyph>
    <TTGlyph name="Lslash" xMin="-51" yMin="-106" xMax="538" yMax="676">
      <contour>
        <pt x="538" y="-73" on="1"/>
        <pt x="439" y="-73" on="0"/>
        <pt x="258" y="-87" on="0"/>
        <pt x="123" y="-106" on="1"/>
        <pt x="119" y="-81" on="0"/>
        <pt x="110" y="-12" on="0"/>
        <pt x="97" y="94" on="1"/>
        <pt x="92" y="91" on="0"/>
        <pt x="80" y="83" on="0"/>
        <pt x="67" y="75" on="1"/>
        <pt x="47" y="63" on="0"/>
        <pt x="27" y="50" on="0"/>
        <pt x="18" y="45" on="1"/>
        <pt x="-9" y="70" on="0"/>
        <pt x="-39" y="115" on="0"/>
        <pt x="-51" y="150" on="1"/>
        <pt x="-19" y="170" on="0"/>
        <pt x="48" y="215" on="0"/>
        <pt x="83" y="239" on="1"/>
        <pt x="73" y="363" on="0"/>
        <pt x="62" y="575" on="0"/>
        <pt x="62" y="652" on="1"/>
        <pt x="108" y="664" on="0"/>
        <pt x="197" y="676" on="0"/>
        <pt x="241" y="676" on="1"/>
        <pt x="254" y="676" on="0"/>
        <pt x="279" y="675" on="0"/>
        <pt x="293" y="673" on="1"/>
        <pt x="285" y="627" on="0"/>
        <pt x="276" y="472" on="0"/>
        <pt x="275" y="376" on="1"/>
        <pt x="319" y="408" on="0"/>
        <pt x="389" y="461" on="0"/>
        <pt x="420" y="486" on="1"/>
        <pt x="442" y="468" on="0"/>
        <pt x="483" y="402" on="0"/>
        <pt x="494" y="367" on="1"/>
        <pt x="440" y="326" on="0"/>
        <pt x="330" y="249" on="0"/>
        <pt x="276" y="212" on="1"/>
        <pt x="278" y="161" on="0"/>
        <pt x="285" y="80" on="0"/>
        <pt x="290" y="47" on="1"/>
        <pt x="346" y="63" on="0"/>
        <pt x="465" y="81" on="0"/>
        <pt x="515" y="81" on="1"/>
        <pt x="523" y="55" on="0"/>
        <pt x="538" y="-40" on="0"/>
      </contour>
    </TTGlyph>
    <TTGlyph name="M" xMin="60" yMin="-51" xMax="804" yMax="767">
      <contour>
        <pt x="804" y="-14" on="1"/>
        <pt x="749" y="-35" on="0"/>
        <pt x="656" y="-51" on="0"/>
        <pt x="596" y="-51" on="1"/>
        <pt x="605" y="50" on="0"/>
        <pt x="617" y="320" on="0"/>
        <pt x="621" y="471" on="1"/>
        <pt x="584" y="409" on="0"/>
        <pt x="520" y="277" on="0"/>
        <pt x="493" y="207" on="1"/>
        <pt x="469" y="200" on="0"/>
        <pt x="402" y="198" on="0"/>
        <pt x="371" y="204" on="1"/>
        <pt x="342" y="269" on="0"/>
        <pt x="276" y="394" on="0"/>
        <pt x="239" y="453" on="1"/>
        <pt x="239" y="332" on="0"/>
        <pt x="266" y="95" on="0"/>
        <pt x="289" y="16" on="1"/>
        <pt x="262" y="8" on="0"/>
        <pt x="152" y="-4" on="0"/>
        <pt x="105" y="-4" on="1"/>
        <pt x="86" y="127" on="0"/>
        <pt x="60" y="534" on="0"/>
        <pt x="60" y="689" on="1"/>
        <pt x="103" y="719" on="0"/>
        <pt x="206" y="761" on="0"/>
        <pt x="251" y="767" on="1"/>
        <pt x="323" y="674" on="0"/>
        <pt x="420" y="520" on="0"/>
        <pt x="454" y="447" on="1"/>
        <pt x="492" y="535" on="0"/>
        <pt x="583" y="696" on="0"/>
        <pt x="634" y="766" on="1"/>
        <pt x="674" y="760" on="0"/>
        <pt x="754" y="737" on="0"/>
        <pt x="790" y="720" on="1"/>
        <pt x="797" y="583" on="0"/>
        <pt x="804" y="189" on="0"/>
      </contour>
    </TTGlyph>
    <TTGlyph name="N" xMin="60" yMin="-45" xMax="655" yMax="762">
      <contour>
        <pt x="262" y="169" on="1"/>
        <pt x="262" y="-25" on="1"/>
        <pt x="236" y="-33" on="0"/>
        <pt x="138" y="-45" on="0"/>
        <pt x="98" y="-45" on="1"/>
        <pt x="79" y="173" on="0"/>
        <pt x="60" y="530" on="0"/>
        <pt x="60" y="654" on="1"/>
        <pt x="67" y="659" on="0"/>
        <pt x="75" y="663" on="0"/>
        <pt x="79" y="665" on="1"/>
        <pt x="118" y="685" on="0"/>
        <pt x="220" y="710" on="0"/>
        <pt x="275" y="712" on="1"/>
        <pt x="335" y="625" on="0"/>
        <pt x="426" y="458" on="0"/>
        <pt x="465" y="363" on="1"/>
        <pt x="465" y="483" on="0"/>
        <pt x="455" y="670" on="0"/>
        <pt x="446" y="729" on="1"/>
        <pt x="498" y="745" on="0"/>
        <pt x="600" y="762" on="0"/>
        <pt x="650" y="762" on="1"/>
        <pt x="653" y="705" on="0"/>
        <pt x="655" y="599" on="0"/>
        <pt x="655" y="549" on="1"/>
        <pt x="655" y="426" on="0"/>
        <pt x="644" y="157" on="0"/>
        <pt x="635" y="33" on="1"/>
        <pt x="573" y="23" on="0"/>
        <pt x="492" y="14" on="0"/>
        <pt x="454" y="12" on="1"/>
        <pt x="390" y="167" on="0"/>
        <pt x="307" y="336" on="0"/>
        <pt x="263" y="406" on="1"/>
        <pt x="262" y="365" on="0"/>
        <pt x="262" y="266" on="0"/>
      </contour>
    </TTGlyph>
    <TTGlyph name="Nacute" xMin="60" yMin="-45" xMax="655" yMax="933">
      <component glyphName="N" x="0" y="0" flags="0x204"/>
      <component glyphName="acute" x="255" y="180" flags="0x4"/>
    </TTGlyph>
    <TTGlyph name="Ncaron" xMin="60" yMin="-45" xMax="655" yMax="930">
      <component glyphName="N" x="0" y="0" flags="0x204"/>
      <component glyphName="caron" x="225" y="180" flags="0x4"/>
    </TTGlyph>
    <TTGlyph name="Ntilde" xMin="60" yMin="-45" xMax="655" yMax="925">
      <component glyphName="N" x="0" y="0" flags="0x204"/>
      <component glyphName="tilde" x="225" y="180" flags="0x4"/>
    </TTGlyph>
    <TTGlyph name="O" xMin="25" yMin="-20" xMax="619" yMax="733">
      <contour>
        <pt x="368" y="733" on="1"/>
        <pt x="488" y="733" on="0"/>
        <pt x="619" y="576" on="0"/>
        <pt x="619" y="432" on="1"/>
        <pt x="619" y="354" on="0"/>
        <pt x="577" y="193" on="0"/>
        <pt x="540" y="131" on="1"/>
        <pt x="494" y="57" on="0"/>
        <pt x="362" y="-20" on="0"/>
        <pt x="279" y="-20" on="1"/>
        <pt x="159" y="-20" on="0"/>
        <pt x="25" y="165" on="0"/>
        <pt x="25" y="323" on="1"/>
        <pt x="25" y="504" on="0"/>
        <pt x="215" y="733" on="0"/>
      </contour>
      <contour>
        <pt x="321" y="110" on="1"/>
        <pt x="366" y="110" on="0"/>
        <pt x="410" y="234" on="0"/>
        <pt x="410" y="377" on="1"/>
        <pt x="410" y="500" on="0"/>
        <pt x="371" y="603" on="0"/>
        <pt x="325" y="603" on="1"/>
        <pt x="279" y="603" on="0"/>
        <pt x="230" y="471" on="0"/>
        <pt x="230" y="351" on="1"/>
        <pt x="230" y="237" on="0"/>
        <pt x="277" y="110" on="0"/>
      </contour>
    </TTGlyph>
    <TTGlyph name="OE" xMin="30" yMin="-23" xMax="916" yMax="746">
      <contour>
        <pt x="916" y="10" on="1"/>
        <pt x="887" y="1" on="0"/>
        <pt x="574" y="-23" on="0"/>
        <pt x="469" y="-23" on="1"/>
        <pt x="468" y="-16" on="0"/>
        <pt x="465" y="2" on="0"/>
        <pt x="462" y="20" on="1"/>
        <pt x="461" y="33" on="0"/>
        <pt x="459" y="46" on="0"/>
        <pt x="458" y="51" on="1"/>
        <pt x="420" y="22" on="0"/>
        <pt x="330" y="-7" on="0"/>
        <pt x="279" y="-7" on="1"/>
        <pt x="161" y="-7" on="0"/>
        <pt x="30" y="179" on="0"/>
        <pt x="30" y="336" on="1"/>
        <pt x="30" y="517" on="0"/>
        <pt x="217" y="746" on="0"/>
        <pt x="368" y="746" on="1"/>
        <pt x="414" y="746" on="0"/>
        <pt x="491" y="722" on="0"/>
        <pt x="521" y="698" on="1"/>
        <pt x="623" y="715" on="0"/>
        <pt x="803" y="731" on="0"/>
        <pt x="891" y="731" on="1"/>
        <pt x="891" y="694" on="0"/>
        <pt x="882" y="611" on="0"/>
        <pt x="872" y="566" on="1"/>
        <pt x="805" y="566" on="0"/>
        <pt x="685" y="562" on="0"/>
        <pt x="631" y="558" on="1"/>
        <pt x="629" y="536" on="0"/>
        <pt x="627" y="481" on="0"/>
        <pt x="626" y="426" on="1"/>
        <pt x="677" y="441" on="0"/>
        <pt x="779" y="455" on="0"/>
        <pt x="832" y="455" on="1"/>
        <pt x="840" y="420" on="0"/>
        <pt x="848" y="346" on="0"/>
        <pt x="848" y="296" on="1"/>
        <pt x="791" y="296" on="0"/>
        <pt x="678" y="289" on="0"/>
        <pt x="626" y="283" on="1"/>
        <pt x="627" y="246" on="0"/>
        <pt x="631" y="174" on="0"/>
        <pt x="635" y="133" on="1"/>
        <pt x="664" y="133" on="0"/>
        <pt x="850" y="156" on="0"/>
        <pt x="897" y="165" on="1"/>
        <pt x="905" y="144" on="0"/>
        <pt x="916" y="49" on="0"/>
      </contour>
      <contour>
        <pt x="322" y="123" on="1"/>
        <pt x="367" y="123" on="0"/>
        <pt x="410" y="248" on="0"/>
        <pt x="410" y="390" on="1"/>
        <pt x="410" y="513" on="0"/>
        <pt x="371" y="616" on="0"/>
        <pt x="325" y="616" on="1"/>
        <pt x="282" y="616" on="0"/>
        <pt x="235" y="484" on="0"/>
        <pt x="235" y="364" on="1"/>
        <pt x="235" y="250" on="0"/>
        <pt x="280" y="123" on="0"/>
      </contour>
    </TTGlyph>
    <TTGlyph name="Oacute" xMin="25" yMin="-20" xMax="619" yMax="933">
      <component glyphName="O" x="0" y="0" flags="0x204"/>
      <component glyphName="acute" x="194" y="180" flags="0x4"/>
    </TTGlyph>
    <TTGlyph name="Ocircumflex" xMin="25" yMin="-20" xMax="619" yMax="929">
      <component glyphName="O" x="0" y="0" flags="0x204"/>
      <component glyphName="circumflex" x="194" y="180" flags="0x4"/>
    </TTGlyph>
    <TTGlyph name="Odieresis" xMin="25" yMin="-20" xMax="619" yMax="936">
      <component glyphName="O" x="0" y="0" flags="0x204"/>
      <component glyphName="dieresis" x="194" y="180" flags="0x4"/>
    </TTGlyph>
    <TTGlyph name="Ograve" xMin="25" yMin="-20" xMax="619" yMax="934">
      <component glyphName="O" x="0" y="0" flags="0x204"/>
      <component glyphName="grave" x="194" y="180" flags="0x4"/>
    </TTGlyph>
    <TTGlyph name="Ohungarumlaut" xMin="25" yMin="-20" xMax="619" yMax="933">
      <component glyphName="O" x="0" y="0" flags="0x204"/>
      <component glyphName="hungarumlaut" x="240" y="180" flags="0x4"/>
    </TTGlyph>
    <TTGlyph name="Omacron" xMin="25" yMin="-20" xMax="619" yMax="900">
      <component glyphName="O" x="0" y="0" flags="0x204"/>
      <component glyphName="macron" x="194" y="180" flags="0x4"/>
    </TTGlyph>
    <TTGlyph name="Oslash" xMin="30" yMin="-90" xMax="619" yMax="791">
      <contour>
        <pt x="325" y="603" on="1"/>
        <pt x="282" y="603" on="0"/>
        <pt x="235" y="471" on="0"/>
        <pt x="235" y="351" on="1"/>
        <pt x="235" y="337" on="0"/>
        <pt x="235" y="324" on="0"/>
        <pt x="236" y="318" on="1"/>
        <pt x="274" y="385" on="0"/>
        <pt x="344" y="514" on="0"/>
        <pt x="377" y="577" on="1"/>
        <pt x="367" y="590" on="0"/>
        <pt x="342" y="603" on="0"/>
      </contour>
      <contour>
        <pt x="281" y="130" on="1"/>
        <pt x="289" y="120" on="0"/>
        <pt x="310" y="110" on="0"/>
        <pt x="322" y="110" on="1"/>
        <pt x="364" y="110" on="0"/>
        <pt x="408" y="224" on="0"/>
        <pt x="410" y="349" on="1"/>
        <pt x="386" y="308" on="0"/>
        <pt x="330" y="211" on="0"/>
      </contour>
      <contour>
        <pt x="540" y="131" on="1"/>
        <pt x="494" y="57" on="0"/>
        <pt x="362" y="-20" on="0"/>
        <pt x="279" y="-20" on="1"/>
        <pt x="258" y="-20" on="0"/>
        <pt x="217" y="-13" on="0"/>
        <pt x="199" y="-7" on="1"/>
        <pt x="190" y="-21" on="0"/>
        <pt x="169" y="-55" on="0"/>
        <pt x="148" y="-90" on="1"/>
        <pt x="107" y="-77" on="0"/>
        <pt x="57" y="-48" on="0"/>
        <pt x="31" y="-22" on="1"/>
        <pt x="37" y="-13" on="0"/>
        <pt x="49" y="7" on="0"/>
        <pt x="62" y="28" on="1"/>
        <pt x="75" y="48" on="0"/>
        <pt x="87" y="68" on="0"/>
        <pt x="93" y="77" on="1"/>
        <pt x="62" y="122" on="0"/>
        <pt x="30" y="249" on="0"/>
        <pt x="30" y="323" on="1"/>
        <pt x="30" y="504" on="0"/>
        <pt x="217" y="733" on="0"/>
        <pt x="368" y="733" on="1"/>
        <pt x="389" y="733" on="0"/>
        <pt x="430" y="728" on="0"/>
        <pt x="450" y="722" on="1"/>
        <pt x="456" y="734" on="0"/>
        <pt x="470" y="763" on="0"/>
        <pt x="484" y="791" on="1"/>
        <pt x="515" y="783" on="0"/>
        <pt x="583" y="742" on="0"/>
        <pt x="607" y="716" on="1"/>
        <pt x="603" y="707" on="0"/>
        <pt x="593" y="688" on="0"/>
        <pt x="583" y="668" on="1"/>
        <pt x="576" y="655" on="0"/>
        <pt x="570" y="642" on="0"/>
        <pt x="567" y="637" on="1"/>
        <pt x="593" y="599" on="0"/>
        <pt x="619" y="496" on="0"/>
        <pt x="619" y="432" on="1"/>
        <pt x="619" y="354" on="0"/>
        <pt x="577" y="193" on="0"/>
      </contour>
    </TTGlyph>
    <TTGlyph name="Otilde" xMin="25" yMin="-20" xMax="619" yMax="925">
      <component glyphName="O" x="0" y="0" flags="0x204"/>
      <component glyphName="tilde" x="194" y="180" flags="0x4"/>
    </TTGlyph>
    <TTGlyph name="P" xMin="61" yMin="-68" xMax="596" yMax="742">
      <contour>
        <pt x="261" y="209" on="1"/>
        <pt x="261" y="173" on="0"/>
        <pt x="263" y="90" on="0"/>
        <pt x="270" y="-68" on="1"/>
        <pt x="225" y="-68" on="0"/>
        <pt x="133" y="-61" on="0"/>
        <pt x="98" y="-55" on="1"/>
        <pt x="79" y="104" on="0"/>
        <pt x="61" y="399" on="0"/>
        <pt x="61" y="538" on="1"/>
        <pt x="61" y="569" on="0"/>
        <pt x="64" y="639" on="0"/>
        <pt x="68" y="684" on="1"/>
        <pt x="120" y="710" on="0"/>
        <pt x="269" y="742" on="0"/>
        <pt x="341" y="742" on="1"/>
        <pt x="463" y="742" on="0"/>
        <pt x="596" y="639" on="0"/>
        <pt x="596" y="547" on="1"/>
        <pt x="596" y="435" on="0"/>
        <pt x="417" y="253" on="0"/>
      </contour>
      <contour>
        <pt x="390" y="511" on="1"/>
        <pt x="390" y="569" on="0"/>
        <pt x="345" y="629" on="0"/>
        <pt x="300" y="629" on="1"/>
        <pt x="291" y="629" on="0"/>
        <pt x="282" y="629" on="0"/>
        <pt x="278" y="628" on="1"/>
        <pt x="272" y="561" on="0"/>
        <pt x="264" y="417" on="0"/>
        <pt x="262" y="338" on="1"/>
        <pt x="326" y="355" on="0"/>
        <pt x="390" y="441" on="0"/>
      </contour>
    </TTGlyph>
    <TTGlyph name="Q" xMin="30" yMin="-130" xMax="646" yMax="673">
      <contour>
        <pt x="646" y="-11" on="1"/>
        <pt x="637" y="-42" on="0"/>
        <pt x="584" y="-99" on="0"/>
        <pt x="536" y="-130" on="1"/>
        <pt x="514" y="-95" on="0"/>
        <pt x="467" y="-29" on="0"/>
        <pt x="442" y="2" on="1"/>
        <pt x="406" y="-19" on="0"/>
        <pt x="324" y="-40" on="0"/>
        <pt x="278" y="-40" on="1"/>
        <pt x="160" y="-40" on="0"/>
        <pt x="30" y="129" on="0"/>
        <pt x="30" y="273" on="1"/>
        <pt x="30" y="447" on="0"/>
        <pt x="222" y="673" on="0"/>
        <pt x="367" y="673" on="1"/>
        <pt x="496" y="673" on="0"/>
        <pt x="628" y="526" on="0"/>
        <pt x="628" y="382" on="1"/>
        <pt x="628" y="306" on="0"/>
        <pt x="582" y="153" on="0"/>
        <pt x="541" y="95" on="1"/>
        <pt x="572" y="69" on="0"/>
        <pt x="625" y="15" on="0"/>
      </contour>
      <contour>
        <pt x="235" y="301" on="1"/>
        <pt x="235" y="206" on="0"/>
        <pt x="280" y="90" on="0"/>
        <pt x="321" y="90" on="1"/>
        <pt x="331" y="90" on="0"/>
        <pt x="347" y="95" on="0"/>
        <pt x="354" y="99" on="1"/>
        <pt x="341" y="113" on="0"/>
        <pt x="312" y="140" on="0"/>
        <pt x="297" y="153" on="1"/>
        <pt x="307" y="174" on="0"/>
        <pt x="338" y="205" on="0"/>
        <pt x="360" y="217" on="1"/>
        <pt x="380" y="207" on="0"/>
        <pt x="403" y="194" on="0"/>
        <pt x="406" y="192" on="1"/>
        <pt x="412" y="220" on="0"/>
        <pt x="419" y="288" on="0"/>
        <pt x="419" y="327" on="1"/>
        <pt x="419" y="441" on="0"/>
        <pt x="382" y="543" on="0"/>
        <pt x="339" y="543" on="1"/>
        <pt x="290" y="543" on="0"/>
        <pt x="235" y="414" on="0"/>
      </contour>
    </TTGlyph>
    <TTGlyph name="R" xMin="55" yMin="-55" xMax="643" yMax="770">
      <contour>
        <pt x="643" y="44" on="1"/>
        <pt x="612" y="12" on="0"/>
        <pt x="522" y="-38" on="0"/>
        <pt x="463" y="-55" on="1"/>
        <pt x="399" y="96" on="0"/>
        <pt x="334" y="223" on="0"/>
        <pt x="298" y="276" on="1"/>
        <pt x="289" y="274" on="0"/>
        <pt x="280" y="271" on="0"/>
        <pt x="276" y="269" on="1"/>
        <pt x="274" y="197" on="0"/>
        <pt x="266" y="60" on="0"/>
        <pt x="260" y="-7" on="1"/>
        <pt x="215" y="-7" on="0"/>
        <pt x="123" y="0" on="0"/>
        <pt x="88" y="6" on="1"/>
        <pt x="89" y="53" on="0"/>
        <pt x="90" y="99" on="0"/>
        <pt x="90" y="119" on="1"/>
        <pt x="90" y="246" on="0"/>
        <pt x="73" y="522" on="0"/>
        <pt x="55" y="684" on="1"/>
        <pt x="102" y="724" on="0"/>
        <pt x="237" y="770" on="0"/>
        <pt x="303" y="770" on="1"/>
        <pt x="434" y="770" on="0"/>
        <pt x="576" y="658" on="0"/>
        <pt x="576" y="557" on="1"/>
        <pt x="576" y="496" on="0"/>
        <pt x="512" y="390" on="0"/>
        <pt x="449" y="348" on="1"/>
        <pt x="502" y="287" on="0"/>
        <pt x="597" y="139" on="0"/>
      </contour>
      <contour>
        <pt x="278" y="394" on="1"/>
        <pt x="278" y="390" on="1"/>
        <pt x="325" y="408" on="0"/>
        <pt x="371" y="482" on="0"/>
        <pt x="371" y="539" on="1"/>
        <pt x="371" y="595" on="0"/>
        <pt x="322" y="657" on="0"/>
        <pt x="276" y="657" on="1"/>
        <pt x="272" y="657" on="1"/>
        <pt x="275" y="559" on="0"/>
        <pt x="278" y="444" on="0"/>
      </contour>
    </TTGlyph>
    <TTGlyph name="Racute" xMin="55" yMin="-55" xMax="643" yMax="983">
      <component glyphName="R" x="0" y="0" flags="0x204"/>
      <component glyphName="acute" x="199" y="230" flags="0x4"/>
    </TTGlyph>
    <TTGlyph name="Rcaron" xMin="55" yMin="-55" xMax="643" yMax="985">
      <component glyphName="R" x="0" y="0" flags="0x204"/>
      <component glyphName="caron" x="189" y="235" flags="0x4"/>
    </TTGlyph>
    <TTGlyph name="S" xMin="-5" yMin="-40" xMax="565" yMax="767">
      <contour>
        <pt x="484" y="342" on="1"/>
        <pt x="507" y="310" on="0"/>
        <pt x="529" y="239" on="0"/>
        <pt x="529" y="198" on="1"/>
        <pt x="529" y="95" on="0"/>
        <pt x="381" y="-40" on="0"/>
        <pt x="273" y="-40" on="1"/>
        <pt x="154" y="-40" on="0"/>
        <pt x="-5" y="107" on="0"/>
        <pt x="-5" y="208" on="1"/>
        <pt x="27" y="224" on="0"/>
        <pt x="118" y="247" on="0"/>
        <pt x="148" y="247" on="1"/>
        <pt x="148" y="171" on="0"/>
        <pt x="205" y="78" on="0"/>
        <pt x="254" y="78" on="1"/>
        <pt x="289" y="78" on="0"/>
        <pt x="327" y="117" on="0"/>
        <pt x="327" y="151" on="1"/>
        <pt x="327" y="180" on="0"/>
        <pt x="288" y="235" on="0"/>
        <pt x="221" y="286" on="1"/>
        <pt x="171" y="324" on="0"/>
        <pt x="123" y="370" on="0"/>
        <pt x="106" y="392" on="1"/>
        <pt x="82" y="426" on="0"/>
        <pt x="58" y="499" on="0"/>
        <pt x="58" y="541" on="1"/>
        <pt x="58" y="641" on="0"/>
        <pt x="201" y="767" on="0"/>
        <pt x="317" y="767" on="1"/>
        <pt x="420" y="767" on="0"/>
        <pt x="545" y="668" on="0"/>
        <pt x="565" y="571" on="1"/>
        <pt x="536" y="552" on="0"/>
        <pt x="462" y="531" on="0"/>
        <pt x="402" y="527" on="1"/>
        <pt x="393" y="589" on="0"/>
        <pt x="351" y="643" on="0"/>
        <pt x="314" y="643" on="1"/>
        <pt x="291" y="643" on="0"/>
        <pt x="264" y="614" on="0"/>
        <pt x="264" y="590" on="1"/>
        <pt x="264" y="557" on="0"/>
        <pt x="304" y="497" on="0"/>
        <pt x="372" y="446" on="1"/>
        <pt x="422" y="409" on="0"/>
        <pt x="468" y="365" on="0"/>
      </contour>
    </TTGlyph>
    <TTGlyph name="Sacute" xMin="-5" yMin="-40" xMax="565" yMax="973">
      <component glyphName="S" x="0" y="0" flags="0x204"/>
      <component glyphName="acute" x="220" y="220" flags="0x4"/>
    </TTGlyph>
    <TTGlyph name="Scaron" xMin="-5" yMin="-40" xMax="565" yMax="971">
      <component glyphName="S" x="0" y="0" flags="0x204"/>
      <component glyphName="caron" x="204" y="221" flags="0x4"/>
    </TTGlyph>
    <TTGlyph name="T" xMin="12" yMin="23" xMax="565" yMax="794">
      <contour>
        <pt x="400" y="44" on="1"/>
        <pt x="356" y="33" on="0"/>
        <pt x="271" y="23" on="0"/>
        <pt x="218" y="23" on="1"/>
        <pt x="218" y="163" on="0"/>
        <pt x="202" y="488" on="0"/>
        <pt x="188" y="606" on="1"/>
        <pt x="175" y="605" on="0"/>
        <pt x="101" y="598" on="0"/>
        <pt x="39" y="592" on="1"/>
        <pt x="26" y="627" on="0"/>
        <pt x="12" y="701" on="0"/>
        <pt x="12" y="736" on="1"/>
        <pt x="149" y="767" on="0"/>
        <pt x="398" y="794" on="0"/>
        <pt x="555" y="794" on="1"/>
        <pt x="560" y="777" on="0"/>
        <pt x="565" y="734" on="0"/>
        <pt x="565" y="708" on="1"/>
        <pt x="565" y="690" on="0"/>
        <pt x="560" y="648" on="0"/>
        <pt x="554" y="623" on="1"/>
        <pt x="516" y="623" on="0"/>
        <pt x="444" y="622" on="0"/>
        <pt x="409" y="620" on="1"/>
        <pt x="413" y="558" on="0"/>
        <pt x="417" y="424" on="0"/>
        <pt x="417" y="353" on="1"/>
        <pt x="417" y="287" on="0"/>
        <pt x="409" y="134" on="0"/>
      </contour>
    </TTGlyph>
    <TTGlyph name="Tcaron" xMin="12" yMin="23" xMax="565" yMax="991">
      <component glyphName="T" x="0" y="0" flags="0x204"/>
      <component glyphName="caron" x="163" y="241" flags="0x4"/>
    </TTGlyph>
    <TTGlyph name="Thorn" xMin="61" yMin="-68" xMax="596" yMax="703">
      <contour>
        <pt x="265" y="55" on="1"/>
        <pt x="266" y="33" on="0"/>
        <pt x="268" y="-17" on="0"/>
        <pt x="270" y="-68" on="1"/>
        <pt x="225" y="-68" on="0"/>
        <pt x="133" y="-61" on="0"/>
        <pt x="98" y="-55" on="1"/>
        <pt x="79" y="104" on="0"/>
        <pt x="61" y="399" on="0"/>
        <pt x="61" y="538" on="1"/>
        <pt x="61" y="571" on="0"/>
        <pt x="65" y="654" on="0"/>
        <pt x="68" y="694" on="1"/>
        <pt x="122" y="703" on="0"/>
        <pt x="238" y="698" on="0"/>
        <pt x="283" y="685" on="1"/>
        <pt x="281" y="668" on="0"/>
        <pt x="278" y="626" on="0"/>
        <pt x="274" y="584" on="1"/>
        <pt x="291" y="586" on="0"/>
        <pt x="325" y="587" on="0"/>
        <pt x="341" y="587" on="1"/>
        <pt x="463" y="587" on="0"/>
        <pt x="596" y="484" on="0"/>
        <pt x="596" y="392" on="1"/>
        <pt x="596" y="280" on="0"/>
        <pt x="420" y="100" on="0"/>
      </contour>
      <contour>
        <pt x="267" y="471" on="1"/>
        <pt x="264" y="409" on="0"/>
        <pt x="261" y="283" on="0"/>
        <pt x="261" y="221" on="1"/>
        <pt x="261" y="183" on="1"/>
        <pt x="325" y="199" on="0"/>
        <pt x="390" y="285" on="0"/>
        <pt x="390" y="356" on="1"/>
        <pt x="390" y="414" on="0"/>
        <pt x="345" y="474" on="0"/>
        <pt x="300" y="474" on="1"/>
        <pt x="292" y="474" on="0"/>
        <pt x="275" y="473" on="0"/>
      </contour>
    </TTGlyph>
    <TTGlyph name="U" xMin="35" yMin="-80" xMax="574" yMax="712">
      <contour>
        <pt x="535" y="712" on="1"/>
        <pt x="557" y="608" on="0"/>
        <pt x="574" y="472" on="0"/>
        <pt x="574" y="412" on="1"/>
        <pt x="574" y="170" on="0"/>
        <pt x="421" y="-80" on="0"/>
        <pt x="271" y="-80" on="1"/>
        <pt x="155" y="-80" on="0"/>
        <pt x="35" y="98" on="0"/>
        <pt x="35" y="265" on="1"/>
        <pt x="35" y="368" on="0"/>
        <pt x="71" y="588" on="0"/>
        <pt x="90" y="622" on="1"/>
        <pt x="109" y="627" on="0"/>
        <pt x="164" y="634" on="0"/>
        <pt x="190" y="634" on="1"/>
        <pt x="221" y="634" on="0"/>
        <pt x="266" y="626" on="0"/>
        <pt x="278" y="619" on="1"/>
        <pt x="264" y="538" on="0"/>
        <pt x="250" y="377" on="0"/>
        <pt x="250" y="305" on="1"/>
        <pt x="250" y="185" on="0"/>
        <pt x="277" y="50" on="0"/>
        <pt x="302" y="50" on="1"/>
        <pt x="333" y="50" on="0"/>
        <pt x="365" y="205" on="0"/>
        <pt x="365" y="350" on="1"/>
        <pt x="365" y="422" on="0"/>
        <pt x="345" y="584" on="0"/>
        <pt x="324" y="674" on="1"/>
        <pt x="363" y="691" on="0"/>
        <pt x="485" y="712" on="0"/>
      </contour>
    </TTGlyph>
    <TTGlyph name="Uacute" xMin="35" yMin="-80" xMax="574" yMax="889">
      <component glyphName="U" x="0" y="0" flags="0x204"/>
      <component glyphName="acute" x="157" y="136" flags="0x4"/>
    </TTGlyph>
    <TTGlyph name="Ucircumflex" xMin="35" yMin="-80" xMax="574" yMax="898">
      <component glyphName="U" x="0" y="0" flags="0x204"/>
      <component glyphName="circumflex" x="164" y="149" flags="0x4"/>
    </TTGlyph>
    <TTGlyph name="Udieresis" xMin="35" yMin="-80" xMax="574" yMax="908">
      <component glyphName="U" x="0" y="0" flags="0x204"/>
      <component glyphName="dieresis" x="173" y="152" flags="0x4"/>
    </TTGlyph>
    <TTGlyph name="Ugrave" xMin="35" yMin="-80" xMax="574" yMax="891">
      <component glyphName="U" x="0" y="0" flags="0x204"/>
      <component glyphName="grave" x="104" y="137" flags="0x4"/>
    </TTGlyph>
    <TTGlyph name="Uhungarumlaut" xMin="35" yMin="-80" xMax="574" yMax="916">
      <component glyphName="U" x="0" y="0" flags="0x204"/>
      <component glyphName="hungarumlaut" x="172" y="163" flags="0x4"/>
    </TTGlyph>
    <TTGlyph name="Umacron" xMin="35" yMin="-80" xMax="574" yMax="828">
      <component glyphName="U" x="0" y="0" flags="0x204"/>
      <component glyphName="macron" x="143" y="108" flags="0x4"/>
    </TTGlyph>
    <TTGlyph name="Uogonek" xMin="35" yMin="-296" xMax="574" yMax="712">
      <contour>
        <pt x="399" y="-235" on="1"/>
        <pt x="376" y="-265" on="0"/>
        <pt x="313" y="-296" on="0"/>
        <pt x="275" y="-296" on="1"/>
        <pt x="225" y="-296" on="0"/>
        <pt x="169" y="-249" on="0"/>
        <pt x="169" y="-207" on="1"/>
        <pt x="169" y="-176" on="0"/>
        <pt x="212" y="-109" on="0"/>
        <pt x="252" y="-79" on="1"/>
        <pt x="146" y="-72" on="0"/>
        <pt x="35" y="106" on="0"/>
        <pt x="35" y="265" on="1"/>
        <pt x="35" y="368" on="0"/>
        <pt x="71" y="588" on="0"/>
        <pt x="90" y="622" on="1"/>
        <pt x="109" y="627" on="0"/>
        <pt x="164" y="634" on="0"/>
        <pt x="190" y="634" on="1"/>
        <pt x="221" y="634" on="0"/>
        <pt x="266" y="626" on="0"/>
        <pt x="278" y="619" on="1"/>
        <pt x="264" y="538" on="0"/>
        <pt x="250" y="377" on="0"/>
        <pt x="250" y="305" on="1"/>
        <pt x="250" y="185" on="0"/>
        <pt x="277" y="50" on="0"/>
        <pt x="302" y="50" on="1"/>
        <pt x="333" y="50" on="0"/>
        <pt x="365" y="205" on="0"/>
        <pt x="365" y="350" on="1"/>
        <pt x="365" y="422" on="0"/>
        <pt x="345" y="584" on="0"/>
        <pt x="324" y="674" on="1"/>
        <pt x="363" y="691" on="0"/>
        <pt x="485" y="712" on="0"/>
        <pt x="535" y="712" on="1"/>
        <pt x="557" y="608" on="0"/>
        <pt x="574" y="472" on="0"/>
        <pt x="574" y="412" on="1"/>
        <pt x="574" y="218" on="0"/>
        <pt x="478" y="-17" on="0"/>
        <pt x="380" y="-65" on="1"/>
        <pt x="334" y="-87" on="0"/>
        <pt x="278" y="-154" on="0"/>
        <pt x="278" y="-184" on="1"/>
        <pt x="278" y="-199" on="0"/>
        <pt x="292" y="-217" on="0"/>
        <pt x="305" y="-217" on="1"/>
        <pt x="320" y="-217" on="0"/>
        <pt x="348" y="-198" on="0"/>
        <pt x="361" y="-178" on="1"/>
        <pt x="371" y="-186" on="0"/>
        <pt x="390" y="-214" on="0"/>
      </contour>
    </TTGlyph>
    <TTGlyph name="Uring" xMin="35" yMin="-80" xMax="574" yMax="909">
      <component glyphName="U" x="0" y="0" flags="0x204"/>
      <component glyphName="ring" x="151" y="139" flags="0x4"/>
    </TTGlyph>
    <TTGlyph name="V" xMin="0" yMin="-98" xMax="627" yMax="769">
      <contour>
        <pt x="627" y="730" on="1"/>
        <pt x="599" y="533" on="0"/>
        <pt x="466" y="104" on="0"/>
        <pt x="378" y="-76" on="1"/>
        <pt x="351" y="-87" on="0"/>
        <pt x="263" y="-98" on="0"/>
        <pt x="207" y="-98" on="1"/>
        <pt x="137" y="79" on="0"/>
        <pt x="33" y="428" on="0"/>
        <pt x="0" y="597" on="1"/>
        <pt x="45" y="617" on="0"/>
        <pt x="156" y="639" on="0"/>
        <pt x="216" y="640" on="1"/>
        <pt x="243" y="438" on="0"/>
        <pt x="290" y="201" on="0"/>
        <pt x="317" y="120" on="1"/>
        <pt x="354" y="229" on="0"/>
        <pt x="418" y="546" on="0"/>
        <pt x="447" y="769" on="1"/>
        <pt x="495" y="766" on="0"/>
        <pt x="587" y="746" on="0"/>
      </contour>
    </TTGlyph>
    <TTGlyph name="W" xMin="-5" yMin="-81" xMax="948" yMax="710">
      <contour>
        <pt x="473" y="367" on="1"/>
        <pt x="445" y="236" on="0"/>
        <pt x="387" y="34" on="0"/>
        <pt x="352" y="-57" on="1"/>
        <pt x="317" y="-68" on="0"/>
        <pt x="230" y="-80" on="0"/>
        <pt x="188" y="-81" on="1"/>
        <pt x="122" y="100" on="0"/>
        <pt x="28" y="450" on="0"/>
        <pt x="-5" y="636" on="1"/>
        <pt x="48" y="652" on="0"/>
        <pt x="160" y="671" on="0"/>
        <pt x="219" y="673" on="1"/>
        <pt x="229" y="565" on="0"/>
        <pt x="270" y="318" on="0"/>
        <pt x="302" y="178" on="1"/>
        <pt x="325" y="258" on="0"/>
        <pt x="364" y="432" on="0"/>
        <pt x="389" y="571" on="1"/>
        <pt x="442" y="583" on="0"/>
        <pt x="562" y="596" on="0"/>
        <pt x="606" y="595" on="1"/>
        <pt x="610" y="569" on="0"/>
        <pt x="618" y="509" on="0"/>
        <pt x="626" y="450" on="1"/>
        <pt x="639" y="361" on="0"/>
        <pt x="652" y="269" on="0"/>
        <pt x="658" y="229" on="1"/>
        <pt x="700" y="352" on="0"/>
        <pt x="755" y="592" on="0"/>
        <pt x="767" y="710" on="1"/>
        <pt x="821" y="707" on="0"/>
        <pt x="913" y="673" on="0"/>
        <pt x="948" y="644" on="1"/>
        <pt x="913" y="471" on="0"/>
        <pt x="774" y="114" on="0"/>
        <pt x="688" y="-22" on="1"/>
        <pt x="658" y="-27" on="0"/>
        <pt x="588" y="-35" on="0"/>
        <pt x="547" y="-37" on="1"/>
        <pt x="546" y="-32" on="0"/>
        <pt x="481" y="273" on="0"/>
      </contour>
    </TTGlyph>
    <TTGlyph name="X" xMin="-4" yMin="-56" xMax="639" yMax="794">
      <contour>
        <pt x="621" y="40" on="1"/>
        <pt x="601" y="18" on="0"/>
        <pt x="526" y="-32" on="0"/>
        <pt x="479" y="-56" on="1"/>
        <pt x="421" y="62" on="0"/>
        <pt x="353" y="193" on="0"/>
        <pt x="323" y="247" on="1"/>
        <pt x="267" y="178" on="0"/>
        <pt x="162" y="61" on="0"/>
        <pt x="100" y="-2" on="1"/>
        <pt x="75" y="14" on="0"/>
        <pt x="13" y="73" on="0"/>
        <pt x="-4" y="97" on="1"/>
        <pt x="136" y="266" on="0"/>
        <pt x="204" y="352" on="0"/>
        <pt x="235" y="394" on="1"/>
        <pt x="183" y="475" on="0"/>
        <pt x="77" y="616" on="0"/>
        <pt x="20" y="679" on="1"/>
        <pt x="61" y="715" on="0"/>
        <pt x="162" y="777" on="0"/>
        <pt x="208" y="794" on="1"/>
        <pt x="251" y="735" on="0"/>
        <pt x="331" y="615" on="0"/>
        <pt x="369" y="554" on="1"/>
        <pt x="409" y="613" on="0"/>
        <pt x="473" y="719" on="0"/>
        <pt x="501" y="771" on="1"/>
        <pt x="539" y="753" on="0"/>
        <pt x="615" y="689" on="0"/>
        <pt x="639" y="654" on="1"/>
        <pt x="604" y="600" on="0"/>
        <pt x="516" y="482" on="0"/>
        <pt x="455" y="405" on="1"/>
        <pt x="502" y="318" on="0"/>
        <pt x="584" y="137" on="0"/>
      </contour>
    </TTGlyph>
    <TTGlyph name="Y" xMin="-5" yMin="-103" xMax="559" yMax="737">
      <contour>
        <pt x="559" y="661" on="1"/>
        <pt x="496" y="420" on="0"/>
        <pt x="347" y="56" on="0"/>
        <pt x="246" y="-103" on="1"/>
        <pt x="206" y="-93" on="0"/>
        <pt x="117" y="-53" on="0"/>
        <pt x="92" y="-33" on="1"/>
        <pt x="127" y="26" on="0"/>
        <pt x="186" y="137" on="0"/>
        <pt x="210" y="192" on="1"/>
        <pt x="137" y="282" on="0"/>
        <pt x="29" y="524" on="0"/>
        <pt x="-5" y="673" on="1"/>
        <pt x="37" y="703" on="0"/>
        <pt x="134" y="734" on="0"/>
        <pt x="194" y="737" on="1"/>
        <pt x="209" y="626" on="0"/>
        <pt x="251" y="466" on="0"/>
        <pt x="285" y="392" on="1"/>
        <pt x="308" y="463" on="0"/>
        <pt x="346" y="627" on="0"/>
        <pt x="363" y="729" on="1"/>
        <pt x="423" y="721" on="0"/>
        <pt x="518" y="688" on="0"/>
      </contour>
    </TTGlyph>
    <TTGlyph name="Yacute" xMin="-5" yMin="-103" xMax="559" yMax="934">
      <component glyphName="Y" x="0" y="0" flags="0x204"/>
      <component glyphName="acute" x="178" y="181" flags="0x4"/>
    </TTGlyph>
    <TTGlyph name="Ydieresis" xMin="-5" yMin="-103" xMax="559" yMax="936">
      <component glyphName="Y" x="0" y="0" flags="0x204"/>
      <component glyphName="dieresis" x="182" y="180" flags="0x4"/>
    </TTGlyph>
    <TTGlyph name="Z" xMin="10" yMin="-36" xMax="580" yMax="744">
      <contour>
        <pt x="553" y="154" on="1"/>
        <pt x="553" y="97" on="0"/>
        <pt x="538" y="1" on="0"/>
        <pt x="523" y="-36" on="1"/>
        <pt x="411" y="-35" on="0"/>
        <pt x="119" y="-11" on="0"/>
        <pt x="10" y="7" on="1"/>
        <pt x="10" y="55" on="0"/>
        <pt x="19" y="137" on="0"/>
        <pt x="28" y="164" on="1"/>
        <pt x="126" y="261" on="0"/>
        <pt x="273" y="441" on="0"/>
        <pt x="339" y="544" on="1"/>
        <pt x="285" y="545" on="0"/>
        <pt x="160" y="556" on="0"/>
        <pt x="48" y="570" on="1"/>
        <pt x="48" y="626" on="0"/>
        <pt x="66" y="706" on="0"/>
        <pt x="87" y="744" on="1"/>
        <pt x="277" y="709" on="0"/>
        <pt x="495" y="672" on="0"/>
        <pt x="580" y="660" on="1"/>
        <pt x="579" y="652" on="0"/>
        <pt x="573" y="601" on="0"/>
        <pt x="571" y="586" on="1"/>
        <pt x="567" y="563" on="0"/>
        <pt x="558" y="529" on="0"/>
        <pt x="552" y="516" on="1"/>
        <pt x="496" y="438" on="0"/>
        <pt x="332" y="254" on="0"/>
        <pt x="207" y="129" on="1"/>
        <pt x="287" y="132" on="0"/>
        <pt x="445" y="143" on="0"/>
      </contour>
    </TTGlyph>
    <TTGlyph name="Zacute" xMin="10" yMin="-36" xMax="580" yMax="933">
      <component glyphName="Z" x="0" y="0" flags="0x204"/>
      <component glyphName="acute" x="250" y="180" flags="0x4"/>
    </TTGlyph>
    <TTGlyph name="Zcaron" xMin="10" yMin="-36" xMax="580" yMax="930">
      <component glyphName="Z" x="0" y="0" flags="0x204"/>
      <component glyphName="caron" x="225" y="180" flags="0x4"/>
    </TTGlyph>
    <TTGlyph name="Zdotaccent" xMin="10" yMin="-36" xMax="580" yMax="936">
      <component glyphName="Z" x="0" y="0" flags="0x204"/>
      <component glyphName="dotaccent" x="245" y="180" flags="0x4"/>
    </TTGlyph>
    <TTGlyph name="a" xMin="24" yMin="-37" xMax="516" yMax="563">
      <contour>
        <pt x="516" y="358" on="1"/>
        <pt x="516" y="295" on="0"/>
        <pt x="482" y="78" on="0"/>
        <pt x="455" y="-37" on="1"/>
        <pt x="420" y="-37" on="0"/>
        <pt x="340" y="-28" on="0"/>
        <pt x="302" y="-20" on="1"/>
        <pt x="304" y="-3" on="0"/>
        <pt x="306" y="15" on="0"/>
        <pt x="307" y="22" on="1"/>
        <pt x="286" y="13" on="0"/>
        <pt x="236" y="3" on="0"/>
        <pt x="207" y="3" on="1"/>
        <pt x="124" y="3" on="0"/>
        <pt x="24" y="86" on="0"/>
        <pt x="24" y="156" on="1"/>
        <pt x="24" y="227" on="0"/>
        <pt x="139" y="298" on="0"/>
        <pt x="255" y="298" on="1"/>
        <pt x="293" y="298" on="0"/>
        <pt x="319" y="298" on="0"/>
        <pt x="327" y="297" on="1"/>
        <pt x="326" y="391" on="0"/>
        <pt x="304" y="459" on="0"/>
        <pt x="279" y="459" on="1"/>
        <pt x="255" y="459" on="0"/>
        <pt x="220" y="394" on="0"/>
        <pt x="219" y="344" on="1"/>
        <pt x="155" y="344" on="0"/>
        <pt x="70" y="392" on="0"/>
        <pt x="54" y="437" on="1"/>
        <pt x="73" y="489" on="0"/>
        <pt x="207" y="563" on="0"/>
        <pt x="295" y="563" on="1"/>
        <pt x="404" y="563" on="0"/>
        <pt x="516" y="459" on="0"/>
      </contour>
      <contour>
        <pt x="223" y="142" on="1"/>
        <pt x="223" y="119" on="0"/>
        <pt x="247" y="94" on="0"/>
        <pt x="270" y="94" on="1"/>
        <pt x="284" y="94" on="0"/>
        <pt x="306" y="100" on="0"/>
        <pt x="317" y="106" on="1"/>
        <pt x="321" y="141" on="0"/>
        <pt x="324" y="192" on="0"/>
        <pt x="325" y="213" on="1"/>
        <pt x="273" y="210" on="0"/>
        <pt x="223" y="176" on="0"/>
      </contour>
    </TTGlyph>
    <TTGlyph name="aacute" xMin="24" yMin="-37" xMax="516" yMax="774">
      <component glyphName="a" x="0" y="0" flags="0x204"/>
      <component glyphName="acute" x="200" y="21" flags="0x4"/>
    </TTGlyph>
    <TTGlyph name="abreve" xMin="24" yMin="-37" xMax="516" yMax="742">
      <component glyphName="a" x="0" y="0" flags="0x204"/>
      <component glyphName="breve" x="177" y="0" flags="0x4"/>
    </TTGlyph>
    <TTGlyph name="acircumflex" xMin="24" yMin="-37" xMax="516" yMax="768">
      <component glyphName="a" x="0" y="0" flags="0x204"/>
      <component glyphName="circumflex" x="196" y="19" flags="0x4"/>
    </TTGlyph>
    <TTGlyph name="acute" xMin="37" yMin="571" xMax="223" yMax="753">
      <contour>
        <pt x="223" y="733" on="1"/>
        <pt x="217" y="693" on="0"/>
        <pt x="181" y="615" on="0"/>
        <pt x="150" y="571" on="1"/>
        <pt x="118" y="571" on="0"/>
        <pt x="63" y="578" on="0"/>
        <pt x="37" y="585" on="1"/>
        <pt x="50" y="624" on="0"/>
        <pt x="66" y="708" on="0"/>
        <pt x="68" y="747" on="1"/>
        <pt x="106" y="753" on="0"/>
        <pt x="191" y="746" on="0"/>
      </contour>
    </TTGlyph>
    <TTGlyph name="adieresis" xMin="24" yMin="-37" xMax="557" yMax="756">
      <component glyphName="a" x="0" y="0" flags="0x204"/>
      <component glyphName="dieresis" x="187" y="0" flags="0x4"/>
    </TTGlyph>
    <TTGlyph name="ae" xMin="24" yMin="-56" xMax="790" yMax="531">
      <contour>
        <pt x="525" y="311" on="1"/>
        <pt x="537" y="308" on="0"/>
        <pt x="560" y="305" on="0"/>
        <pt x="568" y="305" on="1"/>
        <pt x="576" y="305" on="0"/>
        <pt x="597" y="306" on="0"/>
        <pt x="601" y="307" on="1"/>
        <pt x="607" y="331" on="0"/>
        <pt x="614" y="373" on="0"/>
        <pt x="614" y="390" on="1"/>
        <pt x="614" y="411" on="0"/>
        <pt x="603" y="431" on="0"/>
        <pt x="592" y="431" on="1"/>
        <pt x="572" y="431" on="0"/>
        <pt x="536" y="366" on="0"/>
      </contour>
      <contour>
        <pt x="646" y="157" on="1"/>
        <pt x="684" y="150" on="0"/>
        <pt x="763" y="109" on="0"/>
        <pt x="788" y="83" on="1"/>
        <pt x="780" y="57" on="0"/>
        <pt x="722" y="-3" on="0"/>
        <pt x="682" y="-23" on="1"/>
        <pt x="650" y="-39" on="0"/>
        <pt x="575" y="-56" on="0"/>
        <pt x="534" y="-56" on="1"/>
        <pt x="484" y="-56" on="0"/>
        <pt x="400" y="-14" on="0"/>
        <pt x="371" y="24" on="1"/>
        <pt x="334" y="-5" on="0"/>
        <pt x="255" y="-32" on="0"/>
        <pt x="207" y="-32" on="1"/>
        <pt x="124" y="-32" on="0"/>
        <pt x="24" y="51" on="0"/>
        <pt x="24" y="121" on="1"/>
        <pt x="24" y="192" on="0"/>
        <pt x="139" y="263" on="0"/>
        <pt x="255" y="263" on="1"/>
        <pt x="293" y="263" on="0"/>
        <pt x="319" y="263" on="0"/>
        <pt x="327" y="262" on="1"/>
        <pt x="327" y="279" on="0"/>
        <pt x="327" y="295" on="0"/>
        <pt x="326" y="301" on="1"/>
        <pt x="324" y="367" on="0"/>
        <pt x="302" y="424" on="0"/>
        <pt x="279" y="424" on="1"/>
        <pt x="255" y="424" on="0"/>
        <pt x="220" y="359" on="0"/>
        <pt x="219" y="309" on="1"/>
        <pt x="155" y="309" on="0"/>
        <pt x="70" y="357" on="0"/>
        <pt x="54" y="402" on="1"/>
        <pt x="73" y="454" on="0"/>
        <pt x="210" y="528" on="0"/>
        <pt x="295" y="528" on="1"/>
        <pt x="343" y="528" on="0"/>
        <pt x="416" y="494" on="0"/>
        <pt x="441" y="461" on="1"/>
        <pt x="479" y="495" on="0"/>
        <pt x="569" y="531" on="0"/>
        <pt x="616" y="531" on="1"/>
        <pt x="692" y="531" on="0"/>
        <pt x="790" y="443" on="0"/>
        <pt x="790" y="375" on="1"/>
        <pt x="790" y="343" on="0"/>
        <pt x="777" y="266" on="0"/>
        <pt x="767" y="238" on="1"/>
        <pt x="736" y="223" on="0"/>
        <pt x="645" y="208" on="0"/>
        <pt x="582" y="208" on="1"/>
        <pt x="564" y="208" on="0"/>
        <pt x="529" y="212" on="0"/>
        <pt x="512" y="215" on="1"/>
        <pt x="511" y="209" on="0"/>
        <pt x="511" y="194" on="0"/>
        <pt x="511" y="179" on="1"/>
        <pt x="511" y="119" on="0"/>
        <pt x="542" y="55" on="0"/>
        <pt x="571" y="55" on="1"/>
        <pt x="590" y="55" on="0"/>
        <pt x="634" y="117" on="0"/>
      </contour>
      <contour>
        <pt x="223" y="107" on="1"/>
        <pt x="223" y="84" on="0"/>
        <pt x="247" y="59" on="0"/>
        <pt x="270" y="59" on="1"/>
        <pt x="282" y="59" on="0"/>
        <pt x="319" y="71" on="0"/>
        <pt x="338" y="81" on="1"/>
        <pt x="329" y="102" on="0"/>
        <pt x="320" y="151" on="0"/>
        <pt x="320" y="176" on="1"/>
        <pt x="320" y="178" on="1"/>
        <pt x="270" y="174" on="0"/>
        <pt x="223" y="140" on="0"/>
      </contour>
    </TTGlyph>
    <TTGlyph name="agrave" xMin="24" yMin="-37" xMax="516" yMax="772">
      <component glyphName="a" x="0" y="0" flags="0x204"/>
      <component glyphName="grave" x="153" y="18" flags="0x4"/>
    </TTGlyph>
    <TTGlyph name="amacron" xMin="24" yMin="-37" xMax="516" yMax="720">
      <component glyphName="a" x="0" y="0" flags="0x204"/>
      <component glyphName="macron" x="172" y="0" flags="0x4"/>
    </TTGlyph>
    <TTGlyph name="ampersand" xMin="40" yMin="-87" xMax="847" yMax="723">
      <contour>
        <pt x="847" y="60" on="1"/>
        <pt x="831" y="13" on="0"/>
        <pt x="777" y="-61" on="0"/>
        <pt x="740" y="-87" on="1"/>
        <pt x="704" y="-74" on="0"/>
        <pt x="632" y="-44" on="0"/>
        <pt x="595" y="-25" on="1"/>
        <pt x="549" y="-50" on="0"/>
        <pt x="437" y="-74" on="0"/>
        <pt x="371" y="-74" on="1"/>
        <pt x="223" y="-74" on="0"/>
        <pt x="40" y="67" on="0"/>
        <pt x="40" y="182" on="1"/>
        <pt x="40" y="260" on="0"/>
        <pt x="141" y="377" on="0"/>
        <pt x="228" y="400" on="1"/>
        <pt x="225" y="420" on="0"/>
        <pt x="222" y="459" on="0"/>
        <pt x="222" y="479" on="1"/>
        <pt x="222" y="590" on="0"/>
        <pt x="352" y="723" on="0"/>
        <pt x="466" y="723" on="1"/>
        <pt x="548" y="723" on="0"/>
        <pt x="647" y="647" on="0"/>
        <pt x="647" y="586" on="1"/>
        <pt x="647" y="512" on="0"/>
        <pt x="529" y="412" on="0"/>
        <pt x="423" y="394" on="1"/>
        <pt x="444" y="334" on="0"/>
        <pt x="528" y="231" on="0"/>
        <pt x="591" y="186" on="1"/>
        <pt x="600" y="207" on="0"/>
        <pt x="609" y="254" on="0"/>
        <pt x="609" y="279" on="1"/>
        <pt x="609" y="303" on="0"/>
        <pt x="603" y="351" on="0"/>
        <pt x="595" y="383" on="1"/>
        <pt x="645" y="398" on="0"/>
        <pt x="748" y="387" on="0"/>
        <pt x="791" y="362" on="1"/>
        <pt x="790" y="334" on="0"/>
        <pt x="784" y="282" on="0"/>
        <pt x="779" y="256" on="1"/>
        <pt x="771" y="214" on="0"/>
        <pt x="746" y="140" on="0"/>
        <pt x="728" y="108" on="1"/>
        <pt x="755" y="96" on="0"/>
        <pt x="814" y="72" on="0"/>
      </contour>
      <contour>
        <pt x="441" y="626" on="1"/>
        <pt x="421" y="626" on="0"/>
        <pt x="401" y="578" on="0"/>
        <pt x="401" y="528" on="1"/>
        <pt x="401" y="513" on="0"/>
        <pt x="403" y="480" on="0"/>
        <pt x="406" y="461" on="1"/>
        <pt x="438" y="478" on="0"/>
        <pt x="473" y="536" on="0"/>
        <pt x="473" y="572" on="1"/>
        <pt x="473" y="598" on="0"/>
        <pt x="456" y="626" on="0"/>
      </contour>
      <contour>
        <pt x="239" y="238" on="1"/>
        <pt x="239" y="160" on="0"/>
        <pt x="341" y="61" on="0"/>
        <pt x="421" y="61" on="1"/>
        <pt x="429" y="61" on="0"/>
        <pt x="443" y="63" on="0"/>
        <pt x="450" y="64" on="1"/>
        <pt x="380" y="116" on="0"/>
        <pt x="281" y="238" on="0"/>
        <pt x="254" y="307" on="1"/>
        <pt x="246" y="292" on="0"/>
        <pt x="239" y="259" on="0"/>
      </contour>
    </TTGlyph>
    <TTGlyph name="aogonek" xMin="24" yMin="-238" xMax="516" yMax="563">
      <contour>
        <pt x="223" y="142" on="1"/>
        <pt x="223" y="119" on="0"/>
        <pt x="247" y="94" on="0"/>
        <pt x="270" y="94" on="1"/>
        <pt x="284" y="94" on="0"/>
        <pt x="306" y="100" on="0"/>
        <pt x="317" y="106" on="1"/>
        <pt x="321" y="141" on="0"/>
        <pt x="324" y="192" on="0"/>
        <pt x="325" y="213" on="1"/>
        <pt x="273" y="210" on="0"/>
        <pt x="223" y="176" on="0"/>
      </contour>
      <contour>
        <pt x="378" y="-120" on="1"/>
        <pt x="388" y="-128" on="0"/>
        <pt x="407" y="-156" on="0"/>
        <pt x="416" y="-177" on="1"/>
        <pt x="393" y="-207" on="0"/>
        <pt x="330" y="-238" on="0"/>
        <pt x="292" y="-238" on="1"/>
        <pt x="244" y="-238" on="0"/>
        <pt x="186" y="-195" on="0"/>
        <pt x="186" y="-159" on="1"/>
        <pt x="186" y="-117" on="0"/>
        <pt x="241" y="-49" on="0"/>
        <pt x="303" y="-14" on="1"/>
        <pt x="303" y="-11" on="0"/>
        <pt x="304" y="-3" on="0"/>
        <pt x="305" y="4" on="1"/>
        <pt x="306" y="11" on="0"/>
        <pt x="307" y="19" on="0"/>
        <pt x="307" y="22" on="1"/>
        <pt x="286" y="13" on="0"/>
        <pt x="236" y="3" on="0"/>
        <pt x="207" y="3" on="1"/>
        <pt x="124" y="3" on="0"/>
        <pt x="24" y="86" on="0"/>
        <pt x="24" y="156" on="1"/>
        <pt x="24" y="227" on="0"/>
        <pt x="139" y="298" on="0"/>
        <pt x="255" y="298" on="1"/>
        <pt x="293" y="298" on="0"/>
        <pt x="319" y="298" on="0"/>
        <pt x="327" y="297" on="1"/>
        <pt x="326" y="391" on="0"/>
        <pt x="304" y="459" on="0"/>
        <pt x="279" y="459" on="1"/>
        <pt x="255" y="459" on="0"/>
        <pt x="220" y="394" on="0"/>
        <pt x="219" y="344" on="1"/>
        <pt x="155" y="344" on="0"/>
        <pt x="70" y="392" on="0"/>
        <pt x="54" y="437" on="1"/>
        <pt x="73" y="489" on="0"/>
        <pt x="207" y="563" on="0"/>
        <pt x="295" y="563" on="1"/>
        <pt x="404" y="563" on="0"/>
        <pt x="516" y="459" on="0"/>
        <pt x="516" y="358" on="1"/>
        <pt x="516" y="295" on="0"/>
        <pt x="482" y="78" on="0"/>
        <pt x="455" y="-37" on="1"/>
        <pt x="432" y="-37" on="0"/>
        <pt x="379" y="-33" on="0"/>
        <pt x="353" y="-29" on="1"/>
        <pt x="327" y="-47" on="0"/>
        <pt x="295" y="-101" on="0"/>
        <pt x="295" y="-126" on="1"/>
        <pt x="295" y="-141" on="0"/>
        <pt x="309" y="-159" on="0"/>
        <pt x="322" y="-159" on="1"/>
        <pt x="337" y="-159" on="0"/>
        <pt x="365" y="-140" on="0"/>
      </contour>
    </TTGlyph>
    <TTGlyph name="approxequal" xMin="25" yMin="132" xMax="477" yMax="531">
      <component glyphName="asciitilde" x="1" y="-109" flags="0x4"/>
      <component glyphName="asciitilde" x="0" y="106" flags="0x4"/>
    </TTGlyph>
    <TTGlyph name="aring" xMin="24" yMin="-37" xMax="516" yMax="786">
      <component glyphName="a" x="0" y="0" flags="0x204"/>
      <component glyphName="ring" x="177" y="16" flags="0x4"/>
    </TTGlyph>
    <TTGlyph name="asa_ba" xMin="-11" yMin="-70" xMax="536" yMax="670">
      <contour>
        <pt x="456" y="303" on="1"/>
        <pt x="456" y="198" on="0"/>
        <pt x="470" y="47" on="0"/>
        <pt x="484" y="-4" on="1"/>
        <pt x="455" y="-20" on="0"/>
        <pt x="365" y="-37" on="0"/>
        <pt x="317" y="-37" on="1"/>
        <pt x="275" y="34" on="0"/>
        <pt x="159" y="119" on="0"/>
        <pt x="84" y="135" on="1"/>
        <pt x="53" y="183" on="0"/>
        <pt x="22" y="268" on="0"/>
        <pt x="19" y="315" on="1"/>
        <pt x="80" y="378" on="0"/>
        <pt x="243" y="476" on="0"/>
        <pt x="349" y="514" on="1"/>
        <pt x="350" y="517" on="0"/>
        <pt x="352" y="526" on="0"/>
        <pt x="352" y="528" on="1"/>
        <pt x="333" y="529" on="0"/>
        <pt x="295" y="531" on="0"/>
        <pt x="278" y="531" on="1"/>
        <pt x="214" y="531" on="0"/>
        <pt x="73" y="517" on="0"/>
        <pt x="0" y="504" on="1"/>
        <pt x="-5" y="520" on="0"/>
        <pt x="-11" y="560" on="0"/>
        <pt x="-11" y="579" on="1"/>
        <pt x="-11" y="598" on="0"/>
        <pt x="-6" y="628" on="0"/>
        <pt x="0" y="639" on="1"/>
        <pt x="66" y="654" on="0"/>
        <pt x="213" y="670" on="0"/>
        <pt x="282" y="670" on="1"/>
        <pt x="341" y="670" on="0"/>
        <pt x="482" y="652" on="0"/>
        <pt x="525" y="639" on="1"/>
        <pt x="530" y="628" on="0"/>
        <pt x="536" y="595" on="0"/>
        <pt x="536" y="577" on="1"/>
        <pt x="536" y="558" on="0"/>
        <pt x="530" y="518" on="0"/>
        <pt x="525" y="504" on="1"/>
        <pt x="510" y="508" on="0"/>
        <pt x="481" y="513" on="0"/>
        <pt x="466" y="515" on="1"/>
        <pt x="461" y="456" on="0"/>
        <pt x="456" y="351" on="0"/>
      </contour>
      <contour>
        <pt x="310" y="100" on="1"/>
        <pt x="310" y="107" on="1"/>
        <pt x="310" y="174" on="0"/>
        <pt x="314" y="273" on="0"/>
        <pt x="319" y="316" on="1"/>
        <pt x="282" y="299" on="0"/>
        <pt x="210" y="255" on="0"/>
        <pt x="179" y="229" on="1"/>
        <pt x="220" y="202" on="0"/>
        <pt x="287" y="136" on="0"/>
      </contour>
      <contour>
        <pt x="202" y="-70" on="1"/>
        <pt x="172" y="-38" on="0"/>
        <pt x="72" y="13" on="0"/>
        <pt x="27" y="20" on="1"/>
        <pt x="36" y="47" on="0"/>
        <pt x="62" y="91" on="0"/>
        <pt x="79" y="108" on="1"/>
        <pt x="127" y="94" on="0"/>
        <pt x="233" y="20" on="0"/>
        <pt x="250" y="-14" on="1"/>
        <pt x="244" y="-31" on="0"/>
        <pt x="218" y="-61" on="0"/>
      </contour>
    </TTGlyph>
    <TTGlyph name="asa_ba.half" xMin="-11" yMin="36" xMax="536" yMax="670">
      <contour>
        <pt x="456" y="373" on="1"/>
        <pt x="456" y="301" on="0"/>
        <pt x="470" y="198" on="0"/>
        <pt x="484" y="163" on="1"/>
        <pt x="455" y="152" on="0"/>
        <pt x="365" y="140" on="0"/>
        <pt x="317" y="140" on="1"/>
        <pt x="275" y="189" on="0"/>
        <pt x="159" y="247" on="0"/>
        <pt x="84" y="258" on="1"/>
        <pt x="52" y="292" on="0"/>
        <pt x="19" y="357" on="0"/>
        <pt x="16" y="394" on="1"/>
        <pt x="75" y="436" on="0"/>
        <pt x="234" y="502" on="0"/>
        <pt x="339" y="529" on="1"/>
        <pt x="308" y="530" on="0"/>
        <pt x="287" y="531" on="0"/>
        <pt x="278" y="531" on="1"/>
        <pt x="214" y="531" on="0"/>
        <pt x="73" y="517" on="0"/>
        <pt x="0" y="504" on="1"/>
        <pt x="-5" y="520" on="0"/>
        <pt x="-11" y="560" on="0"/>
        <pt x="-11" y="579" on="1"/>
        <pt x="-11" y="598" on="0"/>
        <pt x="-6" y="628" on="0"/>
        <pt x="0" y="639" on="1"/>
        <pt x="66" y="654" on="0"/>
        <pt x="213" y="670" on="0"/>
        <pt x="282" y="670" on="1"/>
        <pt x="341" y="670" on="0"/>
        <pt x="482" y="652" on="0"/>
        <pt x="525" y="639" on="1"/>
        <pt x="530" y="628" on="0"/>
        <pt x="536" y="595" on="0"/>
        <pt x="536" y="577" on="1"/>
        <pt x="536" y="558" on="0"/>
        <pt x="530" y="518" on="0"/>
        <pt x="525" y="504" on="1"/>
        <pt x="511" y="507" on="0"/>
        <pt x="480" y="513" on="0"/>
        <pt x="465" y="515" on="1"/>
        <pt x="460" y="470" on="0"/>
        <pt x="456" y="403" on="0"/>
      </contour>
      <contour>
        <pt x="197" y="333" on="1"/>
        <pt x="230" y="316" on="0"/>
        <pt x="288" y="268" on="0"/>
        <pt x="310" y="240" on="1"/>
        <pt x="310" y="279" on="0"/>
        <pt x="314" y="349" on="0"/>
        <pt x="319" y="383" on="1"/>
        <pt x="285" y="371" on="0"/>
        <pt x="223" y="346" on="0"/>
      </contour>
      <contour>
        <pt x="288" y="66" on="1"/>
        <pt x="270" y="36" on="1"/>
        <pt x="232" y="89" on="0"/>
        <pt x="121" y="154" on="0"/>
        <pt x="47" y="165" on="1"/>
        <pt x="102" y="223" on="1"/>
        <pt x="173" y="195" on="0"/>
        <pt x="271" y="112" on="0"/>
      </contour>
    </TTGlyph>
    <TTGlyph name="asa_ba_ukaar" xMin="-11" yMin="-130" xMax="717" yMax="674">
      <contour>
        <pt x="310" y="100" on="1"/>
        <pt x="310" y="107" on="1"/>
        <pt x="310" y="174" on="0"/>
        <pt x="314" y="273" on="0"/>
        <pt x="319" y="316" on="1"/>
        <pt x="282" y="299" on="0"/>
        <pt x="210" y="255" on="0"/>
        <pt x="179" y="229" on="1"/>
        <pt x="220" y="202" on="0"/>
        <pt x="287" y="136" on="0"/>
      </contour>
      <contour>
        <pt x="458" y="189" on="1"/>
        <pt x="461" y="127" on="0"/>
        <pt x="474" y="32" on="0"/>
        <pt x="484" y="-4" on="1"/>
        <pt x="455" y="-20" on="0"/>
        <pt x="365" y="-37" on="0"/>
        <pt x="317" y="-37" on="1"/>
        <pt x="275" y="34" on="0"/>
        <pt x="159" y="119" on="0"/>
        <pt x="84" y="135" on="1"/>
        <pt x="53" y="183" on="0"/>
        <pt x="22" y="268" on="0"/>
        <pt x="19" y="315" on="1"/>
        <pt x="80" y="378" on="0"/>
        <pt x="243" y="476" on="0"/>
        <pt x="349" y="514" on="1"/>
        <pt x="350" y="518" on="0"/>
        <pt x="353" y="532" on="0"/>
        <pt x="354" y="535" on="1"/>
        <pt x="347" y="535" on="1"/>
        <pt x="260" y="535" on="0"/>
        <pt x="66" y="517" on="0"/>
        <pt x="0" y="504" on="1"/>
        <pt x="-5" y="518" on="0"/>
        <pt x="-11" y="558" on="0"/>
        <pt x="-11" y="577" on="1"/>
        <pt x="-11" y="596" on="0"/>
        <pt x="-5" y="630" on="0"/>
        <pt x="0" y="639" on="1"/>
        <pt x="60" y="654" on="0"/>
        <pt x="259" y="674" on="0"/>
        <pt x="351" y="674" on="1"/>
        <pt x="446" y="674" on="0"/>
        <pt x="655" y="653" on="0"/>
        <pt x="707" y="639" on="1"/>
        <pt x="711" y="629" on="0"/>
        <pt x="717" y="594" on="0"/>
        <pt x="717" y="577" on="1"/>
        <pt x="717" y="559" on="0"/>
        <pt x="711" y="517" on="0"/>
        <pt x="707" y="504" on="1"/>
        <pt x="667" y="512" on="0"/>
        <pt x="533" y="528" on="0"/>
        <pt x="461" y="532" on="1"/>
        <pt x="467" y="530" on="1"/>
        <pt x="463" y="475" on="0"/>
        <pt x="457" y="381" on="0"/>
        <pt x="456" y="337" on="1"/>
        <pt x="464" y="297" on="0"/>
        <pt x="520" y="246" on="0"/>
        <pt x="549" y="246" on="1"/>
        <pt x="571" y="246" on="0"/>
        <pt x="599" y="282" on="0"/>
        <pt x="599" y="307" on="1"/>
        <pt x="599" y="324" on="0"/>
        <pt x="588" y="340" on="0"/>
        <pt x="577" y="340" on="1"/>
        <pt x="567" y="340" on="0"/>
        <pt x="536" y="310" on="0"/>
        <pt x="523" y="289" on="1"/>
        <pt x="509" y="321" on="0"/>
        <pt x="492" y="412" on="0"/>
        <pt x="493" y="457" on="1"/>
        <pt x="503" y="469" on="0"/>
        <pt x="537" y="482" on="0"/>
        <pt x="558" y="482" on="1"/>
        <pt x="618" y="482" on="0"/>
        <pt x="692" y="372" on="0"/>
        <pt x="692" y="279" on="1"/>
        <pt x="692" y="189" on="0"/>
        <pt x="630" y="80" on="0"/>
        <pt x="579" y="80" on="1"/>
        <pt x="539" y="80" on="0"/>
        <pt x="479" y="134" on="0"/>
      </contour>
      <contour>
        <pt x="249" y="-130" on="1"/>
        <pt x="221" y="-78" on="0"/>
        <pt x="86" y="11" on="0"/>
        <pt x="27" y="20" on="1"/>
        <pt x="36" y="47" on="0"/>
        <pt x="62" y="91" on="0"/>
        <pt x="79" y="108" on="1"/>
        <pt x="137" y="91" on="0"/>
        <pt x="273" y="-21" on="0"/>
        <pt x="297" y="-74" on="1"/>
        <pt x="291" y="-91" on="0"/>
        <pt x="265" y="-121" on="0"/>
      </contour>
    </TTGlyph>
    <TTGlyph name="asa_ba_uukaar" xMin="-11" yMin="-130" xMax="717" yMax="674">
      <contour>
        <pt x="310" y="100" on="1"/>
        <pt x="310" y="107" on="1"/>
        <pt x="310" y="174" on="0"/>
        <pt x="314" y="273" on="0"/>
        <pt x="319" y="316" on="1"/>
        <pt x="282" y="299" on="0"/>
        <pt x="210" y="255" on="0"/>
        <pt x="179" y="229" on="1"/>
        <pt x="220" y="202" on="0"/>
        <pt x="287" y="136" on="0"/>
      </contour>
      <contour>
        <pt x="456" y="257" on="1"/>
        <pt x="458" y="168" on="0"/>
        <pt x="471" y="40" on="0"/>
        <pt x="484" y="-4" on="1"/>
        <pt x="455" y="-20" on="0"/>
        <pt x="365" y="-37" on="0"/>
        <pt x="317" y="-37" on="1"/>
        <pt x="275" y="34" on="0"/>
        <pt x="159" y="119" on="0"/>
        <pt x="84" y="135" on="1"/>
        <pt x="53" y="183" on="0"/>
        <pt x="22" y="268" on="0"/>
        <pt x="19" y="315" on="1"/>
        <pt x="80" y="378" on="0"/>
        <pt x="243" y="476" on="0"/>
        <pt x="349" y="514" on="1"/>
        <pt x="350" y="518" on="0"/>
        <pt x="353" y="532" on="0"/>
        <pt x="354" y="535" on="1"/>
        <pt x="347" y="535" on="1"/>
        <pt x="260" y="535" on="0"/>
        <pt x="66" y="517" on="0"/>
        <pt x="0" y="504" on="1"/>
        <pt x="-5" y="518" on="0"/>
        <pt x="-11" y="558" on="0"/>
        <pt x="-11" y="577" on="1"/>
        <pt x="-11" y="596" on="0"/>
        <pt x="-5" y="630" on="0"/>
        <pt x="0" y="639" on="1"/>
        <pt x="60" y="654" on="0"/>
        <pt x="259" y="674" on="0"/>
        <pt x="351" y="674" on="1"/>
        <pt x="446" y="674" on="0"/>
        <pt x="655" y="653" on="0"/>
        <pt x="707" y="639" on="1"/>
        <pt x="711" y="629" on="0"/>
        <pt x="717" y="594" on="0"/>
        <pt x="717" y="577" on="1"/>
        <pt x="717" y="559" on="0"/>
        <pt x="711" y="517" on="0"/>
        <pt x="707" y="504" on="1"/>
        <pt x="667" y="512" on="0"/>
        <pt x="533" y="528" on="0"/>
        <pt x="461" y="532" on="1"/>
        <pt x="467" y="530" on="1"/>
        <pt x="463" y="473" on="0"/>
        <pt x="460" y="426" on="0"/>
        <pt x="459" y="405" on="1"/>
        <pt x="465" y="407" on="0"/>
        <pt x="548" y="445" on="0"/>
        <pt x="576" y="453" on="1"/>
        <pt x="662" y="344" on="1"/>
        <pt x="661" y="338" on="0"/>
        <pt x="660" y="326" on="0"/>
        <pt x="658" y="314" on="1"/>
        <pt x="655" y="295" on="0"/>
        <pt x="653" y="276" on="0"/>
        <pt x="653" y="268" on="1"/>
        <pt x="653" y="210" on="0"/>
        <pt x="669" y="122" on="0"/>
        <pt x="687" y="80" on="1"/>
        <pt x="661" y="71" on="0"/>
        <pt x="589" y="61" on="0"/>
        <pt x="552" y="61" on="1"/>
        <pt x="544" y="94" on="0"/>
        <pt x="537" y="170" on="0"/>
        <pt x="537" y="228" on="1"/>
        <pt x="537" y="241" on="0"/>
        <pt x="539" y="272" on="0"/>
        <pt x="542" y="291" on="1"/>
        <pt x="534" y="288" on="0"/>
        <pt x="514" y="280" on="0"/>
        <pt x="494" y="272" on="1"/>
        <pt x="478" y="266" on="0"/>
        <pt x="463" y="260" on="0"/>
      </contour>
      <contour>
        <pt x="249" y="-130" on="1"/>
        <pt x="221" y="-78" on="0"/>
        <pt x="86" y="11" on="0"/>
        <pt x="27" y="20" on="1"/>
        <pt x="36" y="47" on="0"/>
        <pt x="62" y="91" on="0"/>
        <pt x="79" y="108" on="1"/>
        <pt x="137" y="91" on="0"/>
        <pt x="273" y="-21" on="0"/>
        <pt x="297" y="-74" on="1"/>
        <pt x="291" y="-91" on="0"/>
        <pt x="265" y="-121" on="0"/>
      </contour>
    </TTGlyph>
    <TTGlyph name="asa_ra" xMin="-11" yMin="-37" xMax="536" yMax="670">
      <contour>
        <pt x="458" y="303" on="1"/>
        <pt x="458" y="200" on="0"/>
        <pt x="473" y="51" on="0"/>
        <pt x="489" y="0" on="1"/>
        <pt x="456" y="-17" on="0"/>
        <pt x="364" y="-37" on="0"/>
        <pt x="319" y="-37" on="1"/>
        <pt x="277" y="34" on="0"/>
        <pt x="161" y="119" on="0"/>
        <pt x="86" y="135" on="1"/>
        <pt x="55" y="185" on="0"/>
        <pt x="24" y="275" on="0"/>
        <pt x="21" y="325" on="1"/>
        <pt x="82" y="385" on="0"/>
        <pt x="245" y="479" on="0"/>
        <pt x="350" y="514" on="1"/>
        <pt x="351" y="517" on="0"/>
        <pt x="353" y="526" on="0"/>
        <pt x="353" y="528" on="1"/>
        <pt x="334" y="529" on="0"/>
        <pt x="296" y="531" on="0"/>
        <pt x="278" y="531" on="1"/>
        <pt x="214" y="531" on="0"/>
        <pt x="73" y="517" on="0"/>
        <pt x="0" y="504" on="1"/>
        <pt x="-5" y="520" on="0"/>
        <pt x="-11" y="560" on="0"/>
        <pt x="-11" y="579" on="1"/>
        <pt x="-11" y="598" on="0"/>
        <pt x="-6" y="628" on="0"/>
        <pt x="0" y="639" on="1"/>
        <pt x="66" y="654" on="0"/>
        <pt x="213" y="670" on="0"/>
        <pt x="282" y="670" on="1"/>
        <pt x="341" y="670" on="0"/>
        <pt x="482" y="652" on="0"/>
        <pt x="525" y="639" on="1"/>
        <pt x="530" y="628" on="0"/>
        <pt x="536" y="595" on="0"/>
        <pt x="536" y="577" on="1"/>
        <pt x="536" y="558" on="0"/>
        <pt x="530" y="518" on="0"/>
        <pt x="525" y="504" on="1"/>
        <pt x="514" y="507" on="0"/>
        <pt x="470" y="514" on="0"/>
        <pt x="466" y="515" on="1"/>
        <pt x="462" y="459" on="0"/>
        <pt x="458" y="353" on="0"/>
      </contour>
      <contour>
        <pt x="250" y="303" on="1"/>
        <pt x="271" y="284" on="0"/>
        <pt x="304" y="243" on="0"/>
        <pt x="317" y="222" on="1"/>
        <pt x="319" y="269" on="0"/>
        <pt x="323" y="319" on="0"/>
        <pt x="325" y="340" on="1"/>
        <pt x="309" y="334" on="0"/>
        <pt x="273" y="316" on="0"/>
      </contour>
      <contour>
        <pt x="154" y="235" on="1"/>
        <pt x="207" y="202" on="0"/>
        <pt x="290" y="120" on="0"/>
        <pt x="315" y="75" on="1"/>
        <pt x="315" y="137" on="1"/>
        <pt x="290" y="178" on="0"/>
        <pt x="225" y="240" on="0"/>
        <pt x="185" y="260" on="1"/>
        <pt x="176" y="254" on="0"/>
        <pt x="161" y="242" on="0"/>
      </contour>
    </TTGlyph>
    <TTGlyph name="asa_ra.half" xMin="-11" yMin="140" xMax="536" yMax="670">
      <contour>
        <pt x="456" y="373" on="1"/>
        <pt x="456" y="301" on="0"/>
        <pt x="470" y="198" on="0"/>
        <pt x="484" y="163" on="1"/>
        <pt x="455" y="152" on="0"/>
        <pt x="365" y="140" on="0"/>
        <pt x="317" y="140" on="1"/>
        <pt x="275" y="189" on="0"/>
        <pt x="159" y="247" on="0"/>
        <pt x="84" y="258" on="1"/>
        <pt x="52" y="292" on="0"/>
        <pt x="19" y="357" on="0"/>
        <pt x="16" y="394" on="1"/>
        <pt x="75" y="436" on="0"/>
        <pt x="234" y="502" on="0"/>
        <pt x="339" y="529" on="1"/>
        <pt x="308" y="530" on="0"/>
        <pt x="287" y="531" on="0"/>
        <pt x="278" y="531" on="1"/>
        <pt x="214" y="531" on="0"/>
        <pt x="73" y="517" on="0"/>
        <pt x="0" y="504" on="1"/>
        <pt x="-5" y="520" on="0"/>
        <pt x="-11" y="560" on="0"/>
        <pt x="-11" y="579" on="1"/>
        <pt x="-11" y="598" on="0"/>
        <pt x="-6" y="628" on="0"/>
        <pt x="0" y="639" on="1"/>
        <pt x="66" y="654" on="0"/>
        <pt x="213" y="670" on="0"/>
        <pt x="282" y="670" on="1"/>
        <pt x="341" y="670" on="0"/>
        <pt x="482" y="652" on="0"/>
        <pt x="525" y="639" on="1"/>
        <pt x="530" y="628" on="0"/>
        <pt x="536" y="595" on="0"/>
        <pt x="536" y="577" on="1"/>
        <pt x="536" y="558" on="0"/>
        <pt x="530" y="518" on="0"/>
        <pt x="525" y="504" on="1"/>
        <pt x="511" y="507" on="0"/>
        <pt x="480" y="513" on="0"/>
        <pt x="465" y="515" on="1"/>
        <pt x="460" y="470" on="0"/>
        <pt x="456" y="403" on="0"/>
      </contour>
      <contour>
        <pt x="282" y="370" on="1"/>
        <pt x="288" y="365" on="0"/>
        <pt x="302" y="352" on="0"/>
        <pt x="314" y="338" on="1"/>
        <pt x="315" y="346" on="0"/>
        <pt x="317" y="364" on="0"/>
        <pt x="319" y="383" on="1"/>
        <pt x="316" y="382" on="0"/>
        <pt x="308" y="379" on="0"/>
        <pt x="301" y="377" on="1"/>
        <pt x="293" y="374" on="0"/>
        <pt x="285" y="371" on="0"/>
      </contour>
      <contour>
        <pt x="197" y="333" on="1"/>
        <pt x="230" y="316" on="0"/>
        <pt x="288" y="268" on="0"/>
        <pt x="310" y="240" on="1"/>
        <pt x="310" y="276" on="1"/>
        <pt x="293" y="297" on="0"/>
        <pt x="250" y="331" on="0"/>
        <pt x="224" y="346" on="1"/>
        <pt x="219" y="343" on="0"/>
        <pt x="208" y="338" on="0"/>
      </contour>
    </TTGlyph>
    <TTGlyph name="asa_ra_ukaar" xMin="-11" yMin="-37" xMax="717" yMax="674">
      <contour>
        <pt x="265" y="288" on="1"/>
        <pt x="278" y="275" on="0"/>
        <pt x="302" y="245" on="0"/>
        <pt x="313" y="229" on="1"/>
        <pt x="314" y="252" on="0"/>
        <pt x="317" y="295" on="0"/>
        <pt x="319" y="316" on="1"/>
        <pt x="304" y="309" on="0"/>
        <pt x="277" y="295" on="0"/>
      </contour>
      <contour>
        <pt x="179" y="229" on="1"/>
        <pt x="220" y="202" on="0"/>
        <pt x="287" y="136" on="0"/>
        <pt x="310" y="100" on="1"/>
        <pt x="310" y="145" on="1"/>
        <pt x="289" y="178" on="0"/>
        <pt x="237" y="230" on="0"/>
        <pt x="205" y="249" on="1"/>
        <pt x="199" y="245" on="0"/>
        <pt x="185" y="234" on="0"/>
      </contour>
      <contour>
        <pt x="458" y="189" on="1"/>
        <pt x="461" y="127" on="0"/>
        <pt x="474" y="32" on="0"/>
        <pt x="484" y="-4" on="1"/>
        <pt x="455" y="-20" on="0"/>
        <pt x="365" y="-37" on="0"/>
        <pt x="317" y="-37" on="1"/>
        <pt x="275" y="34" on="0"/>
        <pt x="159" y="119" on="0"/>
        <pt x="84" y="135" on="1"/>
        <pt x="53" y="183" on="0"/>
        <pt x="22" y="268" on="0"/>
        <pt x="19" y="315" on="1"/>
        <pt x="80" y="378" on="0"/>
        <pt x="243" y="476" on="0"/>
        <pt x="349" y="514" on="1"/>
        <pt x="350" y="518" on="0"/>
        <pt x="353" y="532" on="0"/>
        <pt x="354" y="535" on="1"/>
        <pt x="347" y="535" on="1"/>
        <pt x="260" y="535" on="0"/>
        <pt x="66" y="517" on="0"/>
        <pt x="0" y="504" on="1"/>
        <pt x="-5" y="518" on="0"/>
        <pt x="-11" y="558" on="0"/>
        <pt x="-11" y="577" on="1"/>
        <pt x="-11" y="596" on="0"/>
        <pt x="-5" y="630" on="0"/>
        <pt x="0" y="639" on="1"/>
        <pt x="60" y="654" on="0"/>
        <pt x="259" y="674" on="0"/>
        <pt x="351" y="674" on="1"/>
        <pt x="446" y="674" on="0"/>
        <pt x="655" y="653" on="0"/>
        <pt x="707" y="639" on="1"/>
        <pt x="711" y="629" on="0"/>
        <pt x="717" y="594" on="0"/>
        <pt x="717" y="577" on="1"/>
        <pt x="717" y="559" on="0"/>
        <pt x="711" y="517" on="0"/>
        <pt x="707" y="504" on="1"/>
        <pt x="667" y="512" on="0"/>
        <pt x="533" y="528" on="0"/>
        <pt x="461" y="532" on="1"/>
        <pt x="467" y="530" on="1"/>
        <pt x="463" y="475" on="0"/>
        <pt x="457" y="381" on="0"/>
        <pt x="456" y="337" on="1"/>
        <pt x="464" y="297" on="0"/>
        <pt x="520" y="246" on="0"/>
        <pt x="549" y="246" on="1"/>
        <pt x="571" y="246" on="0"/>
        <pt x="599" y="282" on="0"/>
        <pt x="599" y="307" on="1"/>
        <pt x="599" y="324" on="0"/>
        <pt x="588" y="340" on="0"/>
        <pt x="577" y="340" on="1"/>
        <pt x="567" y="340" on="0"/>
        <pt x="536" y="310" on="0"/>
        <pt x="523" y="289" on="1"/>
        <pt x="509" y="321" on="0"/>
        <pt x="492" y="412" on="0"/>
        <pt x="493" y="457" on="1"/>
        <pt x="503" y="469" on="0"/>
        <pt x="537" y="482" on="0"/>
        <pt x="558" y="482" on="1"/>
        <pt x="618" y="482" on="0"/>
        <pt x="692" y="372" on="0"/>
        <pt x="692" y="279" on="1"/>
        <pt x="692" y="189" on="0"/>
        <pt x="630" y="80" on="0"/>
        <pt x="579" y="80" on="1"/>
        <pt x="539" y="80" on="0"/>
        <pt x="479" y="134" on="0"/>
      </contour>
    </TTGlyph>
    <TTGlyph name="asa_ra_uukaar" xMin="-11" yMin="-37" xMax="717" yMax="674">
      <contour>
        <pt x="265" y="288" on="1"/>
        <pt x="278" y="275" on="0"/>
        <pt x="302" y="245" on="0"/>
        <pt x="313" y="229" on="1"/>
        <pt x="314" y="252" on="0"/>
        <pt x="317" y="295" on="0"/>
        <pt x="319" y="316" on="1"/>
        <pt x="304" y="309" on="0"/>
        <pt x="277" y="295" on="0"/>
      </contour>
      <contour>
        <pt x="456" y="257" on="1"/>
        <pt x="458" y="168" on="0"/>
        <pt x="471" y="40" on="0"/>
        <pt x="484" y="-4" on="1"/>
        <pt x="455" y="-20" on="0"/>
        <pt x="365" y="-37" on="0"/>
        <pt x="317" y="-37" on="1"/>
        <pt x="275" y="34" on="0"/>
        <pt x="159" y="119" on="0"/>
        <pt x="84" y="135" on="1"/>
        <pt x="53" y="183" on="0"/>
        <pt x="22" y="268" on="0"/>
        <pt x="19" y="315" on="1"/>
        <pt x="80" y="378" on="0"/>
        <pt x="243" y="476" on="0"/>
        <pt x="349" y="514" on="1"/>
        <pt x="350" y="518" on="0"/>
        <pt x="353" y="532" on="0"/>
        <pt x="354" y="535" on="1"/>
        <pt x="347" y="535" on="1"/>
        <pt x="260" y="535" on="0"/>
        <pt x="66" y="517" on="0"/>
        <pt x="0" y="504" on="1"/>
        <pt x="-5" y="518" on="0"/>
        <pt x="-11" y="558" on="0"/>
        <pt x="-11" y="577" on="1"/>
        <pt x="-11" y="596" on="0"/>
        <pt x="-5" y="630" on="0"/>
        <pt x="0" y="639" on="1"/>
        <pt x="60" y="654" on="0"/>
        <pt x="259" y="674" on="0"/>
        <pt x="351" y="674" on="1"/>
        <pt x="446" y="674" on="0"/>
        <pt x="655" y="653" on="0"/>
        <pt x="707" y="639" on="1"/>
        <pt x="711" y="629" on="0"/>
        <pt x="717" y="594" on="0"/>
        <pt x="717" y="577" on="1"/>
        <pt x="717" y="559" on="0"/>
        <pt x="711" y="517" on="0"/>
        <pt x="707" y="504" on="1"/>
        <pt x="667" y="512" on="0"/>
        <pt x="533" y="528" on="0"/>
        <pt x="461" y="532" on="1"/>
        <pt x="467" y="530" on="1"/>
        <pt x="463" y="473" on="0"/>
        <pt x="460" y="426" on="0"/>
        <pt x="459" y="405" on="1"/>
        <pt x="465" y="407" on="0"/>
        <pt x="548" y="445" on="0"/>
        <pt x="576" y="453" on="1"/>
        <pt x="662" y="344" on="1"/>
        <pt x="661" y="338" on="0"/>
        <pt x="660" y="326" on="0"/>
        <pt x="658" y="314" on="1"/>
        <pt x="655" y="295" on="0"/>
        <pt x="653" y="276" on="0"/>
        <pt x="653" y="268" on="1"/>
        <pt x="653" y="210" on="0"/>
        <pt x="669" y="122" on="0"/>
        <pt x="687" y="80" on="1"/>
        <pt x="661" y="71" on="0"/>
        <pt x="589" y="61" on="0"/>
        <pt x="552" y="61" on="1"/>
        <pt x="544" y="94" on="0"/>
        <pt x="537" y="170" on="0"/>
        <pt x="537" y="228" on="1"/>
        <pt x="537" y="241" on="0"/>
        <pt x="539" y="272" on="0"/>
        <pt x="542" y="291" on="1"/>
        <pt x="534" y="288" on="0"/>
        <pt x="514" y="280" on="0"/>
        <pt x="494" y="272" on="1"/>
        <pt x="478" y="266" on="0"/>
        <pt x="463" y="260" on="0"/>
      </contour>
      <contour>
        <pt x="179" y="229" on="1"/>
        <pt x="220" y="202" on="0"/>
        <pt x="287" y="136" on="0"/>
        <pt x="310" y="100" on="1"/>
        <pt x="310" y="145" on="1"/>
        <pt x="289" y="178" on="0"/>
        <pt x="237" y="230" on="0"/>
        <pt x="205" y="249" on="1"/>
        <pt x="199" y="245" on="0"/>
        <pt x="185" y="234" on="0"/>
      </contour>
    </TTGlyph>
    <TTGlyph name="asciicircum" xMin="-4" yMin="122" xMax="504" yMax="565">
      <contour>
        <pt x="504" y="159" on="1"/>
        <pt x="478" y="146" on="0"/>
        <pt x="430" y="129" on="0"/>
        <pt x="394" y="122" on="1"/>
        <pt x="362" y="198" on="0"/>
        <pt x="289" y="336" on="0"/>
        <pt x="250" y="398" on="1"/>
        <pt x="211" y="336" on="0"/>
        <pt x="138" y="198" on="0"/>
        <pt x="106" y="122" on="1"/>
        <pt x="70" y="129" on="0"/>
        <pt x="22" y="146" on="0"/>
        <pt x="-4" y="159" on="1"/>
        <pt x="31" y="253" on="0"/>
        <pt x="164" y="497" on="0"/>
        <pt x="218" y="565" on="1"/>
        <pt x="282" y="565" on="1"/>
        <pt x="336" y="497" on="0"/>
        <pt x="469" y="253" on="0"/>
      </contour>
    </TTGlyph>
    <TTGlyph name="asciitilde" xMin="25" yMin="241" xMax="476" yMax="425">
      <contour>
        <pt x="241" y="391" on="1"/>
        <pt x="276" y="376" on="0"/>
        <pt x="314" y="367" on="0"/>
        <pt x="331" y="367" on="1"/>
        <pt x="364" y="367" on="0"/>
        <pt x="391" y="393" on="0"/>
        <pt x="390" y="424" on="1"/>
        <pt x="409" y="425" on="0"/>
        <pt x="456" y="418" on="0"/>
        <pt x="469" y="412" on="1"/>
        <pt x="476" y="335" on="0"/>
        <pt x="414" y="252" on="0"/>
        <pt x="349" y="252" on="1"/>
        <pt x="326" y="252" on="0"/>
        <pt x="281" y="263" on="0"/>
        <pt x="242" y="279" on="1"/>
        <pt x="212" y="292" on="0"/>
        <pt x="182" y="300" on="0"/>
        <pt x="169" y="300" on="1"/>
        <pt x="137" y="300" on="0"/>
        <pt x="109" y="273" on="0"/>
        <pt x="110" y="242" on="1"/>
        <pt x="92" y="241" on="0"/>
        <pt x="49" y="248" on="0"/>
        <pt x="31" y="254" on="1"/>
        <pt x="25" y="331" on="0"/>
        <pt x="87" y="415" on="0"/>
        <pt x="151" y="415" on="1"/>
        <pt x="168" y="415" on="0"/>
        <pt x="206" y="406" on="0"/>
      </contour>
    </TTGlyph>
    <TTGlyph name="asterisk" xMin="42" yMin="286" xMax="472" yMax="734">
      <contour>
        <pt x="297" y="437" on="1"/>
        <pt x="300" y="407" on="0"/>
        <pt x="312" y="348" on="0"/>
        <pt x="323" y="304" on="1"/>
        <pt x="310" y="296" on="0"/>
        <pt x="274" y="286" on="0"/>
        <pt x="256" y="286" on="1"/>
        <pt x="241" y="286" on="0"/>
        <pt x="216" y="289" on="0"/>
        <pt x="203" y="293" on="1"/>
        <pt x="202" y="316" on="0"/>
        <pt x="207" y="384" on="0"/>
        <pt x="212" y="428" on="1"/>
        <pt x="181" y="403" on="0"/>
        <pt x="133" y="367" on="0"/>
        <pt x="111" y="350" on="1"/>
        <pt x="99" y="356" on="0"/>
        <pt x="72" y="383" on="0"/>
        <pt x="63" y="399" on="1"/>
        <pt x="56" y="410" on="0"/>
        <pt x="46" y="433" on="0"/>
        <pt x="42" y="449" on="1"/>
        <pt x="72" y="465" on="0"/>
        <pt x="137" y="497" on="0"/>
        <pt x="173" y="512" on="1"/>
        <pt x="146" y="524" on="0"/>
        <pt x="89" y="544" on="0"/>
        <pt x="46" y="556" on="1"/>
        <pt x="45" y="570" on="0"/>
        <pt x="55" y="606" on="0"/>
        <pt x="64" y="622" on="1"/>
        <pt x="70" y="634" on="0"/>
        <pt x="85" y="654" on="0"/>
        <pt x="96" y="666" on="1"/>
        <pt x="117" y="654" on="0"/>
        <pt x="174" y="616" on="0"/>
        <pt x="208" y="591" on="1"/>
        <pt x="206" y="603" on="0"/>
        <pt x="202" y="631" on="0"/>
        <pt x="199" y="659" on="1"/>
        <pt x="196" y="682" on="0"/>
        <pt x="192" y="706" on="0"/>
        <pt x="191" y="716" on="1"/>
        <pt x="204" y="724" on="0"/>
        <pt x="240" y="734" on="0"/>
        <pt x="258" y="734" on="1"/>
        <pt x="273" y="734" on="0"/>
        <pt x="298" y="731" on="0"/>
        <pt x="311" y="727" on="1"/>
        <pt x="310" y="690" on="0"/>
        <pt x="305" y="617" on="0"/>
        <pt x="300" y="581" on="1"/>
        <pt x="329" y="603" on="0"/>
        <pt x="377" y="644" on="0"/>
        <pt x="403" y="670" on="1"/>
        <pt x="415" y="664" on="0"/>
        <pt x="442" y="637" on="0"/>
        <pt x="451" y="621" on="1"/>
        <pt x="458" y="610" on="0"/>
        <pt x="468" y="587" on="0"/>
        <pt x="472" y="571" on="1"/>
        <pt x="451" y="558" on="0"/>
        <pt x="389" y="528" on="0"/>
        <pt x="351" y="512" on="1"/>
        <pt x="377" y="502" on="0"/>
        <pt x="458" y="468" on="0"/>
        <pt x="468" y="464" on="1"/>
        <pt x="469" y="450" on="0"/>
        <pt x="459" y="414" on="0"/>
        <pt x="450" y="398" on="1"/>
        <pt x="444" y="386" on="0"/>
        <pt x="429" y="366" on="0"/>
        <pt x="418" y="354" on="1"/>
        <pt x="391" y="371" on="0"/>
        <pt x="330" y="413" on="0"/>
      </contour>
    </TTGlyph>
    <TTGlyph name="at" xMin="25" yMin="-123" xMax="891" yMax="733">
      <contour>
        <pt x="679" y="-59" on="1"/>
        <pt x="620" y="-93" on="0"/>
        <pt x="500" y="-123" on="0"/>
        <pt x="427" y="-123" on="1"/>
        <pt x="240" y="-123" on="0"/>
        <pt x="25" y="93" on="0"/>
        <pt x="25" y="277" on="1"/>
        <pt x="25" y="479" on="0"/>
        <pt x="293" y="733" on="0"/>
        <pt x="510" y="733" on="1"/>
        <pt x="688" y="733" on="0"/>
        <pt x="891" y="531" on="0"/>
        <pt x="891" y="365" on="1"/>
        <pt x="891" y="310" on="0"/>
        <pt x="862" y="214" on="0"/>
        <pt x="834" y="177" on="1"/>
        <pt x="802" y="134" on="0"/>
        <pt x="712" y="85" on="0"/>
        <pt x="665" y="85" on="1"/>
        <pt x="605" y="85" on="0"/>
        <pt x="524" y="138" on="0"/>
        <pt x="508" y="188" on="1"/>
        <pt x="490" y="142" on="0"/>
        <pt x="430" y="97" on="0"/>
        <pt x="389" y="97" on="1"/>
        <pt x="328" y="97" on="0"/>
        <pt x="260" y="198" on="0"/>
        <pt x="260" y="283" on="1"/>
        <pt x="260" y="395" on="0"/>
        <pt x="372" y="528" on="0"/>
        <pt x="467" y="528" on="1"/>
        <pt x="479" y="528" on="1"/>
        <pt x="479" y="531" on="0"/>
        <pt x="478" y="544" on="0"/>
        <pt x="478" y="548" on="1"/>
        <pt x="522" y="557" on="0"/>
        <pt x="596" y="558" on="0"/>
        <pt x="633" y="550" on="1"/>
        <pt x="629" y="477" on="0"/>
        <pt x="626" y="369" on="0"/>
        <pt x="626" y="305" on="1"/>
        <pt x="626" y="234" on="0"/>
        <pt x="653" y="165" on="0"/>
        <pt x="681" y="165" on="1"/>
        <pt x="718" y="165" on="0"/>
        <pt x="775" y="283" on="0"/>
        <pt x="775" y="367" on="1"/>
        <pt x="775" y="494" on="0"/>
        <pt x="631" y="632" on="0"/>
        <pt x="498" y="632" on="1"/>
        <pt x="339" y="632" on="0"/>
        <pt x="156" y="457" on="0"/>
        <pt x="156" y="306" on="1"/>
        <pt x="156" y="152" on="0"/>
        <pt x="301" y="-17" on="0"/>
        <pt x="435" y="-17" on="1"/>
        <pt x="487" y="-17" on="0"/>
        <pt x="564" y="7" on="0"/>
        <pt x="603" y="36" on="1"/>
        <pt x="628" y="13" on="0"/>
        <pt x="666" y="-35" on="0"/>
      </contour>
      <contour>
        <pt x="408" y="302" on="1"/>
        <pt x="408" y="253" on="0"/>
        <pt x="428" y="202" on="0"/>
        <pt x="447" y="202" on="1"/>
        <pt x="462" y="202" on="0"/>
        <pt x="486" y="252" on="0"/>
        <pt x="493" y="299" on="1"/>
        <pt x="492" y="313" on="0"/>
        <pt x="489" y="348" on="0"/>
        <pt x="487" y="385" on="1"/>
        <pt x="485" y="409" on="0"/>
        <pt x="484" y="435" on="0"/>
        <pt x="483" y="446" on="1"/>
        <pt x="475" y="446" on="1"/>
        <pt x="444" y="446" on="0"/>
        <pt x="408" y="370" on="0"/>
      </contour>
    </TTGlyph>
    <TTGlyph name="atilde" xMin="24" yMin="-37" xMax="516" yMax="738">
      <component glyphName="a" x="0" y="0" flags="0x204"/>
      <component glyphName="tilde" x="180" y="-7" flags="0x4"/>
    </TTGlyph>
    <TTGlyph name="b" xMin="55" yMin="-60" xMax="539" yMax="696">
      <contour>
        <pt x="539" y="269" on="1"/>
        <pt x="539" y="129" on="0"/>
        <pt x="379" y="-60" on="0"/>
        <pt x="264" y="-60" on="1"/>
        <pt x="215" y="-60" on="0"/>
        <pt x="130" y="-39" on="0"/>
        <pt x="69" y="-6" on="1"/>
        <pt x="63" y="89" on="0"/>
        <pt x="55" y="314" on="0"/>
        <pt x="55" y="416" on="1"/>
        <pt x="55" y="498" on="0"/>
        <pt x="59" y="622" on="0"/>
        <pt x="64" y="670" on="1"/>
        <pt x="85" y="682" on="0"/>
        <pt x="168" y="696" on="0"/>
        <pt x="218" y="696" on="1"/>
        <pt x="245" y="696" on="0"/>
        <pt x="278" y="692" on="0"/>
        <pt x="295" y="688" on="1"/>
        <pt x="285" y="637" on="0"/>
        <pt x="269" y="523" on="0"/>
        <pt x="264" y="461" on="1"/>
        <pt x="284" y="482" on="0"/>
        <pt x="336" y="503" on="0"/>
        <pt x="368" y="503" on="1"/>
        <pt x="452" y="503" on="0"/>
        <pt x="539" y="383" on="0"/>
      </contour>
      <contour>
        <pt x="248" y="80" on="1"/>
        <pt x="255" y="75" on="0"/>
        <pt x="269" y="70" on="0"/>
        <pt x="275" y="70" on="1"/>
        <pt x="307" y="70" on="0"/>
        <pt x="340" y="189" on="0"/>
        <pt x="340" y="301" on="1"/>
        <pt x="340" y="341" on="0"/>
        <pt x="321" y="380" on="0"/>
        <pt x="302" y="380" on="1"/>
        <pt x="287" y="380" on="0"/>
        <pt x="264" y="354" on="0"/>
        <pt x="254" y="326" on="1"/>
        <pt x="251" y="269" on="0"/>
        <pt x="248" y="146" on="0"/>
      </contour>
    </TTGlyph>
    <TTGlyph name="backslash" xMin="-44" yMin="-210" xMax="517" yMax="761">
      <contour>
        <pt x="98" y="761" on="1"/>
        <pt x="66" y="759" on="0"/>
        <pt x="-15" y="715" on="0"/>
        <pt x="-44" y="684" on="1"/>
        <pt x="41" y="485" on="0"/>
        <pt x="296" y="-24" on="0"/>
        <pt x="403" y="-210" on="1"/>
        <pt x="435" y="-199" on="0"/>
        <pt x="500" y="-167" on="0"/>
        <pt x="517" y="-153" on="1"/>
        <pt x="433" y="3" on="0"/>
        <pt x="144" y="631" on="0"/>
      </contour>
    </TTGlyph>
    <TTGlyph name="bar" xMin="60" yMin="-170" xMax="216" yMax="736">
      <contour>
        <pt x="191" y="-157" on="1"/>
        <pt x="166" y="-165" on="0"/>
        <pt x="105" y="-170" on="0"/>
        <pt x="80" y="-167" on="1"/>
        <pt x="70" y="-16" on="0"/>
        <pt x="60" y="455" on="0"/>
        <pt x="60" y="713" on="1"/>
        <pt x="99" y="729" on="0"/>
        <pt x="186" y="736" on="0"/>
        <pt x="216" y="725" on="1"/>
        <pt x="204" y="598" on="0"/>
        <pt x="187" y="-13" on="0"/>
      </contour>
    </TTGlyph>
    <TTGlyph name="bn_a" xMin="-10" yMin="-39" xMax="756" yMax="675">
      <contour>
        <pt x="664" y="344" on="1"/>
        <pt x="664" y="240" on="0"/>
        <pt x="632" y="27" on="0"/>
        <pt x="606" y="-39" on="1"/>
        <pt x="572" y="-39" on="0"/>
        <pt x="493" y="-26" on="0"/>
        <pt x="471" y="-16" on="1"/>
        <pt x="455" y="8" on="0"/>
        <pt x="417" y="51" on="0"/>
        <pt x="396" y="70" on="1"/>
        <pt x="377" y="56" on="0"/>
        <pt x="331" y="41" on="0"/>
        <pt x="306" y="41" on="1"/>
        <pt x="206" y="41" on="0"/>
        <pt x="54" y="224" on="0"/>
        <pt x="4" y="406" on="1"/>
        <pt x="27" y="420" on="0"/>
        <pt x="69" y="440" on="0"/>
        <pt x="89" y="446" on="1"/>
        <pt x="128" y="343" on="0"/>
        <pt x="238" y="214" on="0"/>
        <pt x="286" y="214" on="1"/>
        <pt x="322" y="214" on="0"/>
        <pt x="359" y="261" on="0"/>
        <pt x="359" y="307" on="1"/>
        <pt x="359" y="343" on="0"/>
        <pt x="336" y="385" on="0"/>
        <pt x="317" y="385" on="1"/>
        <pt x="307" y="385" on="0"/>
        <pt x="294" y="366" on="0"/>
        <pt x="294" y="351" on="1"/>
        <pt x="294" y="339" on="0"/>
        <pt x="300" y="316" on="0"/>
        <pt x="306" y="301" on="1"/>
        <pt x="273" y="301" on="0"/>
        <pt x="199" y="314" on="0"/>
        <pt x="177" y="324" on="1"/>
        <pt x="173" y="340" on="0"/>
        <pt x="170" y="361" on="0"/>
        <pt x="170" y="374" on="1"/>
        <pt x="170" y="427" on="0"/>
        <pt x="234" y="501" on="0"/>
        <pt x="281" y="501" on="1"/>
        <pt x="361" y="501" on="0"/>
        <pt x="468" y="344" on="0"/>
        <pt x="468" y="236" on="1"/>
        <pt x="468" y="215" on="0"/>
        <pt x="461" y="173" on="0"/>
        <pt x="455" y="153" on="1"/>
        <pt x="470" y="131" on="0"/>
        <pt x="490" y="98" on="0"/>
        <pt x="498" y="83" on="1"/>
        <pt x="506" y="120" on="0"/>
        <pt x="513" y="214" on="0"/>
        <pt x="513" y="282" on="1"/>
        <pt x="513" y="370" on="0"/>
        <pt x="506" y="487" on="0"/>
        <pt x="498" y="534" on="1"/>
        <pt x="462" y="535" on="0"/>
        <pt x="419" y="536" on="0"/>
        <pt x="400" y="536" on="1"/>
        <pt x="293" y="536" on="0"/>
        <pt x="87" y="519" on="0"/>
        <pt x="0" y="504" on="1"/>
        <pt x="-5" y="518" on="0"/>
        <pt x="-10" y="560" on="0"/>
        <pt x="-10" y="581" on="1"/>
        <pt x="-10" y="600" on="0"/>
        <pt x="-5" y="630" on="0"/>
        <pt x="0" y="639" on="1"/>
        <pt x="78" y="656" on="0"/>
        <pt x="291" y="675" on="0"/>
        <pt x="405" y="675" on="1"/>
        <pt x="506" y="675" on="0"/>
        <pt x="684" y="656" on="0"/>
        <pt x="748" y="639" on="1"/>
        <pt x="752" y="628" on="0"/>
        <pt x="756" y="597" on="0"/>
        <pt x="756" y="577" on="1"/>
        <pt x="756" y="557" on="0"/>
        <pt x="752" y="518" on="0"/>
        <pt x="748" y="504" on="1"/>
        <pt x="730" y="508" on="0"/>
        <pt x="686" y="516" on="0"/>
        <pt x="655" y="520" on="1"/>
        <pt x="661" y="438" on="0"/>
        <pt x="664" y="373" on="0"/>
      </contour>
    </TTGlyph>
    <TTGlyph name="bn_aa" xMin="-11" yMin="-58" xMax="1047" yMax="680">
      <contour>
        <pt x="972" y="467" on="1"/>
        <pt x="957" y="339" on="0"/>
        <pt x="953" y="76" on="0"/>
        <pt x="964" y="-50" on="1"/>
        <pt x="927" y="-55" on="0"/>
        <pt x="826" y="-58" on="0"/>
        <pt x="792" y="-55" on="1"/>
        <pt x="800" y="146" on="0"/>
        <pt x="813" y="330" on="0"/>
        <pt x="824" y="423" on="1"/>
        <pt x="814" y="462" on="0"/>
        <pt x="738" y="512" on="0"/>
        <pt x="669" y="525" on="1"/>
        <pt x="662" y="473" on="0"/>
        <pt x="654" y="360" on="0"/>
        <pt x="654" y="303" on="1"/>
        <pt x="654" y="199" on="0"/>
        <pt x="667" y="48" on="0"/>
        <pt x="681" y="-4" on="1"/>
        <pt x="652" y="-19" on="0"/>
        <pt x="562" y="-37" on="0"/>
        <pt x="515" y="-37" on="1"/>
        <pt x="494" y="-4" on="0"/>
        <pt x="440" y="52" on="0"/>
        <pt x="407" y="73" on="1"/>
        <pt x="386" y="54" on="0"/>
        <pt x="334" y="35" on="0"/>
        <pt x="305" y="35" on="1"/>
        <pt x="205" y="35" on="0"/>
        <pt x="53" y="218" on="0"/>
        <pt x="3" y="400" on="1"/>
        <pt x="26" y="414" on="0"/>
        <pt x="68" y="434" on="0"/>
        <pt x="88" y="440" on="1"/>
        <pt x="127" y="337" on="0"/>
        <pt x="237" y="208" on="0"/>
        <pt x="285" y="208" on="1"/>
        <pt x="321" y="208" on="0"/>
        <pt x="358" y="255" on="0"/>
        <pt x="358" y="301" on="1"/>
        <pt x="358" y="337" on="0"/>
        <pt x="335" y="379" on="0"/>
        <pt x="316" y="379" on="1"/>
        <pt x="306" y="379" on="0"/>
        <pt x="293" y="360" on="0"/>
        <pt x="293" y="345" on="1"/>
        <pt x="293" y="333" on="0"/>
        <pt x="299" y="310" on="0"/>
        <pt x="305" y="295" on="1"/>
        <pt x="272" y="295" on="0"/>
        <pt x="198" y="308" on="0"/>
        <pt x="176" y="318" on="1"/>
        <pt x="172" y="334" on="0"/>
        <pt x="169" y="355" on="0"/>
        <pt x="169" y="368" on="1"/>
        <pt x="169" y="421" on="0"/>
        <pt x="233" y="495" on="0"/>
        <pt x="280" y="495" on="1"/>
        <pt x="360" y="495" on="0"/>
        <pt x="467" y="338" on="0"/>
        <pt x="467" y="230" on="1"/>
        <pt x="467" y="209" on="0"/>
        <pt x="461" y="170" on="0"/>
        <pt x="455" y="153" on="1"/>
        <pt x="470" y="140" on="0"/>
        <pt x="497" y="109" on="0"/>
        <pt x="509" y="92" on="1"/>
        <pt x="509" y="107" on="1"/>
        <pt x="509" y="250" on="0"/>
        <pt x="530" y="461" on="0"/>
        <pt x="551" y="538" on="1"/>
        <pt x="521" y="540" on="0"/>
        <pt x="461" y="541" on="0"/>
        <pt x="430" y="541" on="1"/>
        <pt x="314" y="541" on="0"/>
        <pt x="87" y="521" on="0"/>
        <pt x="0" y="504" on="1"/>
        <pt x="-10" y="535" on="0"/>
        <pt x="-11" y="620" on="0"/>
        <pt x="0" y="639" on="1"/>
        <pt x="80" y="658" on="0"/>
        <pt x="312" y="680" on="0"/>
        <pt x="435" y="680" on="1"/>
        <pt x="587" y="680" on="0"/>
        <pt x="831" y="622" on="0"/>
        <pt x="888" y="570" on="1"/>
        <pt x="917" y="596" on="0"/>
        <pt x="992" y="631" on="0"/>
        <pt x="1036" y="639" on="1"/>
        <pt x="1047" y="622" on="0"/>
        <pt x="1046" y="537" on="0"/>
        <pt x="1036" y="504" on="1"/>
        <pt x="1016" y="501" on="0"/>
        <pt x="985" y="482" on="0"/>
      </contour>
    </TTGlyph>
    <TTGlyph name="bn_aakaar" xMin="-11" yMin="-72" xMax="299" yMax="639">
      <contour>
        <pt x="227" y="470" on="1"/>
        <pt x="226" y="340" on="0"/>
        <pt x="216" y="65" on="0"/>
        <pt x="206" y="-72" on="1"/>
        <pt x="160" y="-72" on="0"/>
        <pt x="61" y="-62" on="0"/>
        <pt x="34" y="-55" on="1"/>
        <pt x="53" y="35" on="0"/>
        <pt x="75" y="245" on="0"/>
        <pt x="80" y="380" on="1"/>
        <pt x="80" y="439" on="0"/>
        <pt x="40" y="498" on="0"/>
        <pt x="0" y="504" on="1"/>
        <pt x="-10" y="529" on="0"/>
        <pt x="-11" y="623" on="0"/>
        <pt x="0" y="639" on="1"/>
        <pt x="37" y="631" on="0"/>
        <pt x="112" y="593" on="0"/>
        <pt x="140" y="570" on="1"/>
        <pt x="168" y="596" on="0"/>
        <pt x="243" y="631" on="0"/>
        <pt x="288" y="639" on="1"/>
        <pt x="299" y="622" on="0"/>
        <pt x="298" y="537" on="0"/>
        <pt x="288" y="504" on="1"/>
        <pt x="269" y="500" on="0"/>
        <pt x="238" y="483" on="0"/>
      </contour>
    </TTGlyph>
    <TTGlyph name="bn_aakaar.b" xMin="-10" yMin="-72" xMax="299" yMax="646">
      <contour>
        <pt x="227" y="470" on="1"/>
        <pt x="226" y="340" on="0"/>
        <pt x="216" y="65" on="0"/>
        <pt x="206" y="-72" on="1"/>
        <pt x="160" y="-72" on="0"/>
        <pt x="61" y="-62" on="0"/>
        <pt x="34" y="-55" on="1"/>
        <pt x="53" y="36" on="0"/>
        <pt x="75" y="245" on="0"/>
        <pt x="80" y="381" on="1"/>
        <pt x="80" y="459" on="0"/>
        <pt x="61" y="508" on="0"/>
        <pt x="35" y="508" on="1"/>
        <pt x="27" y="508" on="0"/>
        <pt x="9" y="506" on="0"/>
        <pt x="0" y="504" on="1"/>
        <pt x="-5" y="519" on="0"/>
        <pt x="-10" y="557" on="0"/>
        <pt x="-10" y="577" on="1"/>
        <pt x="-10" y="596" on="0"/>
        <pt x="-5" y="627" on="0"/>
        <pt x="0" y="639" on="1"/>
        <pt x="13" y="642" on="0"/>
        <pt x="42" y="645" on="0"/>
        <pt x="56" y="645" on="1"/>
        <pt x="90" y="646" on="0"/>
        <pt x="142" y="616" on="0"/>
        <pt x="159" y="586" on="1"/>
        <pt x="186" y="606" on="0"/>
        <pt x="252" y="633" on="0"/>
        <pt x="288" y="639" on="1"/>
        <pt x="299" y="622" on="0"/>
        <pt x="298" y="537" on="0"/>
        <pt x="288" y="504" on="1"/>
        <pt x="269" y="500" on="0"/>
        <pt x="238" y="483" on="0"/>
      </contour>
    </TTGlyph>
    <TTGlyph name="bn_ai" xMin="18" yMin="-41" xMax="715" yMax="965">
      <contour>
        <pt x="582" y="-20" on="1"/>
        <pt x="553" y="-30" on="0"/>
        <pt x="481" y="-41" on="0"/>
        <pt x="447" y="-41" on="1"/>
        <pt x="447" y="-40" on="0"/>
        <pt x="424" y="4" on="0"/>
        <pt x="414" y="15" on="1"/>
        <pt x="403" y="27" on="0"/>
        <pt x="375" y="39" on="0"/>
        <pt x="356" y="39" on="1"/>
        <pt x="341" y="39" on="0"/>
        <pt x="305" y="32" on="0"/>
        <pt x="266" y="19" on="1"/>
        <pt x="223" y="6" on="0"/>
        <pt x="178" y="-3" on="0"/>
        <pt x="158" y="-3" on="1"/>
        <pt x="94" y="-3" on="0"/>
        <pt x="18" y="84" on="0"/>
        <pt x="18" y="158" on="1"/>
        <pt x="18" y="194" on="0"/>
        <pt x="36" y="278" on="0"/>
        <pt x="52" y="317" on="1"/>
        <pt x="87" y="316" on="0"/>
        <pt x="143" y="308" on="0"/>
        <pt x="164" y="300" on="1"/>
        <pt x="156" y="281" on="0"/>
        <pt x="146" y="240" on="0"/>
        <pt x="146" y="224" on="1"/>
        <pt x="146" y="202" on="0"/>
        <pt x="169" y="178" on="0"/>
        <pt x="189" y="178" on="1"/>
        <pt x="199" y="178" on="0"/>
        <pt x="224" y="184" on="0"/>
        <pt x="253" y="193" on="1"/>
        <pt x="286" y="204" on="0"/>
        <pt x="319" y="211" on="0"/>
        <pt x="332" y="211" on="1"/>
        <pt x="365" y="211" on="0"/>
        <pt x="410" y="165" on="0"/>
        <pt x="428" y="113" on="1"/>
        <pt x="444" y="199" on="0"/>
        <pt x="462" y="424" on="0"/>
        <pt x="462" y="540" on="1"/>
        <pt x="462" y="558" on="0"/>
        <pt x="449" y="576" on="0"/>
        <pt x="437" y="576" on="1"/>
        <pt x="408" y="576" on="0"/>
        <pt x="345" y="485" on="0"/>
        <pt x="345" y="449" on="1"/>
        <pt x="345" y="433" on="0"/>
        <pt x="362" y="416" on="0"/>
        <pt x="379" y="416" on="1"/>
        <pt x="391" y="416" on="0"/>
        <pt x="416" y="424" on="0"/>
        <pt x="426" y="432" on="1"/>
        <pt x="427" y="429" on="0"/>
        <pt x="428" y="418" on="0"/>
        <pt x="428" y="411" on="1"/>
        <pt x="428" y="377" on="0"/>
        <pt x="404" y="301" on="0"/>
        <pt x="387" y="278" on="1"/>
        <pt x="377" y="273" on="0"/>
        <pt x="347" y="267" on="0"/>
        <pt x="330" y="267" on="1"/>
        <pt x="263" y="267" on="0"/>
        <pt x="174" y="352" on="0"/>
        <pt x="174" y="420" on="1"/>
        <pt x="174" y="516" on="0"/>
        <pt x="329" y="680" on="0"/>
        <pt x="424" y="680" on="1"/>
        <pt x="484" y="680" on="0"/>
        <pt x="580" y="610" on="0"/>
        <pt x="599" y="552" on="1"/>
        <pt x="620" y="573" on="0"/>
        <pt x="642" y="615" on="0"/>
        <pt x="642" y="635" on="1"/>
        <pt x="642" y="667" on="0"/>
        <pt x="580" y="700" on="0"/>
        <pt x="454" y="714" on="1"/>
        <pt x="325" y="729" on="0"/>
        <pt x="229" y="816" on="0"/>
        <pt x="214" y="915" on="1"/>
        <pt x="236" y="930" on="0"/>
        <pt x="289" y="955" on="0"/>
        <pt x="323" y="965" on="1"/>
        <pt x="333" y="901" on="0"/>
        <pt x="383" y="847" on="0"/>
        <pt x="451" y="838" on="1"/>
        <pt x="534" y="827" on="1"/>
        <pt x="623" y="815" on="0"/>
        <pt x="715" y="712" on="0"/>
        <pt x="715" y="626" on="1"/>
        <pt x="715" y="566" on="0"/>
        <pt x="665" y="456" on="0"/>
        <pt x="608" y="395" on="1"/>
        <pt x="607" y="289" on="0"/>
        <pt x="594" y="85" on="0"/>
      </contour>
    </TTGlyph>
    <TTGlyph name="bn_aikaar" xMin="-124" yMin="-88" xMax="430" yMax="890">
      <contour>
        <pt x="430" y="-7" on="1"/>
        <pt x="397" y="-49" on="0"/>
        <pt x="326" y="-88" on="0"/>
        <pt x="280" y="-88" on="1"/>
        <pt x="175" y="-88" on="0"/>
        <pt x="51" y="84" on="0"/>
        <pt x="51" y="229" on="1"/>
        <pt x="51" y="304" on="0"/>
        <pt x="71" y="420" on="0"/>
        <pt x="93" y="469" on="1"/>
        <pt x="77" y="481" on="0"/>
        <pt x="25" y="501" on="0"/>
        <pt x="0" y="504" on="1"/>
        <pt x="-4" y="515" on="0"/>
        <pt x="-10" y="555" on="0"/>
        <pt x="-10" y="575" on="1"/>
        <pt x="-10" y="596" on="0"/>
        <pt x="-5" y="628" on="0"/>
        <pt x="0" y="639" on="1"/>
        <pt x="58" y="627" on="0"/>
        <pt x="143" y="595" on="0"/>
        <pt x="172" y="574" on="1"/>
        <pt x="193" y="588" on="0"/>
        <pt x="245" y="612" on="0"/>
        <pt x="276" y="621" on="1"/>
        <pt x="263" y="676" on="0"/>
        <pt x="219" y="717" on="0"/>
        <pt x="183" y="717" on="1"/>
        <pt x="172" y="717" on="0"/>
        <pt x="147" y="713" on="0"/>
        <pt x="120" y="707" on="1"/>
        <pt x="91" y="700" on="0"/>
        <pt x="61" y="696" on="0"/>
        <pt x="49" y="696" on="1"/>
        <pt x="-2" y="696" on="0"/>
        <pt x="-89" y="754" on="0"/>
        <pt x="-124" y="813" on="1"/>
        <pt x="-109" y="833" on="0"/>
        <pt x="-65" y="871" on="0"/>
        <pt x="-35" y="890" on="1"/>
        <pt x="-15" y="856" on="0"/>
        <pt x="33" y="824" on="0"/>
        <pt x="63" y="824" on="1"/>
        <pt x="71" y="824" on="0"/>
        <pt x="92" y="827" on="0"/>
        <pt x="116" y="833" on="1"/>
        <pt x="145" y="840" on="0"/>
        <pt x="175" y="845" on="0"/>
        <pt x="188" y="845" on="1"/>
        <pt x="250" y="845" on="0"/>
        <pt x="337" y="736" on="0"/>
        <pt x="355" y="639" on="1"/>
        <pt x="360" y="627" on="0"/>
        <pt x="366" y="597" on="0"/>
        <pt x="366" y="579" on="1"/>
        <pt x="366" y="556" on="0"/>
        <pt x="360" y="515" on="0"/>
        <pt x="355" y="504" on="1"/>
        <pt x="271" y="493" on="0"/>
        <pt x="201" y="357" on="0"/>
        <pt x="201" y="202" on="1"/>
        <pt x="201" y="98" on="0"/>
        <pt x="222" y="15" on="0"/>
        <pt x="247" y="15" on="1"/>
        <pt x="267" y="15" on="0"/>
        <pt x="301" y="62" on="0"/>
        <pt x="333" y="135" on="1"/>
        <pt x="367" y="116" on="0"/>
        <pt x="430" y="24" on="0"/>
      </contour>
    </TTGlyph>
    <TTGlyph name="bn_aikaar.init" xMin="-113" yMin="-88" xMax="417" yMax="890">
      <contour>
        <pt x="417" y="-7" on="1"/>
        <pt x="385" y="-49" on="0"/>
        <pt x="312" y="-88" on="0"/>
        <pt x="265" y="-88" on="1"/>
        <pt x="158" y="-88" on="0"/>
        <pt x="25" y="84" on="0"/>
        <pt x="25" y="221" on="1"/>
        <pt x="25" y="383" on="0"/>
        <pt x="152" y="576" on="0"/>
        <pt x="287" y="619" on="1"/>
        <pt x="273" y="676" on="0"/>
        <pt x="230" y="717" on="0"/>
        <pt x="194" y="717" on="1"/>
        <pt x="183" y="717" on="0"/>
        <pt x="158" y="713" on="0"/>
        <pt x="131" y="707" on="1"/>
        <pt x="102" y="700" on="0"/>
        <pt x="72" y="696" on="0"/>
        <pt x="60" y="696" on="1"/>
        <pt x="9" y="696" on="0"/>
        <pt x="-78" y="754" on="0"/>
        <pt x="-113" y="813" on="1"/>
        <pt x="-98" y="833" on="0"/>
        <pt x="-54" y="871" on="0"/>
        <pt x="-24" y="890" on="1"/>
        <pt x="-4" y="856" on="0"/>
        <pt x="44" y="824" on="0"/>
        <pt x="74" y="824" on="1"/>
        <pt x="82" y="824" on="0"/>
        <pt x="103" y="827" on="0"/>
        <pt x="127" y="833" on="1"/>
        <pt x="156" y="840" on="0"/>
        <pt x="186" y="845" on="0"/>
        <pt x="199" y="845" on="1"/>
        <pt x="261" y="845" on="0"/>
        <pt x="348" y="736" on="0"/>
        <pt x="366" y="639" on="1"/>
        <pt x="372" y="629" on="0"/>
        <pt x="377" y="600" on="0"/>
        <pt x="377" y="577" on="1"/>
        <pt x="377" y="559" on="0"/>
        <pt x="371" y="517" on="0"/>
        <pt x="366" y="504" on="1"/>
        <pt x="263" y="492" on="0"/>
        <pt x="175" y="344" on="0"/>
        <pt x="175" y="182" on="1"/>
        <pt x="175" y="102" on="0"/>
        <pt x="204" y="15" on="0"/>
        <pt x="230" y="15" on="1"/>
        <pt x="252" y="15" on="0"/>
        <pt x="290" y="66" on="0"/>
        <pt x="320" y="135" on="1"/>
        <pt x="354" y="116" on="0"/>
        <pt x="417" y="24" on="0"/>
      </contour>
    </TTGlyph>
    <TTGlyph name="bn_anusvar" xMin="-1" yMin="-63" xMax="444" yMax="648">
      <contour>
        <pt x="237" y="648" on="1"/>
        <pt x="305" y="648" on="0"/>
        <pt x="394" y="560" on="0"/>
        <pt x="393" y="493" on="1"/>
        <pt x="391" y="421" on="0"/>
        <pt x="286" y="320" on="0"/>
        <pt x="213" y="320" on="1"/>
        <pt x="146" y="320" on="0"/>
        <pt x="57" y="408" on="0"/>
        <pt x="58" y="472" on="1"/>
        <pt x="60" y="546" on="0"/>
        <pt x="163" y="648" on="0"/>
      </contour>
      <contour>
        <pt x="206" y="546" on="1"/>
        <pt x="186" y="546" on="0"/>
        <pt x="161" y="524" on="0"/>
        <pt x="161" y="505" on="1"/>
        <pt x="161" y="472" on="0"/>
        <pt x="213" y="423" on="0"/>
        <pt x="246" y="423" on="1"/>
        <pt x="266" y="423" on="0"/>
        <pt x="290" y="444" on="0"/>
        <pt x="290" y="461" on="1"/>
        <pt x="290" y="495" on="0"/>
        <pt x="239" y="546" on="0"/>
      </contour>
      <contour>
        <pt x="77" y="327" on="1"/>
        <pt x="185" y="289" on="0"/>
        <pt x="396" y="117" on="0"/>
        <pt x="444" y="28" on="1"/>
        <pt x="431" y="0" on="0"/>
        <pt x="380" y="-49" on="0"/>
        <pt x="350" y="-63" on="1"/>
        <pt x="299" y="24" on="0"/>
        <pt x="105" y="158" on="0"/>
        <pt x="-1" y="183" on="1"/>
        <pt x="13" y="227" on="0"/>
        <pt x="52" y="299" on="0"/>
      </contour>
    </TTGlyph>
    <TTGlyph name="bn_au" xMin="16" yMin="-42" xMax="792" yMax="967">
      <contour>
        <pt x="714" y="153" on="1"/>
        <pt x="714" y="66" on="0"/>
        <pt x="596" y="-42" on="0"/>
        <pt x="496" y="-42" on="1"/>
        <pt x="336" y="-42" on="0"/>
        <pt x="99" y="247" on="0"/>
        <pt x="16" y="554" on="1"/>
        <pt x="41" y="570" on="0"/>
        <pt x="95" y="594" on="0"/>
        <pt x="124" y="601" on="1"/>
        <pt x="184" y="395" on="0"/>
        <pt x="394" y="129" on="0"/>
        <pt x="506" y="129" on="1"/>
        <pt x="547" y="129" on="0"/>
        <pt x="594" y="166" on="0"/>
        <pt x="594" y="198" on="1"/>
        <pt x="594" y="209" on="0"/>
        <pt x="587" y="232" on="0"/>
        <pt x="581" y="241" on="1"/>
        <pt x="566" y="222" on="0"/>
        <pt x="524" y="202" on="0"/>
        <pt x="499" y="202" on="1"/>
        <pt x="451" y="202" on="0"/>
        <pt x="387" y="269" on="0"/>
        <pt x="387" y="321" on="1"/>
        <pt x="387" y="372" on="0"/>
        <pt x="450" y="441" on="0"/>
        <pt x="493" y="441" on="1"/>
        <pt x="510" y="441" on="0"/>
        <pt x="542" y="429" on="0"/>
        <pt x="555" y="418" on="1"/>
        <pt x="572" y="435" on="0"/>
        <pt x="590" y="476" on="0"/>
        <pt x="590" y="495" on="1"/>
        <pt x="590" y="522" on="0"/>
        <pt x="555" y="554" on="0"/>
        <pt x="523" y="556" on="1"/>
        <pt x="464" y="560" on="0"/>
        <pt x="374" y="478" on="0"/>
        <pt x="374" y="424" on="1"/>
        <pt x="374" y="406" on="0"/>
        <pt x="375" y="390" on="0"/>
        <pt x="376" y="384" on="1"/>
        <pt x="331" y="384" on="0"/>
        <pt x="239" y="417" on="0"/>
        <pt x="212" y="443" on="1"/>
        <pt x="210" y="540" on="0"/>
        <pt x="362" y="678" on="0"/>
        <pt x="470" y="678" on="1"/>
        <pt x="544" y="678" on="0"/>
        <pt x="660" y="609" on="0"/>
        <pt x="686" y="549" on="1"/>
        <pt x="702" y="568" on="0"/>
        <pt x="718" y="609" on="0"/>
        <pt x="718" y="629" on="1"/>
        <pt x="718" y="664" on="0"/>
        <pt x="656" y="699" on="0"/>
        <pt x="531" y="715" on="1"/>
        <pt x="404" y="732" on="0"/>
        <pt x="308" y="817" on="0"/>
        <pt x="294" y="912" on="1"/>
        <pt x="314" y="928" on="0"/>
        <pt x="365" y="954" on="0"/>
        <pt x="400" y="967" on="1"/>
        <pt x="410" y="902" on="0"/>
        <pt x="457" y="850" on="0"/>
        <pt x="524" y="840" on="1"/>
        <pt x="607" y="828" on="1"/>
        <pt x="698" y="815" on="0"/>
        <pt x="792" y="714" on="0"/>
        <pt x="792" y="628" on="1"/>
        <pt x="792" y="567" on="0"/>
        <pt x="741" y="447" on="0"/>
        <pt x="690" y="387" on="1"/>
        <pt x="683" y="366" on="0"/>
        <pt x="662" y="330" on="0"/>
        <pt x="648" y="314" on="1"/>
        <pt x="680" y="282" on="0"/>
        <pt x="714" y="199" on="0"/>
      </contour>
      <contour>
        <pt x="456" y="345" on="1"/>
        <pt x="456" y="334" on="0"/>
        <pt x="470" y="320" on="0"/>
        <pt x="481" y="320" on="1"/>
        <pt x="492" y="320" on="0"/>
        <pt x="513" y="334" on="0"/>
        <pt x="523" y="347" on="1"/>
        <pt x="515" y="361" on="0"/>
        <pt x="495" y="376" on="0"/>
        <pt x="485" y="376" on="1"/>
        <pt x="473" y="376" on="0"/>
        <pt x="456" y="358" on="0"/>
      </contour>
    </TTGlyph>
    <TTGlyph name="bn_aukaar" xMin="-10" yMin="-88" xMax="1373" yMax="1011">
      <contour>
        <pt x="1301" y="470" on="1"/>
        <pt x="1301" y="355" on="0"/>
        <pt x="1295" y="100" on="0"/>
        <pt x="1289" y="-63" on="1"/>
        <pt x="1244" y="-63" on="0"/>
        <pt x="1148" y="-57" on="0"/>
        <pt x="1122" y="-53" on="1"/>
        <pt x="1136" y="51" on="0"/>
        <pt x="1151" y="254" on="0"/>
        <pt x="1154" y="368" on="1"/>
        <pt x="1154" y="438" on="0"/>
        <pt x="1114" y="498" on="0"/>
        <pt x="1074" y="504" on="1"/>
        <pt x="1069" y="517" on="0"/>
        <pt x="1063" y="559" on="0"/>
        <pt x="1063" y="580" on="1"/>
        <pt x="1063" y="599" on="0"/>
        <pt x="1069" y="631" on="0"/>
        <pt x="1074" y="639" on="1"/>
        <pt x="1111" y="630" on="0"/>
        <pt x="1186" y="593" on="0"/>
        <pt x="1213" y="570" on="1"/>
        <pt x="1225" y="582" on="0"/>
        <pt x="1236" y="612" on="0"/>
        <pt x="1236" y="631" on="1"/>
        <pt x="1236" y="651" on="0"/>
        <pt x="1206" y="686" on="0"/>
        <pt x="1126" y="739" on="1"/>
        <pt x="1047" y="790" on="0"/>
        <pt x="991" y="874" on="0"/>
        <pt x="991" y="928" on="1"/>
        <pt x="991" y="942" on="0"/>
        <pt x="995" y="976" on="0"/>
        <pt x="999" y="996" on="1"/>
        <pt x="1024" y="1004" on="0"/>
        <pt x="1081" y="1011" on="0"/>
        <pt x="1118" y="1010" on="1"/>
        <pt x="1115" y="994" on="0"/>
        <pt x="1112" y="968" on="0"/>
        <pt x="1112" y="957" on="1"/>
        <pt x="1112" y="920" on="0"/>
        <pt x="1149" y="867" on="0"/>
        <pt x="1198" y="837" on="1"/>
        <pt x="1259" y="800" on="0"/>
        <pt x="1313" y="721" on="0"/>
        <pt x="1313" y="670" on="1"/>
        <pt x="1313" y="658" on="0"/>
        <pt x="1310" y="636" on="0"/>
        <pt x="1308" y="625" on="1"/>
        <pt x="1323" y="630" on="0"/>
        <pt x="1350" y="637" on="0"/>
        <pt x="1362" y="639" on="1"/>
        <pt x="1367" y="632" on="0"/>
        <pt x="1373" y="603" on="0"/>
        <pt x="1373" y="583" on="1"/>
        <pt x="1373" y="562" on="0"/>
        <pt x="1367" y="519" on="0"/>
        <pt x="1362" y="504" on="1"/>
        <pt x="1343" y="500" on="0"/>
        <pt x="1312" y="483" on="0"/>
      </contour>
      <contour>
        <pt x="430" y="-7" on="1"/>
        <pt x="397" y="-49" on="0"/>
        <pt x="326" y="-88" on="0"/>
        <pt x="280" y="-88" on="1"/>
        <pt x="175" y="-88" on="0"/>
        <pt x="51" y="84" on="0"/>
        <pt x="51" y="229" on="1"/>
        <pt x="51" y="304" on="0"/>
        <pt x="71" y="420" on="0"/>
        <pt x="93" y="469" on="1"/>
        <pt x="77" y="481" on="0"/>
        <pt x="25" y="501" on="0"/>
        <pt x="0" y="504" on="1"/>
        <pt x="-4" y="515" on="0"/>
        <pt x="-10" y="555" on="0"/>
        <pt x="-10" y="575" on="1"/>
        <pt x="-10" y="596" on="0"/>
        <pt x="-5" y="628" on="0"/>
        <pt x="0" y="639" on="1"/>
        <pt x="58" y="627" on="0"/>
        <pt x="143" y="595" on="0"/>
        <pt x="172" y="574" on="1"/>
        <pt x="204" y="596" on="0"/>
        <pt x="294" y="628" on="0"/>
        <pt x="355" y="639" on="1"/>
        <pt x="360" y="627" on="0"/>
        <pt x="366" y="597" on="0"/>
        <pt x="366" y="579" on="1"/>
        <pt x="366" y="556" on="0"/>
        <pt x="360" y="515" on="0"/>
        <pt x="355" y="504" on="1"/>
        <pt x="271" y="493" on="0"/>
        <pt x="201" y="357" on="0"/>
        <pt x="201" y="202" on="1"/>
        <pt x="201" y="98" on="0"/>
        <pt x="222" y="15" on="0"/>
        <pt x="247" y="15" on="1"/>
        <pt x="267" y="15" on="0"/>
        <pt x="301" y="62" on="0"/>
        <pt x="333" y="135" on="1"/>
        <pt x="367" y="116" on="0"/>
        <pt x="430" y="24" on="0"/>
      </contour>
      <contour>
        <pt x="720" y="625" on="1"/>
        <pt x="740" y="625" on="0"/>
        <pt x="764" y="601" on="0"/>
        <pt x="764" y="580" on="1"/>
        <pt x="764" y="559" on="0"/>
        <pt x="741" y="536" on="0"/>
        <pt x="720" y="536" on="1"/>
        <pt x="700" y="536" on="0"/>
        <pt x="677" y="559" on="0"/>
        <pt x="677" y="580" on="1"/>
        <pt x="677" y="601" on="0"/>
        <pt x="700" y="625" on="0"/>
      </contour>
      <contour>
        <pt x="575" y="585" on="1"/>
        <pt x="595" y="585" on="0"/>
        <pt x="619" y="560" on="0"/>
        <pt x="619" y="540" on="1"/>
        <pt x="619" y="521" on="0"/>
        <pt x="595" y="497" on="0"/>
        <pt x="575" y="497" on="1"/>
        <pt x="556" y="497" on="0"/>
        <pt x="532" y="521" on="0"/>
        <pt x="532" y="540" on="1"/>
        <pt x="532" y="560" on="0"/>
        <pt x="556" y="585" on="0"/>
      </contour>
      <contour>
        <pt x="863" y="585" on="1"/>
        <pt x="883" y="585" on="0"/>
        <pt x="908" y="560" on="0"/>
        <pt x="908" y="540" on="1"/>
        <pt x="908" y="521" on="0"/>
        <pt x="883" y="497" on="0"/>
        <pt x="863" y="497" on="1"/>
        <pt x="844" y="497" on="0"/>
        <pt x="820" y="521" on="0"/>
        <pt x="820" y="540" on="1"/>
        <pt x="820" y="560" on="0"/>
        <pt x="844" y="585" on="0"/>
      </contour>
      <contour>
        <pt x="473" y="480" on="1"/>
        <pt x="492" y="480" on="0"/>
        <pt x="514" y="456" on="0"/>
        <pt x="514" y="435" on="1"/>
        <pt x="514" y="416" on="0"/>
        <pt x="491" y="391" on="0"/>
        <pt x="473" y="391" on="1"/>
        <pt x="453" y="391" on="0"/>
        <pt x="427" y="416" on="0"/>
        <pt x="427" y="436" on="1"/>
        <pt x="427" y="455" on="0"/>
        <pt x="453" y="480" on="0"/>
      </contour>
      <contour>
        <pt x="970" y="480" on="1"/>
        <pt x="989" y="480" on="0"/>
        <pt x="1012" y="456" on="0"/>
        <pt x="1012" y="436" on="1"/>
        <pt x="1012" y="415" on="0"/>
        <pt x="990" y="391" on="0"/>
        <pt x="970" y="391" on="1"/>
        <pt x="951" y="391" on="0"/>
        <pt x="925" y="417" on="0"/>
        <pt x="925" y="436" on="1"/>
        <pt x="925" y="455" on="0"/>
        <pt x="951" y="480" on="0"/>
      </contour>
      <contour>
        <pt x="1008" y="339" on="1"/>
        <pt x="1028" y="339" on="0"/>
        <pt x="1051" y="316" on="0"/>
        <pt x="1051" y="295" on="1"/>
        <pt x="1051" y="274" on="0"/>
        <pt x="1028" y="250" on="0"/>
        <pt x="1008" y="250" on="1"/>
        <pt x="989" y="250" on="0"/>
        <pt x="964" y="275" on="0"/>
        <pt x="964" y="295" on="1"/>
        <pt x="964" y="315" on="0"/>
        <pt x="989" y="339" on="0"/>
      </contour>
      <contour>
        <pt x="434" y="339" on="1"/>
        <pt x="454" y="339" on="0"/>
        <pt x="477" y="316" on="0"/>
        <pt x="477" y="295" on="1"/>
        <pt x="477" y="274" on="0"/>
        <pt x="454" y="250" on="0"/>
        <pt x="434" y="250" on="1"/>
        <pt x="414" y="250" on="0"/>
        <pt x="389" y="275" on="0"/>
        <pt x="389" y="295" on="1"/>
        <pt x="389" y="315" on="0"/>
        <pt x="414" y="339" on="0"/>
      </contour>
      <contour>
        <pt x="473" y="198" on="1"/>
        <pt x="492" y="198" on="0"/>
        <pt x="514" y="174" on="0"/>
        <pt x="514" y="154" on="1"/>
        <pt x="514" y="133" on="0"/>
        <pt x="492" y="108" on="0"/>
        <pt x="473" y="108" on="1"/>
        <pt x="453" y="108" on="0"/>
        <pt x="427" y="134" on="0"/>
        <pt x="427" y="154" on="1"/>
        <pt x="427" y="173" on="0"/>
        <pt x="453" y="198" on="0"/>
      </contour>
      <contour>
        <pt x="970" y="198" on="1"/>
        <pt x="989" y="198" on="0"/>
        <pt x="1012" y="174" on="0"/>
        <pt x="1012" y="154" on="1"/>
        <pt x="1012" y="133" on="0"/>
        <pt x="989" y="108" on="0"/>
        <pt x="970" y="108" on="1"/>
        <pt x="950" y="108" on="0"/>
        <pt x="925" y="134" on="0"/>
        <pt x="925" y="154" on="1"/>
        <pt x="925" y="173" on="0"/>
        <pt x="951" y="198" on="0"/>
      </contour>
      <contour>
        <pt x="575" y="93" on="1"/>
        <pt x="595" y="93" on="0"/>
        <pt x="619" y="68" on="0"/>
        <pt x="619" y="48" on="1"/>
        <pt x="619" y="29" on="0"/>
        <pt x="595" y="5" on="0"/>
        <pt x="575" y="5" on="1"/>
        <pt x="556" y="5" on="0"/>
        <pt x="532" y="29" on="0"/>
        <pt x="532" y="48" on="1"/>
        <pt x="532" y="68" on="0"/>
        <pt x="556" y="93" on="0"/>
      </contour>
      <contour>
        <pt x="863" y="93" on="1"/>
        <pt x="883" y="93" on="0"/>
        <pt x="908" y="68" on="0"/>
        <pt x="908" y="48" on="1"/>
        <pt x="908" y="29" on="0"/>
        <pt x="883" y="5" on="0"/>
        <pt x="863" y="5" on="1"/>
        <pt x="844" y="5" on="0"/>
        <pt x="820" y="29" on="0"/>
        <pt x="820" y="48" on="1"/>
        <pt x="820" y="68" on="0"/>
        <pt x="844" y="93" on="0"/>
      </contour>
      <contour>
        <pt x="720" y="54" on="1"/>
        <pt x="740" y="54" on="0"/>
        <pt x="764" y="30" on="0"/>
        <pt x="764" y="9" on="1"/>
        <pt x="764" y="-11" on="0"/>
        <pt x="740" y="-35" on="0"/>
        <pt x="720" y="-35" on="1"/>
        <pt x="700" y="-35" on="0"/>
        <pt x="677" y="-12" on="0"/>
        <pt x="677" y="9" on="1"/>
        <pt x="677" y="30" on="0"/>
        <pt x="700" y="54" on="0"/>
      </contour>
    </TTGlyph>
    <TTGlyph name="bn_aumark" xMin="-83" yMin="-63" xMax="299" yMax="1011">
      <contour>
        <pt x="227" y="470" on="1"/>
        <pt x="227" y="355" on="0"/>
        <pt x="221" y="100" on="0"/>
        <pt x="215" y="-63" on="1"/>
        <pt x="170" y="-63" on="0"/>
        <pt x="74" y="-57" on="0"/>
        <pt x="48" y="-53" on="1"/>
        <pt x="62" y="51" on="0"/>
        <pt x="77" y="254" on="0"/>
        <pt x="80" y="368" on="1"/>
        <pt x="80" y="438" on="0"/>
        <pt x="40" y="498" on="0"/>
        <pt x="0" y="504" on="1"/>
        <pt x="-5" y="517" on="0"/>
        <pt x="-11" y="559" on="0"/>
        <pt x="-11" y="580" on="1"/>
        <pt x="-11" y="599" on="0"/>
        <pt x="-5" y="631" on="0"/>
        <pt x="0" y="639" on="1"/>
        <pt x="37" y="630" on="0"/>
        <pt x="112" y="593" on="0"/>
        <pt x="139" y="570" on="1"/>
        <pt x="151" y="582" on="0"/>
        <pt x="162" y="612" on="0"/>
        <pt x="162" y="631" on="1"/>
        <pt x="162" y="651" on="0"/>
        <pt x="132" y="686" on="0"/>
        <pt x="52" y="739" on="1"/>
        <pt x="-27" y="790" on="0"/>
        <pt x="-83" y="874" on="0"/>
        <pt x="-83" y="928" on="1"/>
        <pt x="-83" y="942" on="0"/>
        <pt x="-79" y="976" on="0"/>
        <pt x="-75" y="996" on="1"/>
        <pt x="-50" y="1004" on="0"/>
        <pt x="7" y="1011" on="0"/>
        <pt x="44" y="1010" on="1"/>
        <pt x="41" y="994" on="0"/>
        <pt x="38" y="968" on="0"/>
        <pt x="38" y="957" on="1"/>
        <pt x="38" y="920" on="0"/>
        <pt x="75" y="867" on="0"/>
        <pt x="124" y="837" on="1"/>
        <pt x="185" y="800" on="0"/>
        <pt x="239" y="721" on="0"/>
        <pt x="239" y="670" on="1"/>
        <pt x="239" y="658" on="0"/>
        <pt x="236" y="636" on="0"/>
        <pt x="234" y="625" on="1"/>
        <pt x="249" y="630" on="0"/>
        <pt x="276" y="637" on="0"/>
        <pt x="288" y="639" on="1"/>
        <pt x="293" y="632" on="0"/>
        <pt x="299" y="603" on="0"/>
        <pt x="299" y="583" on="1"/>
        <pt x="299" y="562" on="0"/>
        <pt x="293" y="519" on="0"/>
        <pt x="288" y="504" on="1"/>
        <pt x="269" y="500" on="0"/>
        <pt x="238" y="483" on="0"/>
      </contour>
    </TTGlyph>
    <TTGlyph name="bn_aumark_reph" xMin="-87" yMin="-63" xMax="308" yMax="1101">
      <component glyphName="bn_aumark" x="0" y="0" flags="0x204"/>
      <component glyphName="bn_reph" x="130" y="0" flags="0x4"/>
    </TTGlyph>
    <TTGlyph name="bn_avagraha" xMin="24" yMin="-50" xMax="521" yMax="683">
      <contour>
        <pt x="172" y="474" on="1"/>
        <pt x="172" y="461" on="0"/>
        <pt x="196" y="444" on="0"/>
        <pt x="215" y="444" on="1"/>
        <pt x="239" y="444" on="0"/>
        <pt x="271" y="469" on="0"/>
        <pt x="272" y="488" on="1"/>
        <pt x="261" y="495" on="0"/>
        <pt x="234" y="503" on="0"/>
        <pt x="220" y="503" on="1"/>
        <pt x="197" y="503" on="0"/>
        <pt x="172" y="487" on="0"/>
      </contour>
      <contour>
        <pt x="521" y="38" on="1"/>
        <pt x="501" y="12" on="0"/>
        <pt x="459" y="-32" on="0"/>
        <pt x="437" y="-50" on="1"/>
        <pt x="342" y="45" on="0"/>
        <pt x="146" y="171" on="0"/>
        <pt x="44" y="204" on="1"/>
        <pt x="24" y="379" on="1"/>
        <pt x="69" y="359" on="0"/>
        <pt x="169" y="337" on="0"/>
        <pt x="215" y="337" on="1"/>
        <pt x="262" y="337" on="0"/>
        <pt x="313" y="362" on="0"/>
        <pt x="318" y="388" on="1"/>
        <pt x="305" y="378" on="0"/>
        <pt x="269" y="369" on="0"/>
        <pt x="246" y="369" on="1"/>
        <pt x="172" y="369" on="0"/>
        <pt x="73" y="440" on="0"/>
        <pt x="73" y="501" on="1"/>
        <pt x="73" y="547" on="0"/>
        <pt x="140" y="600" on="0"/>
        <pt x="195" y="600" on="1"/>
        <pt x="219" y="600" on="0"/>
        <pt x="268" y="589" on="0"/>
        <pt x="291" y="578" on="1"/>
        <pt x="298" y="604" on="0"/>
        <pt x="309" y="658" on="0"/>
        <pt x="312" y="683" on="1"/>
        <pt x="345" y="680" on="0"/>
        <pt x="413" y="659" on="0"/>
        <pt x="435" y="645" on="1"/>
        <pt x="428" y="605" on="0"/>
        <pt x="409" y="530" on="0"/>
        <pt x="397" y="494" on="1"/>
        <pt x="424" y="460" on="0"/>
        <pt x="454" y="382" on="0"/>
        <pt x="454" y="344" on="1"/>
        <pt x="454" y="285" on="0"/>
        <pt x="380" y="209" on="0"/>
        <pt x="311" y="196" on="1"/>
        <pt x="360" y="163" on="0"/>
        <pt x="464" y="84" on="0"/>
      </contour>
    </TTGlyph>
    <TTGlyph name="bn_b_ba" xMin="-11" yMin="-37" xMax="966" yMax="680">
      <contour>
        <pt x="782" y="527" on="1"/>
        <pt x="713" y="534" on="0"/>
        <pt x="582" y="541" on="0"/>
        <pt x="520" y="541" on="1"/>
        <pt x="467" y="541" on="1"/>
        <pt x="462" y="482" on="0"/>
        <pt x="457" y="373" on="0"/>
        <pt x="456" y="322" on="1"/>
        <pt x="516" y="383" on="0"/>
        <pt x="676" y="478" on="0"/>
        <pt x="779" y="514" on="1"/>
        <pt x="780" y="517" on="0"/>
        <pt x="781" y="522" on="0"/>
      </contour>
      <contour>
        <pt x="886" y="303" on="1"/>
        <pt x="886" y="198" on="0"/>
        <pt x="900" y="47" on="0"/>
        <pt x="914" y="-4" on="1"/>
        <pt x="885" y="-20" on="0"/>
        <pt x="795" y="-37" on="0"/>
        <pt x="747" y="-37" on="1"/>
        <pt x="705" y="34" on="0"/>
        <pt x="589" y="119" on="0"/>
        <pt x="514" y="135" on="1"/>
        <pt x="492" y="169" on="0"/>
        <pt x="463" y="231" on="0"/>
        <pt x="456" y="263" on="1"/>
        <pt x="458" y="172" on="0"/>
        <pt x="471" y="42" on="0"/>
        <pt x="484" y="-4" on="1"/>
        <pt x="455" y="-20" on="0"/>
        <pt x="365" y="-37" on="0"/>
        <pt x="317" y="-37" on="1"/>
        <pt x="275" y="34" on="0"/>
        <pt x="159" y="119" on="0"/>
        <pt x="84" y="135" on="1"/>
        <pt x="53" y="183" on="0"/>
        <pt x="22" y="268" on="0"/>
        <pt x="19" y="315" on="1"/>
        <pt x="80" y="378" on="0"/>
        <pt x="243" y="476" on="0"/>
        <pt x="349" y="514" on="1"/>
        <pt x="350" y="518" on="0"/>
        <pt x="353" y="533" on="0"/>
        <pt x="354" y="537" on="1"/>
        <pt x="258" y="533" on="0"/>
        <pt x="70" y="515" on="0"/>
        <pt x="0" y="504" on="1"/>
        <pt x="-5" y="517" on="0"/>
        <pt x="-11" y="558" on="0"/>
        <pt x="-11" y="578" on="1"/>
        <pt x="-11" y="598" on="0"/>
        <pt x="-5" y="632" on="0"/>
        <pt x="0" y="639" on="1"/>
        <pt x="88" y="657" on="0"/>
        <pt x="374" y="680" on="0"/>
        <pt x="520" y="680" on="1"/>
        <pt x="629" y="680" on="0"/>
        <pt x="863" y="657" on="0"/>
        <pt x="955" y="639" on="1"/>
        <pt x="960" y="632" on="0"/>
        <pt x="966" y="598" on="0"/>
        <pt x="966" y="578" on="1"/>
        <pt x="966" y="558" on="0"/>
        <pt x="960" y="517" on="0"/>
        <pt x="955" y="504" on="1"/>
        <pt x="943" y="506" on="0"/>
        <pt x="914" y="511" on="0"/>
        <pt x="896" y="513" on="1"/>
        <pt x="891" y="455" on="0"/>
        <pt x="886" y="351" on="0"/>
      </contour>
      <contour>
        <pt x="740" y="100" on="1"/>
        <pt x="740" y="107" on="1"/>
        <pt x="740" y="174" on="0"/>
        <pt x="744" y="273" on="0"/>
        <pt x="749" y="316" on="1"/>
        <pt x="712" y="299" on="0"/>
        <pt x="640" y="255" on="0"/>
        <pt x="609" y="229" on="1"/>
        <pt x="650" y="202" on="0"/>
        <pt x="717" y="136" on="0"/>
      </contour>
      <contour>
        <pt x="310" y="100" on="1"/>
        <pt x="310" y="107" on="1"/>
        <pt x="310" y="174" on="0"/>
        <pt x="314" y="273" on="0"/>
        <pt x="319" y="316" on="1"/>
        <pt x="282" y="299" on="0"/>
        <pt x="210" y="255" on="0"/>
        <pt x="179" y="229" on="1"/>
        <pt x="220" y="202" on="0"/>
        <pt x="287" y="136" on="0"/>
      </contour>
    </TTGlyph>
    <TTGlyph name="bn_b_bha" xMin="-11" yMin="-260" xMax="661" yMax="670">
      <contour>
        <pt x="432" y="213" on="1"/>
        <pt x="432" y="233" on="1"/>
        <pt x="432" y="278" on="0"/>
        <pt x="434" y="348" on="0"/>
        <pt x="436" y="378" on="1"/>
        <pt x="385" y="356" on="0"/>
        <pt x="316" y="323" on="0"/>
        <pt x="289" y="308" on="1"/>
        <pt x="326" y="289" on="0"/>
        <pt x="397" y="242" on="0"/>
      </contour>
      <contour>
        <pt x="610" y="-64" on="1"/>
        <pt x="610" y="-154" on="0"/>
        <pt x="489" y="-260" on="0"/>
        <pt x="385" y="-260" on="1"/>
        <pt x="313" y="-260" on="0"/>
        <pt x="185" y="-191" on="0"/>
        <pt x="134" y="-125" on="1"/>
        <pt x="90" y="-67" on="0"/>
        <pt x="34" y="78" on="0"/>
        <pt x="28" y="148" on="1"/>
        <pt x="52" y="159" on="0"/>
        <pt x="103" y="177" on="0"/>
        <pt x="131" y="185" on="1"/>
        <pt x="151" y="56" on="0"/>
        <pt x="301" y="-124" on="0"/>
        <pt x="391" y="-124" on="1"/>
        <pt x="443" y="-124" on="0"/>
        <pt x="501" y="-79" on="0"/>
        <pt x="505" y="-34" on="1"/>
        <pt x="477" y="-58" on="0"/>
        <pt x="416" y="-82" on="0"/>
        <pt x="384" y="-82" on="1"/>
        <pt x="312" y="-82" on="0"/>
        <pt x="208" y="4" on="0"/>
        <pt x="208" y="64" on="1"/>
        <pt x="208" y="99" on="0"/>
        <pt x="253" y="155" on="0"/>
        <pt x="289" y="167" on="1"/>
        <pt x="317" y="165" on="0"/>
        <pt x="375" y="128" on="0"/>
        <pt x="388" y="105" on="1"/>
        <pt x="361" y="101" on="0"/>
        <pt x="313" y="60" on="0"/>
        <pt x="313" y="41" on="1"/>
        <pt x="313" y="35" on="0"/>
        <pt x="324" y="27" on="0"/>
        <pt x="334" y="27" on="1"/>
        <pt x="351" y="27" on="0"/>
        <pt x="402" y="55" on="0"/>
        <pt x="436" y="83" on="1"/>
        <pt x="436" y="90" on="1"/>
        <pt x="395" y="153" on="0"/>
        <pt x="249" y="229" on="0"/>
        <pt x="164" y="232" on="1"/>
        <pt x="140" y="268" on="0"/>
        <pt x="118" y="328" on="0"/>
        <pt x="116" y="362" on="1"/>
        <pt x="173" y="404" on="0"/>
        <pt x="338" y="488" on="0"/>
        <pt x="439" y="527" on="1"/>
        <pt x="413" y="529" on="0"/>
        <pt x="355" y="531" on="0"/>
        <pt x="323" y="531" on="1"/>
        <pt x="244" y="531" on="0"/>
        <pt x="68" y="516" on="0"/>
        <pt x="0" y="504" on="1"/>
        <pt x="-5" y="518" on="0"/>
        <pt x="-11" y="560" on="0"/>
        <pt x="-11" y="581" on="1"/>
        <pt x="-11" y="599" on="0"/>
        <pt x="-5" y="629" on="0"/>
        <pt x="0" y="639" on="1"/>
        <pt x="63" y="653" on="0"/>
        <pt x="239" y="670" on="0"/>
        <pt x="323" y="670" on="1"/>
        <pt x="407" y="670" on="0"/>
        <pt x="587" y="653" on="0"/>
        <pt x="650" y="639" on="1"/>
        <pt x="655" y="630" on="0"/>
        <pt x="661" y="600" on="0"/>
        <pt x="661" y="580" on="1"/>
        <pt x="661" y="560" on="0"/>
        <pt x="655" y="518" on="0"/>
        <pt x="650" y="504" on="1"/>
        <pt x="635" y="507" on="0"/>
        <pt x="579" y="515" on="0"/>
        <pt x="576" y="515" on="1"/>
        <pt x="573" y="480" on="0"/>
        <pt x="570" y="407" on="0"/>
        <pt x="570" y="367" on="1"/>
        <pt x="570" y="172" on="0"/>
        <pt x="577" y="84" on="0"/>
        <pt x="584" y="52" on="1"/>
        <pt x="597" y="24" on="0"/>
        <pt x="610" y="-35" on="0"/>
      </contour>
    </TTGlyph>
    <TTGlyph name="bn_b_da" xMin="-11" yMin="-47" xMax="791" yMax="673">
      <contour>
        <pt x="684" y="137" on="1"/>
        <pt x="684" y="101" on="0"/>
        <pt x="691" y="24" on="0"/>
        <pt x="699" y="-17" on="1"/>
        <pt x="680" y="-28" on="0"/>
        <pt x="597" y="-47" on="0"/>
        <pt x="570" y="-47" on="1"/>
        <pt x="564" y="-13" on="0"/>
        <pt x="557" y="55" on="0"/>
        <pt x="557" y="87" on="1"/>
        <pt x="557" y="140" on="0"/>
        <pt x="571" y="247" on="0"/>
        <pt x="585" y="296" on="1"/>
        <pt x="533" y="253" on="0"/>
        <pt x="439" y="147" on="0"/>
        <pt x="408" y="94" on="1"/>
        <pt x="386" y="97" on="0"/>
        <pt x="328" y="126" on="0"/>
        <pt x="284" y="158" on="1"/>
        <pt x="278" y="208" on="0"/>
        <pt x="193" y="266" on="0"/>
        <pt x="122" y="268" on="1"/>
        <pt x="98" y="304" on="0"/>
        <pt x="76" y="364" on="0"/>
        <pt x="74" y="398" on="1"/>
        <pt x="120" y="432" on="0"/>
        <pt x="247" y="502" on="0"/>
        <pt x="321" y="533" on="1"/>
        <pt x="229" y="531" on="0"/>
        <pt x="64" y="516" on="0"/>
        <pt x="0" y="504" on="1"/>
        <pt x="-5" y="517" on="0"/>
        <pt x="-11" y="558" on="0"/>
        <pt x="-11" y="578" on="1"/>
        <pt x="-11" y="598" on="0"/>
        <pt x="-5" y="632" on="0"/>
        <pt x="0" y="639" on="1"/>
        <pt x="69" y="655" on="0"/>
        <pt x="272" y="673" on="0"/>
        <pt x="388" y="673" on="1"/>
        <pt x="508" y="673" on="0"/>
        <pt x="721" y="655" on="0"/>
        <pt x="781" y="639" on="1"/>
        <pt x="786" y="627" on="0"/>
        <pt x="791" y="594" on="0"/>
        <pt x="791" y="576" on="1"/>
        <pt x="791" y="558" on="0"/>
        <pt x="786" y="520" on="0"/>
        <pt x="781" y="504" on="1"/>
        <pt x="724" y="515" on="0"/>
        <pt x="560" y="530" on="0"/>
        <pt x="469" y="533" on="1"/>
        <pt x="470" y="526" on="0"/>
        <pt x="470" y="509" on="0"/>
        <pt x="470" y="492" on="1"/>
        <pt x="470" y="465" on="0"/>
        <pt x="468" y="404" on="0"/>
        <pt x="465" y="366" on="1"/>
        <pt x="498" y="400" on="0"/>
        <pt x="566" y="455" on="0"/>
        <pt x="601" y="476" on="1"/>
        <pt x="630" y="465" on="0"/>
        <pt x="680" y="421" on="0"/>
        <pt x="719" y="368" on="1"/>
        <pt x="701" y="306" on="0"/>
        <pt x="684" y="193" on="0"/>
      </contour>
      <contour>
        <pt x="239" y="341" on="1"/>
        <pt x="262" y="323" on="0"/>
        <pt x="299" y="279" on="0"/>
        <pt x="311" y="255" on="1"/>
        <pt x="319" y="288" on="0"/>
        <pt x="333" y="357" on="0"/>
        <pt x="338" y="392" on="1"/>
        <pt x="312" y="380" on="0"/>
        <pt x="262" y="355" on="0"/>
      </contour>
    </TTGlyph>
    <TTGlyph name="bn_b_da_ukaar" xMin="-11" yMin="-37" xMax="717" yMax="674">
      <contour>
        <pt x="310" y="100" on="1"/>
        <pt x="310" y="107" on="1"/>
        <pt x="310" y="174" on="0"/>
        <pt x="314" y="273" on="0"/>
        <pt x="319" y="316" on="1"/>
        <pt x="282" y="299" on="0"/>
        <pt x="210" y="255" on="0"/>
        <pt x="179" y="229" on="1"/>
        <pt x="220" y="202" on="0"/>
        <pt x="287" y="136" on="0"/>
      </contour>
      <contour>
        <pt x="458" y="189" on="1"/>
        <pt x="461" y="127" on="0"/>
        <pt x="474" y="32" on="0"/>
        <pt x="484" y="-4" on="1"/>
        <pt x="455" y="-20" on="0"/>
        <pt x="365" y="-37" on="0"/>
        <pt x="317" y="-37" on="1"/>
        <pt x="275" y="34" on="0"/>
        <pt x="159" y="119" on="0"/>
        <pt x="84" y="135" on="1"/>
        <pt x="53" y="183" on="0"/>
        <pt x="22" y="268" on="0"/>
        <pt x="19" y="315" on="1"/>
        <pt x="80" y="378" on="0"/>
        <pt x="243" y="476" on="0"/>
        <pt x="349" y="514" on="1"/>
        <pt x="350" y="518" on="0"/>
        <pt x="353" y="532" on="0"/>
        <pt x="354" y="535" on="1"/>
        <pt x="347" y="535" on="1"/>
        <pt x="260" y="535" on="0"/>
        <pt x="66" y="517" on="0"/>
        <pt x="0" y="504" on="1"/>
        <pt x="-5" y="518" on="0"/>
        <pt x="-11" y="558" on="0"/>
        <pt x="-11" y="577" on="1"/>
        <pt x="-11" y="596" on="0"/>
        <pt x="-5" y="630" on="0"/>
        <pt x="0" y="639" on="1"/>
        <pt x="60" y="654" on="0"/>
        <pt x="259" y="674" on="0"/>
        <pt x="351" y="674" on="1"/>
        <pt x="446" y="674" on="0"/>
        <pt x="655" y="653" on="0"/>
        <pt x="707" y="639" on="1"/>
        <pt x="711" y="629" on="0"/>
        <pt x="717" y="594" on="0"/>
        <pt x="717" y="577" on="1"/>
        <pt x="717" y="559" on="0"/>
        <pt x="711" y="517" on="0"/>
        <pt x="707" y="504" on="1"/>
        <pt x="667" y="512" on="0"/>
        <pt x="533" y="528" on="0"/>
        <pt x="461" y="532" on="1"/>
        <pt x="467" y="530" on="1"/>
        <pt x="463" y="475" on="0"/>
        <pt x="457" y="381" on="0"/>
        <pt x="456" y="337" on="1"/>
        <pt x="464" y="297" on="0"/>
        <pt x="520" y="246" on="0"/>
        <pt x="549" y="246" on="1"/>
        <pt x="571" y="246" on="0"/>
        <pt x="599" y="282" on="0"/>
        <pt x="599" y="307" on="1"/>
        <pt x="599" y="324" on="0"/>
        <pt x="588" y="340" on="0"/>
        <pt x="577" y="340" on="1"/>
        <pt x="567" y="340" on="0"/>
        <pt x="536" y="310" on="0"/>
        <pt x="523" y="289" on="1"/>
        <pt x="509" y="321" on="0"/>
        <pt x="492" y="412" on="0"/>
        <pt x="493" y="457" on="1"/>
        <pt x="503" y="469" on="0"/>
        <pt x="537" y="482" on="0"/>
        <pt x="558" y="482" on="1"/>
        <pt x="618" y="482" on="0"/>
        <pt x="692" y="372" on="0"/>
        <pt x="692" y="279" on="1"/>
        <pt x="692" y="189" on="0"/>
        <pt x="630" y="80" on="0"/>
        <pt x="579" y="80" on="1"/>
        <pt x="539" y="80" on="0"/>
        <pt x="479" y="134" on="0"/>
      </contour>
    </TTGlyph>
    <TTGlyph name="bn_b_da_uukaar" xMin="-11" yMin="-37" xMax="717" yMax="674">
      <contour>
        <pt x="310" y="100" on="1"/>
        <pt x="310" y="107" on="1"/>
        <pt x="310" y="174" on="0"/>
        <pt x="314" y="273" on="0"/>
        <pt x="319" y="316" on="1"/>
        <pt x="282" y="299" on="0"/>
        <pt x="210" y="255" on="0"/>
        <pt x="179" y="229" on="1"/>
        <pt x="220" y="202" on="0"/>
        <pt x="287" y="136" on="0"/>
      </contour>
      <contour>
        <pt x="456" y="257" on="1"/>
        <pt x="458" y="168" on="0"/>
        <pt x="471" y="40" on="0"/>
        <pt x="484" y="-4" on="1"/>
        <pt x="455" y="-20" on="0"/>
        <pt x="365" y="-37" on="0"/>
        <pt x="317" y="-37" on="1"/>
        <pt x="275" y="34" on="0"/>
        <pt x="159" y="119" on="0"/>
        <pt x="84" y="135" on="1"/>
        <pt x="53" y="183" on="0"/>
        <pt x="22" y="268" on="0"/>
        <pt x="19" y="315" on="1"/>
        <pt x="80" y="378" on="0"/>
        <pt x="243" y="476" on="0"/>
        <pt x="349" y="514" on="1"/>
        <pt x="350" y="518" on="0"/>
        <pt x="353" y="532" on="0"/>
        <pt x="354" y="535" on="1"/>
        <pt x="347" y="535" on="1"/>
        <pt x="260" y="535" on="0"/>
        <pt x="66" y="517" on="0"/>
        <pt x="0" y="504" on="1"/>
        <pt x="-5" y="518" on="0"/>
        <pt x="-11" y="558" on="0"/>
        <pt x="-11" y="577" on="1"/>
        <pt x="-11" y="596" on="0"/>
        <pt x="-5" y="630" on="0"/>
        <pt x="0" y="639" on="1"/>
        <pt x="60" y="654" on="0"/>
        <pt x="259" y="674" on="0"/>
        <pt x="351" y="674" on="1"/>
        <pt x="446" y="674" on="0"/>
        <pt x="655" y="653" on="0"/>
        <pt x="707" y="639" on="1"/>
        <pt x="711" y="629" on="0"/>
        <pt x="717" y="594" on="0"/>
        <pt x="717" y="577" on="1"/>
        <pt x="717" y="559" on="0"/>
        <pt x="711" y="517" on="0"/>
        <pt x="707" y="504" on="1"/>
        <pt x="667" y="512" on="0"/>
        <pt x="533" y="528" on="0"/>
        <pt x="461" y="532" on="1"/>
        <pt x="467" y="530" on="1"/>
        <pt x="463" y="473" on="0"/>
        <pt x="460" y="426" on="0"/>
        <pt x="459" y="405" on="1"/>
        <pt x="467" y="408" on="0"/>
        <pt x="484" y="416" on="0"/>
        <pt x="501" y="423" on="1"/>
        <pt x="531" y="437" on="0"/>
        <pt x="562" y="449" on="0"/>
        <pt x="576" y="453" on="1"/>
        <pt x="662" y="344" on="1"/>
        <pt x="661" y="338" on="0"/>
        <pt x="660" y="326" on="0"/>
        <pt x="658" y="314" on="1"/>
        <pt x="655" y="295" on="0"/>
        <pt x="653" y="276" on="0"/>
        <pt x="653" y="268" on="1"/>
        <pt x="653" y="210" on="0"/>
        <pt x="669" y="122" on="0"/>
        <pt x="687" y="80" on="1"/>
        <pt x="661" y="71" on="0"/>
        <pt x="589" y="61" on="0"/>
        <pt x="552" y="61" on="1"/>
        <pt x="544" y="94" on="0"/>
        <pt x="537" y="170" on="0"/>
        <pt x="537" y="228" on="1"/>
        <pt x="537" y="241" on="0"/>
        <pt x="539" y="272" on="0"/>
        <pt x="542" y="291" on="1"/>
        <pt x="534" y="288" on="0"/>
        <pt x="514" y="280" on="0"/>
        <pt x="494" y="272" on="1"/>
        <pt x="478" y="266" on="0"/>
        <pt x="463" y="260" on="0"/>
      </contour>
    </TTGlyph>
    <TTGlyph name="bn_b_dha" xMin="-11" yMin="-147" xMax="691" yMax="673">
      <contour>
        <pt x="220" y="301" on="1"/>
        <pt x="265" y="276" on="0"/>
        <pt x="286" y="263" on="0"/>
        <pt x="294" y="258" on="1"/>
        <pt x="302" y="262" on="0"/>
        <pt x="336" y="277" on="0"/>
        <pt x="363" y="288" on="1"/>
        <pt x="363" y="321" on="0"/>
        <pt x="363" y="351" on="0"/>
        <pt x="362" y="364" on="1"/>
        <pt x="336" y="357" on="0"/>
        <pt x="257" y="322" on="0"/>
      </contour>
      <contour>
        <pt x="532" y="-137" on="1"/>
        <pt x="523" y="-84" on="0"/>
        <pt x="514" y="34" on="0"/>
        <pt x="514" y="98" on="1"/>
        <pt x="514" y="127" on="0"/>
        <pt x="515" y="180" on="0"/>
        <pt x="517" y="207" on="1"/>
        <pt x="505" y="203" on="0"/>
        <pt x="481" y="194" on="0"/>
        <pt x="469" y="189" on="1"/>
        <pt x="463" y="85" on="0"/>
        <pt x="438" y="-96" on="0"/>
        <pt x="423" y="-147" on="1"/>
        <pt x="386" y="-147" on="0"/>
        <pt x="301" y="-132" on="0"/>
        <pt x="275" y="-120" on="1"/>
        <pt x="249" y="-68" on="0"/>
        <pt x="176" y="0" on="0"/>
        <pt x="133" y="10" on="1"/>
        <pt x="109" y="46" on="0"/>
        <pt x="87" y="106" on="0"/>
        <pt x="85" y="140" on="1"/>
        <pt x="110" y="158" on="0"/>
        <pt x="169" y="195" on="0"/>
        <pt x="202" y="213" on="1"/>
        <pt x="188" y="218" on="0"/>
        <pt x="154" y="228" on="0"/>
        <pt x="119" y="237" on="1"/>
        <pt x="95" y="276" on="0"/>
        <pt x="73" y="338" on="0"/>
        <pt x="71" y="372" on="1"/>
        <pt x="109" y="401" on="0"/>
        <pt x="272" y="483" on="0"/>
        <pt x="344" y="508" on="1"/>
        <pt x="343" y="512" on="0"/>
        <pt x="338" y="530" on="0"/>
        <pt x="336" y="534" on="1"/>
        <pt x="334" y="534" on="1"/>
        <pt x="249" y="534" on="0"/>
        <pt x="79" y="519" on="0"/>
        <pt x="0" y="504" on="1"/>
        <pt x="-5" y="517" on="0"/>
        <pt x="-11" y="558" on="0"/>
        <pt x="-11" y="578" on="1"/>
        <pt x="-11" y="598" on="0"/>
        <pt x="-5" y="632" on="0"/>
        <pt x="0" y="639" on="1"/>
        <pt x="70" y="655" on="0"/>
        <pt x="247" y="673" on="0"/>
        <pt x="338" y="673" on="1"/>
        <pt x="433" y="673" on="0"/>
        <pt x="622" y="654" on="0"/>
        <pt x="681" y="639" on="1"/>
        <pt x="686" y="627" on="0"/>
        <pt x="691" y="594" on="0"/>
        <pt x="691" y="576" on="1"/>
        <pt x="691" y="558" on="0"/>
        <pt x="686" y="520" on="0"/>
        <pt x="681" y="504" on="1"/>
        <pt x="636" y="513" on="0"/>
        <pt x="515" y="527" on="0"/>
        <pt x="448" y="531" on="1"/>
        <pt x="457" y="495" on="0"/>
        <pt x="468" y="396" on="0"/>
        <pt x="470" y="338" on="1"/>
        <pt x="504" y="352" on="0"/>
        <pt x="526" y="360" on="0"/>
        <pt x="536" y="363" on="1"/>
        <pt x="634" y="251" on="1"/>
        <pt x="632" y="228" on="0"/>
        <pt x="630" y="181" on="0"/>
        <pt x="630" y="156" on="1"/>
        <pt x="630" y="81" on="0"/>
        <pt x="648" y="-50" on="0"/>
        <pt x="667" y="-113" on="1"/>
        <pt x="642" y="-124" on="0"/>
        <pt x="571" y="-137" on="0"/>
      </contour>
      <contour>
        <pt x="231" y="71" on="1"/>
        <pt x="255" y="50" on="0"/>
        <pt x="294" y="-2" on="0"/>
        <pt x="307" y="-32" on="1"/>
        <pt x="319" y="13" on="0"/>
        <pt x="340" y="96" on="0"/>
        <pt x="347" y="133" on="1"/>
        <pt x="316" y="119" on="0"/>
        <pt x="258" y="88" on="0"/>
      </contour>
    </TTGlyph>
    <TTGlyph name="bn_b_ja" xMin="-11" yMin="-39" xMax="770" yMax="677">
      <contour>
        <pt x="529" y="320" on="1"/>
        <pt x="537" y="294" on="0"/>
        <pt x="546" y="233" on="0"/>
        <pt x="546" y="202" on="1"/>
        <pt x="546" y="90" on="0"/>
        <pt x="441" y="-39" on="0"/>
        <pt x="349" y="-39" on="1"/>
        <pt x="232" y="-39" on="0"/>
        <pt x="68" y="112" on="0"/>
        <pt x="41" y="234" on="1"/>
        <pt x="64" y="246" on="0"/>
        <pt x="117" y="267" on="0"/>
        <pt x="146" y="276" on="1"/>
        <pt x="163" y="207" on="0"/>
        <pt x="284" y="120" on="0"/>
        <pt x="360" y="120" on="1"/>
        <pt x="402" y="120" on="0"/>
        <pt x="448" y="175" on="0"/>
        <pt x="452" y="229" on="1"/>
        <pt x="424" y="211" on="0"/>
        <pt x="384" y="197" on="0"/>
        <pt x="363" y="197" on="1"/>
        <pt x="333" y="197" on="0"/>
        <pt x="276" y="223" on="0"/>
        <pt x="254" y="246" on="1"/>
        <pt x="219" y="276" on="0"/>
        <pt x="104" y="304" on="0"/>
        <pt x="33" y="300" on="1"/>
        <pt x="21" y="324" on="0"/>
        <pt x="7" y="383" on="0"/>
        <pt x="5" y="420" on="1"/>
        <pt x="43" y="448" on="0"/>
        <pt x="146" y="504" on="0"/>
        <pt x="209" y="532" on="1"/>
        <pt x="154" y="528" on="0"/>
        <pt x="48" y="514" on="0"/>
        <pt x="0" y="504" on="1"/>
        <pt x="-5" y="517" on="0"/>
        <pt x="-11" y="560" on="0"/>
        <pt x="-11" y="581" on="1"/>
        <pt x="-11" y="599" on="0"/>
        <pt x="-5" y="630" on="0"/>
        <pt x="0" y="639" on="1"/>
        <pt x="73" y="657" on="0"/>
        <pt x="273" y="677" on="0"/>
        <pt x="379" y="677" on="1"/>
        <pt x="489" y="677" on="0"/>
        <pt x="698" y="656" on="0"/>
        <pt x="760" y="639" on="1"/>
        <pt x="765" y="629" on="0"/>
        <pt x="770" y="597" on="0"/>
        <pt x="770" y="577" on="1"/>
        <pt x="770" y="556" on="0"/>
        <pt x="765" y="517" on="0"/>
        <pt x="760" y="504" on="1"/>
        <pt x="703" y="516" on="0"/>
        <pt x="546" y="533" on="0"/>
        <pt x="463" y="536" on="1"/>
        <pt x="483" y="508" on="0"/>
        <pt x="543" y="479" on="0"/>
        <pt x="580" y="479" on="1"/>
        <pt x="597" y="479" on="0"/>
        <pt x="626" y="486" on="0"/>
        <pt x="647" y="496" on="1"/>
        <pt x="676" y="478" on="0"/>
        <pt x="723" y="415" on="0"/>
        <pt x="737" y="375" on="1"/>
        <pt x="719" y="320" on="0"/>
        <pt x="702" y="208" on="0"/>
        <pt x="702" y="151" on="1"/>
        <pt x="702" y="111" on="0"/>
        <pt x="710" y="29" on="0"/>
        <pt x="718" y="-13" on="1"/>
        <pt x="700" y="-20" on="0"/>
        <pt x="614" y="-33" on="0"/>
        <pt x="586" y="-33" on="1"/>
        <pt x="580" y="-1" on="0"/>
        <pt x="574" y="72" on="0"/>
        <pt x="574" y="112" on="1"/>
        <pt x="574" y="168" on="0"/>
        <pt x="597" y="293" on="0"/>
        <pt x="617" y="344" on="1"/>
        <pt x="537" y="349" on="0"/>
        <pt x="403" y="448" on="0"/>
        <pt x="374" y="524" on="1"/>
        <pt x="346" y="479" on="0"/>
        <pt x="304" y="369" on="0"/>
        <pt x="304" y="346" on="1"/>
        <pt x="304" y="336" on="0"/>
        <pt x="313" y="325" on="0"/>
        <pt x="321" y="325" on="1"/>
        <pt x="336" y="325" on="0"/>
        <pt x="384" y="367" on="0"/>
        <pt x="403" y="397" on="1"/>
        <pt x="433" y="383" on="0"/>
        <pt x="501" y="341" on="0"/>
      </contour>
      <contour>
        <pt x="205" y="337" on="1"/>
        <pt x="202" y="349" on="0"/>
        <pt x="199" y="375" on="0"/>
        <pt x="199" y="388" on="1"/>
        <pt x="199" y="398" on="0"/>
        <pt x="199" y="409" on="0"/>
        <pt x="200" y="414" on="1"/>
        <pt x="179" y="404" on="0"/>
        <pt x="147" y="388" on="0"/>
        <pt x="134" y="380" on="1"/>
        <pt x="149" y="373" on="0"/>
        <pt x="184" y="351" on="0"/>
      </contour>
    </TTGlyph>
    <TTGlyph name="bn_b_la" xMin="-49" yMin="-245" xMax="536" yMax="670">
      <contour>
        <pt x="177" y="244" on="1"/>
        <pt x="215" y="219" on="0"/>
        <pt x="278" y="160" on="0"/>
        <pt x="302" y="126" on="1"/>
        <pt x="302" y="176" on="0"/>
        <pt x="304" y="272" on="0"/>
        <pt x="307" y="326" on="1"/>
        <pt x="274" y="311" on="0"/>
        <pt x="207" y="269" on="0"/>
      </contour>
      <contour>
        <pt x="78" y="-143" on="1"/>
        <pt x="91" y="-143" on="0"/>
        <pt x="117" y="-139" on="0"/>
        <pt x="128" y="-135" on="1"/>
        <pt x="128" y="-165" on="0"/>
        <pt x="112" y="-227" on="0"/>
        <pt x="99" y="-245" on="1"/>
        <pt x="29" y="-238" on="0"/>
        <pt x="-49" y="-164" on="0"/>
        <pt x="-49" y="-103" on="1"/>
        <pt x="-49" y="-39" on="0"/>
        <pt x="16" y="45" on="0"/>
        <pt x="66" y="45" on="1"/>
        <pt x="89" y="45" on="0"/>
        <pt x="133" y="13" on="0"/>
        <pt x="150" y="-17" on="1"/>
        <pt x="159" y="14" on="0"/>
        <pt x="192" y="47" on="0"/>
        <pt x="214" y="47" on="1"/>
        <pt x="240" y="47" on="0"/>
        <pt x="281" y="17" on="0"/>
        <pt x="298" y="-13" on="1"/>
        <pt x="275" y="49" on="0"/>
        <pt x="167" y="131" on="0"/>
        <pt x="84" y="150" on="1"/>
        <pt x="53" y="197" on="0"/>
        <pt x="21" y="284" on="0"/>
        <pt x="18" y="331" on="1"/>
        <pt x="74" y="388" on="0"/>
        <pt x="224" y="478" on="0"/>
        <pt x="324" y="514" on="1"/>
        <pt x="324" y="516" on="0"/>
        <pt x="325" y="527" on="0"/>
        <pt x="325" y="530" on="1"/>
        <pt x="317" y="531" on="0"/>
        <pt x="297" y="531" on="0"/>
        <pt x="278" y="531" on="1"/>
        <pt x="214" y="531" on="0"/>
        <pt x="73" y="517" on="0"/>
        <pt x="0" y="504" on="1"/>
        <pt x="-5" y="520" on="0"/>
        <pt x="-11" y="560" on="0"/>
        <pt x="-11" y="579" on="1"/>
        <pt x="-11" y="598" on="0"/>
        <pt x="-6" y="628" on="0"/>
        <pt x="0" y="639" on="1"/>
        <pt x="66" y="654" on="0"/>
        <pt x="213" y="670" on="0"/>
        <pt x="282" y="670" on="1"/>
        <pt x="341" y="670" on="0"/>
        <pt x="482" y="652" on="0"/>
        <pt x="525" y="639" on="1"/>
        <pt x="530" y="628" on="0"/>
        <pt x="536" y="595" on="0"/>
        <pt x="536" y="577" on="1"/>
        <pt x="536" y="558" on="0"/>
        <pt x="530" y="518" on="0"/>
        <pt x="525" y="504" on="1"/>
        <pt x="507" y="508" on="0"/>
        <pt x="467" y="515" on="0"/>
        <pt x="447" y="518" on="1"/>
        <pt x="443" y="466" on="0"/>
        <pt x="440" y="358" on="0"/>
        <pt x="440" y="292" on="1"/>
        <pt x="440" y="120" on="0"/>
        <pt x="461" y="-133" on="0"/>
        <pt x="483" y="-217" on="1"/>
        <pt x="455" y="-227" on="0"/>
        <pt x="365" y="-239" on="0"/>
        <pt x="317" y="-239" on="1"/>
        <pt x="311" y="-174" on="0"/>
        <pt x="264" y="-80" on="0"/>
        <pt x="242" y="-80" on="1"/>
        <pt x="234" y="-80" on="0"/>
        <pt x="226" y="-89" on="0"/>
        <pt x="226" y="-98" on="1"/>
        <pt x="226" y="-106" on="0"/>
        <pt x="232" y="-123" on="0"/>
        <pt x="244" y="-143" on="1"/>
        <pt x="249" y="-151" on="1"/>
        <pt x="233" y="-158" on="0"/>
        <pt x="194" y="-170" on="0"/>
        <pt x="171" y="-175" on="1"/>
        <pt x="149" y="-145" on="1"/>
        <pt x="124" y="-114" on="0"/>
        <pt x="91" y="-93" on="0"/>
        <pt x="72" y="-93" on="1"/>
        <pt x="54" y="-93" on="0"/>
        <pt x="33" y="-103" on="0"/>
        <pt x="33" y="-113" on="1"/>
        <pt x="33" y="-125" on="0"/>
        <pt x="61" y="-143" on="0"/>
      </contour>
    </TTGlyph>
    <TTGlyph name="bn_b_ra" xMin="-37" yMin="-199" xMax="536" yMax="670">
      <contour>
        <pt x="177" y="244" on="1"/>
        <pt x="215" y="219" on="0"/>
        <pt x="278" y="160" on="0"/>
        <pt x="302" y="126" on="1"/>
        <pt x="302" y="176" on="0"/>
        <pt x="304" y="272" on="0"/>
        <pt x="307" y="326" on="1"/>
        <pt x="274" y="311" on="0"/>
        <pt x="207" y="269" on="0"/>
      </contour>
      <contour>
        <pt x="476" y="-177" on="1"/>
        <pt x="448" y="-187" on="0"/>
        <pt x="358" y="-199" on="0"/>
        <pt x="310" y="-199" on="1"/>
        <pt x="281" y="-171" on="0"/>
        <pt x="242" y="-157" on="0"/>
        <pt x="215" y="-157" on="1"/>
        <pt x="208" y="-157" on="0"/>
        <pt x="190" y="-157" on="0"/>
        <pt x="173" y="-158" on="1"/>
        <pt x="154" y="-159" on="0"/>
        <pt x="135" y="-159" on="0"/>
        <pt x="126" y="-159" on="1"/>
        <pt x="51" y="-159" on="0"/>
        <pt x="-37" y="-92" on="0"/>
        <pt x="-37" y="-35" on="1"/>
        <pt x="-37" y="-5" on="0"/>
        <pt x="-22" y="56" on="0"/>
        <pt x="-8" y="84" on="1"/>
        <pt x="18" y="84" on="0"/>
        <pt x="71" y="75" on="0"/>
        <pt x="91" y="67" on="1"/>
        <pt x="86" y="50" on="0"/>
        <pt x="81" y="26" on="0"/>
        <pt x="81" y="17" on="1"/>
        <pt x="81" y="1" on="0"/>
        <pt x="106" y="-18" on="0"/>
        <pt x="126" y="-18" on="1"/>
        <pt x="130" y="-18" on="0"/>
        <pt x="141" y="-18" on="0"/>
        <pt x="154" y="-17" on="1"/>
        <pt x="169" y="-16" on="0"/>
        <pt x="183" y="-16" on="0"/>
        <pt x="188" y="-16" on="1"/>
        <pt x="222" y="-16" on="0"/>
        <pt x="277" y="-53" on="0"/>
        <pt x="306" y="-95" on="1"/>
        <pt x="305" y="-65" on="0"/>
        <pt x="304" y="-35" on="0"/>
        <pt x="304" y="-22" on="1"/>
        <pt x="265" y="47" on="0"/>
        <pt x="155" y="133" on="0"/>
        <pt x="84" y="150" on="1"/>
        <pt x="53" y="197" on="0"/>
        <pt x="21" y="284" on="0"/>
        <pt x="18" y="331" on="1"/>
        <pt x="74" y="388" on="0"/>
        <pt x="224" y="478" on="0"/>
        <pt x="324" y="514" on="1"/>
        <pt x="324" y="516" on="0"/>
        <pt x="325" y="527" on="0"/>
        <pt x="325" y="530" on="1"/>
        <pt x="317" y="531" on="0"/>
        <pt x="297" y="531" on="0"/>
        <pt x="278" y="531" on="1"/>
        <pt x="214" y="531" on="0"/>
        <pt x="73" y="517" on="0"/>
        <pt x="0" y="504" on="1"/>
        <pt x="-5" y="520" on="0"/>
        <pt x="-11" y="560" on="0"/>
        <pt x="-11" y="579" on="1"/>
        <pt x="-11" y="598" on="0"/>
        <pt x="-6" y="628" on="0"/>
        <pt x="0" y="639" on="1"/>
        <pt x="66" y="654" on="0"/>
        <pt x="213" y="670" on="0"/>
        <pt x="282" y="670" on="1"/>
        <pt x="341" y="670" on="0"/>
        <pt x="482" y="652" on="0"/>
        <pt x="525" y="639" on="1"/>
        <pt x="530" y="628" on="0"/>
        <pt x="536" y="595" on="0"/>
        <pt x="536" y="577" on="1"/>
        <pt x="536" y="558" on="0"/>
        <pt x="530" y="518" on="0"/>
        <pt x="525" y="504" on="1"/>
        <pt x="507" y="508" on="0"/>
        <pt x="467" y="515" on="0"/>
        <pt x="447" y="518" on="1"/>
        <pt x="443" y="466" on="0"/>
        <pt x="440" y="358" on="0"/>
        <pt x="440" y="292" on="1"/>
        <pt x="440" y="120" on="0"/>
        <pt x="458" y="-104" on="0"/>
      </contour>
    </TTGlyph>
    <TTGlyph name="bn_b_ra_ukaar" xMin="-37" yMin="-199" xMax="704" yMax="674">
      <contour>
        <pt x="177" y="244" on="1"/>
        <pt x="215" y="219" on="0"/>
        <pt x="278" y="160" on="0"/>
        <pt x="302" y="126" on="1"/>
        <pt x="302" y="176" on="0"/>
        <pt x="304" y="272" on="0"/>
        <pt x="307" y="326" on="1"/>
        <pt x="273" y="310" on="0"/>
        <pt x="205" y="268" on="0"/>
      </contour>
      <contour>
        <pt x="476" y="-177" on="1"/>
        <pt x="448" y="-187" on="0"/>
        <pt x="358" y="-199" on="0"/>
        <pt x="310" y="-199" on="1"/>
        <pt x="281" y="-171" on="0"/>
        <pt x="242" y="-157" on="0"/>
        <pt x="215" y="-157" on="1"/>
        <pt x="208" y="-157" on="0"/>
        <pt x="190" y="-157" on="0"/>
        <pt x="173" y="-158" on="1"/>
        <pt x="154" y="-159" on="0"/>
        <pt x="135" y="-159" on="0"/>
        <pt x="126" y="-159" on="1"/>
        <pt x="51" y="-159" on="0"/>
        <pt x="-37" y="-92" on="0"/>
        <pt x="-37" y="-35" on="1"/>
        <pt x="-37" y="-5" on="0"/>
        <pt x="-22" y="56" on="0"/>
        <pt x="-8" y="84" on="1"/>
        <pt x="18" y="84" on="0"/>
        <pt x="71" y="75" on="0"/>
        <pt x="91" y="67" on="1"/>
        <pt x="86" y="50" on="0"/>
        <pt x="81" y="26" on="0"/>
        <pt x="81" y="17" on="1"/>
        <pt x="81" y="1" on="0"/>
        <pt x="106" y="-18" on="0"/>
        <pt x="126" y="-18" on="1"/>
        <pt x="130" y="-18" on="0"/>
        <pt x="141" y="-18" on="0"/>
        <pt x="154" y="-17" on="1"/>
        <pt x="169" y="-16" on="0"/>
        <pt x="183" y="-16" on="0"/>
        <pt x="188" y="-16" on="1"/>
        <pt x="222" y="-16" on="0"/>
        <pt x="277" y="-53" on="0"/>
        <pt x="306" y="-95" on="1"/>
        <pt x="305" y="-65" on="0"/>
        <pt x="304" y="-35" on="0"/>
        <pt x="304" y="-22" on="1"/>
        <pt x="265" y="47" on="0"/>
        <pt x="155" y="133" on="0"/>
        <pt x="84" y="150" on="1"/>
        <pt x="53" y="197" on="0"/>
        <pt x="21" y="284" on="0"/>
        <pt x="18" y="331" on="1"/>
        <pt x="74" y="388" on="0"/>
        <pt x="224" y="478" on="0"/>
        <pt x="324" y="514" on="1"/>
        <pt x="324" y="518" on="0"/>
        <pt x="325" y="526" on="0"/>
        <pt x="326" y="535" on="1"/>
        <pt x="242" y="534" on="0"/>
        <pt x="62" y="516" on="0"/>
        <pt x="0" y="504" on="1"/>
        <pt x="-5" y="518" on="0"/>
        <pt x="-11" y="558" on="0"/>
        <pt x="-11" y="577" on="1"/>
        <pt x="-11" y="596" on="0"/>
        <pt x="-5" y="630" on="0"/>
        <pt x="0" y="639" on="1"/>
        <pt x="60" y="654" on="0"/>
        <pt x="259" y="674" on="0"/>
        <pt x="351" y="674" on="1"/>
        <pt x="440" y="674" on="0"/>
        <pt x="641" y="653" on="0"/>
        <pt x="694" y="639" on="1"/>
        <pt x="698" y="629" on="0"/>
        <pt x="704" y="594" on="0"/>
        <pt x="704" y="577" on="1"/>
        <pt x="704" y="559" on="0"/>
        <pt x="698" y="517" on="0"/>
        <pt x="694" y="504" on="1"/>
        <pt x="649" y="512" on="0"/>
        <pt x="515" y="528" on="0"/>
        <pt x="449" y="532" on="1"/>
        <pt x="446" y="494" on="0"/>
        <pt x="442" y="411" on="0"/>
        <pt x="441" y="357" on="1"/>
        <pt x="445" y="309" on="0"/>
        <pt x="503" y="246" on="0"/>
        <pt x="536" y="246" on="1"/>
        <pt x="558" y="246" on="0"/>
        <pt x="586" y="282" on="0"/>
        <pt x="586" y="307" on="1"/>
        <pt x="586" y="324" on="0"/>
        <pt x="575" y="340" on="0"/>
        <pt x="564" y="340" on="1"/>
        <pt x="554" y="340" on="0"/>
        <pt x="523" y="310" on="0"/>
        <pt x="510" y="289" on="1"/>
        <pt x="496" y="321" on="0"/>
        <pt x="479" y="412" on="0"/>
        <pt x="480" y="457" on="1"/>
        <pt x="490" y="469" on="0"/>
        <pt x="524" y="482" on="0"/>
        <pt x="545" y="482" on="1"/>
        <pt x="605" y="482" on="0"/>
        <pt x="679" y="372" on="0"/>
        <pt x="679" y="279" on="1"/>
        <pt x="679" y="189" on="0"/>
        <pt x="617" y="80" on="0"/>
        <pt x="566" y="80" on="1"/>
        <pt x="524" y="80" on="0"/>
        <pt x="461" y="141" on="0"/>
        <pt x="441" y="202" on="1"/>
        <pt x="443" y="73" on="0"/>
        <pt x="460" y="-114" on="0"/>
      </contour>
    </TTGlyph>
</ttFont>
